Cosmetique-Oblique.sfdir
StartChar: exclam
Encoding: 33 33 143
Width: 321
Flags: HW
LayerCount: 2
Fore
SplineSet
108 -9 m 0
 90 -9 75 -3.33333333333 63 8 c 128
 51 19.3333333333 45 34 45 52 c 0
 45 68 51 82 63 94 c 128
 75 106 89 112 105 112 c 0
 122.333333333 112 136.833333333 106.166666667 148.5 94.5 c 128
 160.166666667 82.8333333333 166 68.3333333333 166 51 c 0
 166 41.6666666667 162.833333333 29.3333333333 156.5 14 c 128
 150.166666667 -1.33333333333 134 -9 108 -9 c 0
157 595 m 1
 157 617 161.666666667 636.833333333 171 654.5 c 128
 180.333333333 672.166666667 195 681 215 681 c 0
 229.666666667 681 242.333333333 677 253 669 c 128
 263.666666667 661 269 650.333333333 269 637 c 0
 269 627 267 615.5 263 602.5 c 128
 259 589.5 255.333333333 577 252 565 c 2
 135 179 l 1
 108 181 l 1
 157 595 l 1
EndSplineSet
EndChar
StartChar: quotedbl
Encoding: 34 34 144
Width: 274
Flags: W
LayerCount: 2
Fore
SplineSet
95 423 m 1,0,-1
 47 423 l 1,1,-1
 47 689 l 1,2,-1
 95 689 l 1,3,-1
 95 423 l 1,0,-1
227 423 m 1,4,-1
 178 423 l 1,5,-1
 178 689 l 1,6,-1
 227 689 l 1,7,-1
 227 423 l 1,4,-1
EndSplineSet
EndChar
StartChar: numbersign
Encoding: 35 35 2
Width: 756
Flags: HW
LayerCount: 2
Fore
SplineSet
359 466 m 1
 486 466 l 1
 570 699 l 1
 631 699 l 1
 549 466 l 1
 700 466 l 1
 682 416 l 1
 530 416 l 1
 483 282 l 1
 645 282 l 1
 629 231 l 1
 464 231 l 1
 383 0 l 1
 321 0 l 1
 403 231 l 1
 275 231 l 1
 192 0 l 1
 131 0 l 1
 213 231 l 1
 56 231 l 1
 73 282 l 1
 232 282 l 1
 278 416 l 1
 110 416 l 1
 127 466 l 1
 296 466 l 1
 379 699 l 1
 440 699 l 1
 359 466 l 1
340 416 m 1
 294 281 l 1
 422 281 l 1
 468 416 l 1
 340 416 l 1
EndSplineSet
EndChar
StartChar: dollar
Encoding: 36 36 5
Width: 539
Flags: W
LayerCount: 2
Fore
SplineSet
55 128 m 1,0,-1
 67 126 l 1,1,2
 84 78 84 78 113 52.5 c 128,-1,3
 142 27 142 27 190 27 c 1,4,-1
 245 303 l 1,5,6
 177 330 177 330 135 365.5 c 128,-1,7
 93 401 93 401 93 460 c 0,8,9
 93 545 93 545 158.5 595.5 c 128,-1,10
 224 646 224 646 314 656 c 1,11,12
 316 672 316 672 318 687.5 c 128,-1,13
 320 703 320 703 320 717 c 1,14,15
 331 714 331 714 347 713 c 128,-1,16
 363 712 363 712 364 712 c 1,17,18
 360 703 360 703 355.5 685 c 128,-1,19
 351 667 351 667 348 654 c 1,20,21
 385 654 385 654 423 641.5 c 128,-1,22
 461 629 461 629 490 607 c 1,23,24
 468 574 468 574 456 535 c 1,25,-1
 444 535 l 1,26,27
 436 568 436 568 408 586 c 128,-1,28
 380 604 380 604 339 613 c 1,29,-1
 293 368 l 1,30,31
 372 333 372 333 415 298.5 c 128,-1,32
 458 264 458 264 458 202 c 0,33,34
 458 105 458 105 386.5 46 c 128,-1,35
 315 -13 315 -13 217 -13 c 1,36,37
 212 -36 212 -36 208 -60 c 128,-1,38
 204 -84 204 -84 204 -105 c 1,39,-1
 176 -102 l 1,40,-1
 160 -104 l 1,41,42
 166 -87 166 -87 172.5 -60.5 c 128,-1,43
 179 -34 179 -34 183 -12 c 1,44,45
 139 -12 139 -12 99 2 c 128,-1,46
 59 16 59 16 17 44 c 1,47,48
 32 67 32 67 41 86 c 128,-1,49
 50 105 50 105 55 128 c 1,0,-1
373 172 m 0,50,51
 373 213 373 213 346.5 242 c 128,-1,52
 320 271 320 271 276 290 c 1,53,-1
 224 23 l 1,54,55
 284 23 284 23 328.5 66.5 c 128,-1,56
 373 110 373 110 373 172 c 0,50,51
307 616 m 1,57,58
 252 616 252 616 211 581 c 128,-1,59
 170 546 170 546 170 491 c 0,60,61
 170 452 170 452 195.5 424.5 c 128,-1,62
 221 397 221 397 260 383 c 1,63,-1
 307 616 l 1,57,58
EndSplineSet
EndChar
StartChar: percent
Encoding: 37 37 6
Width: 774
Flags: W
LayerCount: 2
Fore
SplineSet
352 527 m 1,0,1
 352 452 352 452 299 397 c 128,-1,2
 246 342 246 342 170 342 c 0,3,4
 110 342 110 342 72 379 c 128,-1,5
 34 416 34 416 34 477 c 0,6,7
 34 550 34 550 88 603 c 128,-1,8
 142 656 142 656 215 656 c 0,9,10
 270 656 270 656 304 626.5 c 128,-1,11
 338 597 338 597 351 542 c 1,12,-1
 352 527 l 1,0,1
728 166 m 1,13,14
 728 91 728 91 675 39 c 128,-1,15
 622 -13 622 -13 546 -13 c 0,16,17
 488 -13 488 -13 450.5 22.5 c 128,-1,18
 413 58 413 58 413 116 c 0,19,20
 413 189 413 189 466.5 242.5 c 128,-1,21
 520 296 520 296 594 296 c 0,22,23
 647 296 647 296 683.5 265.5 c 128,-1,24
 720 235 720 235 727 183 c 1,25,-1
 728 166 l 1,13,14
146 -90 m 1,26,-1
 87 -90 l 1,27,-1
 608 731 l 1,28,-1
 666 731 l 1,29,-1
 146 -90 l 1,26,-1
485 86 m 1,30,31
 485 54 485 54 501.5 33 c 128,-1,32
 518 12 518 12 549 12 c 0,33,34
 601 12 601 12 627 69 c 128,-1,35
 653 126 653 126 653 184 c 0,36,37
 653 220 653 220 640 244 c 128,-1,38
 627 268 627 268 590 268 c 0,39,40
 542 268 542 268 516.5 219 c 128,-1,41
 491 170 491 170 486 113 c 1,42,-1
 485 86 l 1,30,31
108 452 m 1,43,44
 108 421 108 421 124 395.5 c 128,-1,45
 140 370 140 370 169 370 c 0,46,47
 223 370 223 370 249 426 c 128,-1,48
 275 482 275 482 275 543 c 0,49,50
 275 579 275 579 260.5 602.5 c 128,-1,51
 246 626 246 626 212 626 c 0,52,53
 163 626 163 626 138.5 577.5 c 128,-1,54
 114 529 114 529 109 472 c 1,55,-1
 108 452 l 1,43,44
EndSplineSet
EndChar
StartChar: ampersand
Encoding: 38 38 5
Width: 674
Flags: HW
LayerCount: 2
Fore
SplineSet
175 520 m 0
 175 565.333333333 192.5 603.166666667 227.5 633.5 c 128
 262.5 663.833333333 303.666666667 679 351 679 c 0
 385.666666667 679 415.5 668.833333333 440.5 648.5 c 128
 465.5 628.166666667 478 601 478 567 c 0
 478 527.666666667 462.833333333 494.833333333 432.5 468.5 c 128
 402.166666667 442.166666667 362 415.666666667 312 389 c 1
 334.666666667 353 356.833333333 319.833333333 378.5 289.5 c 128
 400.166666667 259.166666667 430.333333333 217.666666667 469 165 c 1
 495 189.666666667 517 218 535 250 c 128
 553 282 567.333333333 317 578 355 c 1
 588 355 l 1
 589.333333333 348.333333333 593.166666667 339.333333333 599.5 328 c 128
 605.833333333 316.666666667 612.333333333 306.666666667 619 298 c 1
 607.666666667 269.333333333 591.333333333 241.666666667 570 215 c 128
 548.666666667 188.333333333 523 161 493 133 c 1
 522.333333333 95.6666666667 541.666666667 71 551 59 c 128
 560.333333333 47 576.666666667 27 600 -1 c 1
 579.333333333 1 558.666666667 3.33333333333 538 6 c 1
 530.666666667 6 522.833333333 5.5 514.5 4.5 c 128
 506.166666667 3.5 496 1.66666666667 484 -1 c 1
 475.333333333 11.6666666667 468 22.8333333333 462 32.5 c 128
 456 42.1666666667 445.666666667 56.6666666667 431 76 c 1
 395.666666667 48 359.666666667 26.1666666667 323 10.5 c 128
 286.333333333 -5.16666666667 247.666666667 -13 207 -13 c 0
 157 -13 114.166666667 2 78.5 32 c 128
 42.8333333333 62 25 101.666666667 25 151 c 0
 25 205 42.6666666667 249.666666667 78 285 c 128
 113.333333333 320.333333333 161 354 221 386 c 1
 207 406.666666667 195.833333333 428.5 187.5 451.5 c 128
 179.166666667 474.5 175 497.333333333 175 520 c 0
416 564 m 0
 416 585.333333333 409.333333333 604 396 620 c 128
 382.666666667 636 365.333333333 644 344 644 c 0
 318.666666667 644 296.333333333 633.666666667 277 613 c 128
 257.666666667 592.333333333 248 569.333333333 248 544 c 0
 248 527.333333333 251 509.833333333 257 491.5 c 128
 263 473.166666667 275.666666667 449 295 419 c 1
 333 442.333333333 362.666666667 464.333333333 384 485 c 128
 405.333333333 505.666666667 416 532 416 564 c 0
355 192 m 1
 238 355 l 1
 201.333333333 334.333333333 172 311.666666667 150 287 c 128
 128 262.333333333 115.333333333 231.666666667 112 195 c 1
 112 152.333333333 125.666666667 116.333333333 153 87 c 128
 180.333333333 57.6666666667 215.333333333 43 258 43 c 0
 284.666666667 43 310.166666667 48.6666666667 334.5 60 c 128
 358.833333333 71.3333333333 384 87.3333333333 410 108 c 1
 355 192 l 1
EndSplineSet
EndChar
StartChar: quotesingle
Encoding: 39 39 6
Width: 270
Flags: HW
LayerCount: 2
Fore
SplineSet
184 631 m 1
 189.333333333 647 196.5 659.5 205.5 668.5 c 128
 214.5 677.5 227 682 243 682 c 0
 255.666666667 682 265.5 679.666666667 272.5 675 c 128
 279.5 670.333333333 283 662 283 650 c 0
 283 641.333333333 280.833333333 632.5 276.5 623.5 c 128
 272.166666667 614.5 266.666666667 605.666666667 260 597 c 2
 100 391 l 1
 80 400 l 1
 184 631 l 1
EndSplineSet
EndChar
StartChar: parenleft
Encoding: 40 40 9
Width: 268
Flags: W
LayerCount: 2
Fore
SplineSet
100 169 m 256,0,1
 100 20 100 20 177 -98 c 1,2,-1
 148 -112 l 1,3,4
 93 -36 93 -36 63.5 43.5 c 128,-1,5
 34 123 34 123 34 210 c 0,6,7
 34 356 34 356 108 478.5 c 128,-1,8
 182 601 182 601 309 693 c 1,9,-1
 333 674 l 1,10,11
 220 581 220 581 160 449.5 c 128,-1,12
 100 318 100 318 100 169 c 256,0,1
EndSplineSet
EndChar
StartChar: parenright
Encoding: 41 41 8
Width: 268
Flags: HW
LayerCount: 2
Fore
SplineSet
149 412 m 0
 149 458.666666667 142.166666667 505.333333333 128.5 552 c 128
 114.833333333 598.666666667 95.6666666667 641 71 679 c 1
 101 693 l 1
 137 643.666666667 164.666666667 592.166666667 184 538.5 c 128
 203.333333333 484.833333333 213 429 213 371 c 0
 213 273.666666667 188.666666667 184 140 102 c 128
 91.3333333333 20 25 -51.3333333333 -59 -112 c 1
 -83 -92 l 1
 -7.66666666667 -34 49.8333333333 39.6666666667 89.5 129 c 128
 129.166666667 218.333333333 149 312.666666667 149 412 c 0
EndSplineSet
EndChar
StartChar: asterisk
Encoding: 42 42 9
Width: 486
Flags: HW
LayerCount: 2
Fore
SplineSet
247 480 m 1
 202.333333333 461.333333333 159.333333333 439 118 413 c 1
 116 425.666666667 112.833333333 438.5 108.5 451.5 c 128
 104.166666667 464.5 98.3333333333 476.333333333 91 487 c 1
 143 493 191.333333333 502 236 514 c 1
 217.333333333 528 199.166666667 540.5 181.5 551.5 c 128
 163.833333333 562.5 140.333333333 576 111 592 c 1
 131 607.333333333 148 627 162 651 c 1
 172.666666667 636.333333333 185.166666667 620.166666667 199.5 602.5 c 128
 213.833333333 584.833333333 233.333333333 564 258 540 c 1
 261.333333333 562.666666667 263.666666667 586.833333333 265 612.5 c 128
 266.333333333 638.166666667 267 663.333333333 267 688 c 1
 272.333333333 684.666666667 282.5 681.166666667 297.5 677.5 c 128
 312.5 673.833333333 327 672 341 672 c 1
 331 649.333333333 321.833333333 626.333333333 313.5 603 c 128
 305.166666667 579.666666667 298.666666667 557 294 535 c 1
 316.666666667 542.333333333 335.833333333 550.166666667 351.5 558.5 c 128
 367.166666667 566.833333333 392.333333333 581 427 601 c 1
 427 576.333333333 435.333333333 551.333333333 452 526 c 1
 421.333333333 522.666666667 395 519.166666667 373 515.5 c 128
 351 511.833333333 328.333333333 506.333333333 305 499 c 1
 322.333333333 485.666666667 342 472 364 458 c 128
 386 444 408 431.333333333 430 420 c 1
 424 416.666666667 414.666666667 407.833333333 402 393.5 c 128
 389.333333333 379.166666667 381 368.333333333 377 361 c 1
 345.666666667 404.333333333 314 442 282 474 c 1
 279.333333333 460 277.333333333 446.333333333 276 433 c 128
 274.666666667 419.666666667 274 405 274 389 c 0
 274 373 274 373 274 357 c 128
 274 346.333333333 274.666666667 336 276 326 c 1
 262.666666667 332 253.166666667 335.833333333 247.5 337.5 c 128
 241.833333333 339.166666667 234.333333333 340 225 340 c 2
 200 340 l 1
 207.333333333 358.666666667 214.833333333 379.5 222.5 402.5 c 128
 230.166666667 425.5 238.333333333 451.333333333 247 480 c 1
EndSplineSet
EndChar
StartChar: plus
Encoding: 43 43 10
Width: 820
Flags: HW
LayerCount: 2
Fore
SplineSet
434 316 m 1
 698 316 l 1
 698 270 l 1
 434 270 l 1
 434 0 l 1
 386 0 l 1
 386 270 l 1
 122 270 l 1
 122 316 l 1
 386 316 l 1
 386 586 l 1
 434 586 l 1
 434 316 l 1
EndSplineSet
EndChar
StartChar: comma
Encoding: 44 44 13
Width: 270
Flags: W
LayerCount: 2
Fore
SplineSet
55 66 m 2,0,1
 69 95 69 95 79.5 107 c 128,-1,2
 90 119 90 119 114 119 c 0,3,4
 133 119 133 119 143.5 112 c 128,-1,5
 154 105 154 105 154 87 c 0,6,7
 154 76 154 76 151 68.5 c 128,-1,8
 148 61 148 61 131 32 c 1,9,-1
 -28 -173 l 1,10,-1
 -49 -162 l 1,11,-1
 55 66 l 2,0,1
EndSplineSet
EndChar
StartChar: hyphen
Encoding: 45 45 12
Width: 321
Flags: HW
LayerCount: 2
Fore
SplineSet
30 281 m 1
 43.3333333333 281 63.6666666667 280.333333333 91 279 c 128
 118.333333333 277.666666667 139 277 153 277 c 0
 166.333333333 277 186.333333333 277.666666667 213 279 c 128
 239.666666667 280.333333333 260 281 274 281 c 1
 270 270.333333333 266.5 257.666666667 263.5 243 c 128
 260.5 228.333333333 258 212.666666667 256 196 c 1
 237.333333333 196 213.666666667 196.833333333 185 198.5 c 128
 156.333333333 200.166666667 139.666666667 201 135 201 c 0
 117.666666667 201 94.3333333333 200.166666667 65 198.5 c 128
 35.6666666667 196.833333333 17.6666666667 196 11 196 c 1
 16.3333333333 211.333333333 20.1666666667 224.5 22.5 235.5 c 128
 24.8333333333 246.5 27.3333333333 261.666666667 30 281 c 1
EndSplineSet
EndChar
StartChar: period
Encoding: 46 46 13
Width: 270
Flags: HW
LayerCount: 2
Fore
SplineSet
86 114 m 0
 103.333333333 114 117.666666667 108.333333333 129 97 c 128
 140.333333333 85.6666666667 146 71.3333333333 146 54 c 256
 146 36.6666666667 140.333333333 22.3333333333 129 11 c 128
 117.666666667 -0.333333333333 103.333333333 -6 86 -6 c 256
 68.6666666667 -6 54.1666666667 -0.166666666667 42.5 11.5 c 128
 30.8333333333 23.1666666667 25 38 25 56 c 0
 25 60.6666666667 25.6666666667 64.5 27 67.5 c 128
 28.3333333333 70.5 31.5 79 36.5 93 c 128
 41.5 107 58 114 86 114 c 0
EndSplineSet
EndChar
StartChar: slash
Encoding: 47 47 14
Width: 276
Flags: HW
LayerCount: 2
Fore
SplineSet
294 738 m 1
 28 -91 l 1
 -25 -91 l 1
 241 738 l 1
 294 738 l 1
EndSplineSet
EndChar
StartChar: zero
Encoding: 48 48 15
Width: 539
Flags: HW
LayerCount: 2
Fore
SplineSet
311 655 m 0
 378.333333333 655 428 632.166666667 460 586.5 c 128
 492 540.833333333 508 483 508 413 c 0
 508 309.666666667 483.833333333 212.833333333 435.5 122.5 c 128
 387.166666667 32.1666666667 316 -13 222 -13 c 0
 151.333333333 -13 100.166666667 9.5 68.5 54.5 c 128
 36.8333333333 99.5 21 159.333333333 21 234 c 0
 21 252.666666667 22.1666666667 272.166666667 24.5 292.5 c 128
 26.8333333333 312.833333333 33.3333333333 348.333333333 44 399 c 128
 54.6666666667 449.666666667 83.5 505 130.5 565 c 128
 177.5 625 237.666666667 655 311 655 c 0
105 191 m 0
 105 145 113.666666667 105.5 131 72.5 c 128
 148.333333333 39.5 177.666666667 23 219 23 c 0
 269 23 308.833333333 48 338.5 98 c 128
 368.166666667 148 389.5 207 402.5 275 c 128
 415.5 343 422 401.666666667 422 451 c 0
 422 496.333333333 413.333333333 535.5 396 568.5 c 128
 378.666666667 601.5 349.666666667 618 309 618 c 0
 241.666666667 618 196.666666667 586 174 522 c 128
 151.333333333 458 135.5 402.166666667 126.5 354.5 c 128
 117.5 306.833333333 111.666666667 273.666666667 109 255 c 128
 106.333333333 236.333333333 105 215 105 191 c 0
EndSplineSet
EndChar
StartChar: one
Encoding: 49 49 18
Width: 539
Flags: W
LayerCount: 2
Fore
SplineSet
302 571 m 1,0,1
 222 535 222 535 193.5 521 c 128,-1,2
 165 507 165 507 121 479 c 1,3,4
 120 494 120 494 117.5 509 c 128,-1,5
 115 524 115 524 110 539 c 1,6,7
 180 563 180 563 255 594.5 c 128,-1,8
 330 626 330 626 398 659 c 1,9,-1
 412 645 l 1,10,11
 332 331 332 331 279 0 c 1,12,13
 271 0 271 0 254 3 c 128,-1,14
 237 6 237 6 227 6 c 256,15,16
 217 6 217 6 203.5 4 c 128,-1,17
 190 2 190 2 178 0 c 1,18,19
 213 144 213 144 245 289 c 128,-1,20
 277 434 277 434 302 571 c 1,0,1
EndSplineSet
EndChar
StartChar: two
Encoding: 50 50 19
Width: 539
Flags: W
LayerCount: 2
Fore
SplineSet
229 71 m 2,0,1
 260 71 260 71 331.5 76.5 c 128,-1,2
 403 82 403 82 425 82 c 1,3,4
 415 52 415 52 415 26 c 2,5,-1
 416 0 l 1,6,-1
 213 5 l 1,7,8
 163 5 163 5 85.5 2.5 c 128,-1,9
 8 0 8 0 -4 0 c 1,10,-1
 0 37 l 1,11,12
 76 100 76 100 161.5 173 c 128,-1,13
 247 246 247 246 309 330.5 c 128,-1,14
 371 415 371 415 371 497 c 0,15,16
 371 547 371 547 342.5 581 c 128,-1,17
 314 615 314 615 264 615 c 0,18,19
 219 615 219 615 188 587.5 c 128,-1,20
 157 560 157 560 141 514 c 1,21,-1
 125 514 l 1,22,23
 121 528 121 528 112.5 543 c 128,-1,24
 104 558 104 558 93 572 c 1,25,26
 171 655 171 655 280 655 c 0,27,28
 362 655 362 655 416 611.5 c 128,-1,29
 470 568 470 568 470 487 c 0,30,31
 470 409 470 409 409.5 334.5 c 128,-1,32
 349 260 349 260 261.5 193.5 c 128,-1,33
 174 127 174 127 99 71 c 1,34,-1
 229 71 l 2,0,1
EndSplineSet
EndChar
StartChar: three
Encoding: 51 51 18
Width: 539
Flags: HW
LayerCount: 2
Fore
SplineSet
30 111 m 1
 40 105 l 1
 50.6666666667 79.6666666667 68.1666666667 60.3333333333 92.5 47 c 128
 116.833333333 33.6666666667 144 27 174 27 c 0
 225.333333333 27 269.166666667 43.5 305.5 76.5 c 128
 341.833333333 109.5 360 151.666666667 360 203 c 0
 360 235 350.833333333 262.5 332.5 285.5 c 128
 314.166666667 308.5 289 320 257 320 c 0
 247.666666667 320 237 319 225 317 c 128
 213 315 201.333333333 313 190 311 c 1
 199 364 l 1
 206.333333333 362.666666667 213.166666667 362 219.5 362 c 128
 229 362 229 362 239 362 c 0
 281 362 316.333333333 376.666666667 345 406 c 128
 373.666666667 435.333333333 388 471 388 513 c 0
 388 543.666666667 378.333333333 568.666666667 359 588 c 128
 339.666666667 607.333333333 314.333333333 617 283 617 c 0
 253 617 227.333333333 608.666666667 206 592 c 128
 184.666666667 575.333333333 168.666666667 552 158 522 c 1
 148 522 l 1
 146 532 143.5 541.5 140.5 550.5 c 128
 137.5 559.5 131.333333333 573.333333333 122 592 c 1
 176 634.666666667 235 656 299 656 c 0
 345.666666667 656 386.333333333 643.666666667 421 619 c 128
 455.666666667 594.333333333 473 559.333333333 473 514 c 0
 473 478.666666667 461.166666667 447.166666667 437.5 419.5 c 128
 413.833333333 391.833333333 368.333333333 367 301 345 c 1
 345.666666667 339 382.166666667 324.833333333 410.5 302.5 c 128
 438.833333333 280.166666667 453 247.666666667 453 205 c 0
 453 139.666666667 423.833333333 87 365.5 47 c 128
 307.166666667 7 243.333333333 -13 174 -13 c 0
 144 -13 113.666666667 -10.5 83 -5.5 c 128
 52.3333333333 -0.5 25.3333333333 7.33333333333 2 18 c 1
 6 34.6666666667 10.3333333333 50.3333333333 15 65 c 128
 19.6666666667 79.6666666667 24.6666666667 95 30 111 c 1
EndSplineSet
EndChar
StartChar: four
Encoding: 52 52 21
Width: 539
Flags: W
LayerCount: 2
Fore
SplineSet
292 183 m 1,0,1
 242 183 242 183 153 180 c 128,-1,2
 64 177 64 177 14 177 c 1,3,-1
 21 215 l 1,4,5
 45 242 45 242 130.5 337.5 c 128,-1,6
 216 433 216 433 302.5 530.5 c 128,-1,7
 389 628 389 628 412 655 c 1,8,9
 416 654 416 654 425 652.5 c 128,-1,10
 434 651 434 651 443 650 c 1,11,-1
 480 653 l 1,12,13
 455 560 455 560 440 502 c 128,-1,14
 425 444 425 444 408 367 c 1,15,-1
 383 243 l 1,16,17
 403 243 403 243 437.5 245 c 128,-1,18
 472 247 472 247 490 249 c 1,19,20
 474 224 474 224 474 201 c 1,21,-1
 476 176 l 1,22,23
 451 176 451 176 413 178.5 c 128,-1,24
 375 181 375 181 371 181 c 1,25,26
 358 127 358 127 350.5 83.5 c 128,-1,27
 343 40 343 40 343 0 c 1,28,-1
 297 5 l 1,29,30
 286 5 286 5 267 2.5 c 128,-1,31
 248 0 248 0 244 0 c 1,32,33
 256 39 256 39 267.5 85 c 128,-1,34
 279 131 279 131 292 183 c 1,0,1
306 243 m 1,35,36
 326 318 326 318 353 431 c 128,-1,37
 380 544 380 544 383 557 c 1,38,-1
 279 447 l 1,39,40
 176 330 176 330 164.5 316.5 c 128,-1,41
 153 303 153 303 99 240 c 1,42,-1
 306 243 l 1,35,36
EndSplineSet
EndChar
StartChar: five
Encoding: 53 53 22
Width: 539
Flags: W
LayerCount: 2
Fore
SplineSet
272 397 m 0,0,1
 344 397 344 397 393.5 350.5 c 128,-1,2
 443 304 443 304 443 232 c 0,3,4
 443 127 443 127 359.5 57 c 128,-1,5
 276 -13 276 -13 169 -13 c 0,6,7
 129 -13 129 -13 88 -2.5 c 128,-1,8
 47 8 47 8 4 27 c 1,9,10
 15 74 15 74 30 115 c 1,11,-1
 37 113 l 1,12,13
 58 72 58 72 84 49.5 c 128,-1,14
 110 27 110 27 151 27 c 0,15,16
 233 27 233 27 287.5 81.5 c 128,-1,17
 342 136 342 136 342 217 c 0,18,19
 342 274 342 274 310.5 313.5 c 128,-1,20
 279 353 279 353 223 353 c 0,21,22
 201 353 201 353 173 341.5 c 128,-1,23
 145 330 145 330 121 313 c 1,24,-1
 102 326 l 1,25,26
 118 393 118 393 133 478 c 128,-1,27
 148 563 148 563 158 639 c 1,28,-1
 314 637 l 1,29,-1
 485 639 l 1,30,31
 479 620 479 620 476 596.5 c 128,-1,32
 473 573 473 573 473 553 c 1,33,34
 438 553 438 553 369 557 c 128,-1,35
 300 561 300 561 267 561 c 2,36,-1
 200 560 l 1,37,-1
 161 373 l 1,38,39
 212 397 212 397 272 397 c 0,0,1
EndSplineSet
EndChar
StartChar: six
Encoding: 54 54 21
Width: 539
Flags: HW
LayerCount: 2
Fore
SplineSet
395 613 m 0
 325 613 267.5 582.833333333 222.5 522.5 c 128
 177.5 462.166666667 148 393.333333333 134 316 c 1
 157.333333333 340.666666667 183.166666667 360 211.5 374 c 128
 239.833333333 388 270 395 302 395 c 0
 350.666666667 395 392.166666667 378.833333333 426.5 346.5 c 128
 460.833333333 314.166666667 478 273.666666667 478 225 c 0
 478 159 454.833333333 102.833333333 408.5 56.5 c 128
 362.166666667 10.1666666667 305.666666667 -13 239 -13 c 0
 171.666666667 -13 121.166666667 7.66666666667 87.5 49 c 128
 53.8333333333 90.3333333333 37 145.333333333 37 214 c 0
 37 322.666666667 69.3333333333 422.833333333 134 514.5 c 128
 198.666666667 606.166666667 283 652 387 652 c 0
 400.333333333 652 410 651.666666667 416 651 c 128
 422 650.333333333 436 648 458 644 c 1
 467 597 l 1
 446.333333333 607.666666667 422.333333333 613 395 613 c 0
117 166 m 0
 117 128 127 94.6666666667 147 66 c 128
 167 37.3333333333 195.333333333 23 232 23 c 0
 280.666666667 23 319.166666667 42.6666666667 347.5 82 c 128
 375.833333333 121.333333333 390 166.666666667 390 218 c 0
 390 253.333333333 378.833333333 283.5 356.5 308.5 c 128
 334.166666667 333.5 305.333333333 346 270 346 c 0
 232.666666667 346 200.166666667 332.333333333 172.5 305 c 128
 144.833333333 277.666666667 128 245.333333333 122 208 c 1
 118.666666667 195.333333333 117 181.333333333 117 166 c 0
EndSplineSet
EndChar
StartChar: seven
Encoding: 55 55 22
Width: 539
Flags: HW
LayerCount: 2
Fore
SplineSet
443 559 m 1
 223 556 l 1
 100 550 l 1
 106.666666667 562 111.333333333 572.166666667 114 580.5 c 128
 116.666666667 588.833333333 118 598.333333333 118 609 c 2
 118 639 l 1
 308 637 l 1
 541 639 l 1
 541 612 l 1
 524.333333333 589.333333333 512.5 573 505.5 563 c 128
 498.5 553 489.666666667 539.666666667 479 523 c 2
 332 297 l 2
 298 245 267.333333333 195 240 147 c 128
 212.666666667 99 187.333333333 50 164 0 c 1
 156 0 147 1 137 3 c 128
 127 5 118 6 110 6 c 256
 102 6 93.3333333333 5 84 3 c 128
 74.6666666667 1 65.6666666667 0 57 0 c 1
 103 51.3333333333 145.666666667 104.833333333 185 160.5 c 128
 224.333333333 216.166666667 267.166666667 280.5 313.5 353.5 c 128
 359.833333333 426.5 403 495 443 559 c 1
EndSplineSet
EndChar
StartChar: eight
Encoding: 56 56 23
Width: 539
Flags: HW
LayerCount: 2
Fore
SplineSet
115 494 m 0
 115 544 136.166666667 583.5 178.5 612.5 c 128
 220.833333333 641.5 268 656 320 656 c 0
 365.333333333 656 405.833333333 645 441.5 623 c 128
 477.166666667 601 495 568.666666667 495 526 c 256
 495 483.333333333 480 448 450 420 c 128
 420 392 382.333333333 372.666666667 337 362 c 1
 376.333333333 357.333333333 408.833333333 340.166666667 434.5 310.5 c 128
 460.166666667 280.833333333 473 246.333333333 473 207 c 0
 473 142.333333333 448.666666667 89.5 400 48.5 c 128
 351.333333333 7.5 293.666666667 -13 227 -13 c 0
 169.666666667 -13 120.666666667 2.16666666667 80 32.5 c 128
 39.3333333333 62.8333333333 19 105.666666667 19 161 c 0
 19 215.666666667 38.3333333333 261 77 297 c 128
 115.666666667 333 163.333333333 356.333333333 220 367 c 1
 188.666666667 375 163.333333333 390.166666667 144 412.5 c 128
 124.666666667 434.833333333 115 462 115 494 c 0
195 486 m 1
 195 454.666666667 203.666666667 428.666666667 221 408 c 128
 238.333333333 387.333333333 262.666666667 377 294 377 c 0
 329.333333333 377 357.5 391 378.5 419 c 128
 399.5 447 410 479.666666667 410 517 c 0
 410 547 401.5 571.5 384.5 590.5 c 128
 367.5 609.5 344 619 314 619 c 0
 285.333333333 619 260.5 608.833333333 239.5 588.5 c 128
 218.5 568.166666667 205.333333333 543.333333333 200 514 c 1
 198 508 196.333333333 498.666666667 195 486 c 1
110 152 m 0
 110 114.666666667 120.333333333 84 141 60 c 128
 161.666666667 36 190.333333333 24 227 24 c 0
 276.333333333 24 315 44.3333333333 343 85 c 128
 371 125.666666667 385 172 385 224 c 0
 385 258.666666667 374.333333333 286.666666667 353 308 c 128
 331.666666667 329.333333333 304 340 270 340 c 0
 232 340 198.5 326.166666667 169.5 298.5 c 128
 140.5 270.833333333 123.333333333 244 118 218 c 128
 112.666666667 192 110 170 110 152 c 0
EndSplineSet
EndChar
StartChar: nine
Encoding: 57 57 24
Width: 539
Flags: HW
LayerCount: 2
Fore
SplineSet
39 95 m 1
 55 74.3333333333 72 58 90 46 c 128
 108 34 128.333333333 28 151 28 c 0
 217 28 268.666666667 56.6666666667 306 114 c 128
 343.333333333 171.333333333 369 238.666666667 383 316 c 1
 361.666666667 294 338.666666667 277.5 314 266.5 c 128
 289.333333333 255.5 262 250 232 250 c 0
 180.666666667 250 138.5 266.833333333 105.5 300.5 c 128
 72.5 334.166666667 56 376.666666667 56 428 c 0
 56 491.333333333 79.5 545.166666667 126.5 589.5 c 128
 173.5 633.833333333 229.333333333 656 294 656 c 0
 357.333333333 656 406.666666667 635.5 442 594.5 c 128
 477.333333333 553.5 495 500.666666667 495 436 c 0
 495 325.333333333 463.166666667 222.833333333 399.5 128.5 c 128
 335.833333333 34.1666666667 252 -13 148 -13 c 0
 132.666666667 -13 117 -11.6666666667 101 -9 c 128
 85 -6.33333333333 68.3333333333 -3.33333333333 51 0 c 1
 46.3333333333 15.3333333333 42.3333333333 30.6666666667 39 46 c 128
 35.6666666667 61.3333333333 32.6666666667 77 30 93 c 1
 39 95 l 1
150 427 m 0
 150 391 160 360.833333333 180 336.5 c 128
 200 312.166666667 227.666666667 300 263 300 c 0
 309 300 345.5 317.833333333 372.5 353.5 c 128
 399.5 389.166666667 413 430.666666667 413 478 c 0
 413 518 402.833333333 551.333333333 382.5 578 c 128
 362.166666667 604.666666667 332.333333333 618 293 618 c 0
 259.666666667 618 230.166666667 603.5 204.5 574.5 c 128
 178.833333333 545.5 163.666666667 519.166666667 159 495.5 c 128
 154.333333333 471.833333333 151.666666667 457.333333333 151 452 c 128
 150.333333333 446.666666667 150 438.333333333 150 427 c 0
EndSplineSet
EndChar
StartChar: colon
Encoding: 58 58 25
Width: 307
Flags: HW
LayerCount: 2
Fore
SplineSet
98 114 m 0
 115.333333333 114 129.666666667 108.333333333 141 97 c 128
 152.333333333 85.6666666667 158 71.3333333333 158 54 c 256
 158 36.6666666667 152.333333333 22.3333333333 141 11 c 128
 129.666666667 -0.333333333333 115.333333333 -6 98 -6 c 0
 81.3333333333 -6 67 0 55 12 c 128
 43 24 37 38.6666666667 37 56 c 0
 37 60.6666666667 37.6666666667 64.5 39 67.5 c 128
 40.3333333333 70.5 42.3333333333 75.3333333333 45 82 c 128
 47.6666666667 88.6666666667 54 95.6666666667 64 103 c 128
 74 110.333333333 85.3333333333 114 98 114 c 0
172 465 m 0
 188 465 202 459 214 447 c 128
 226 435 232 421 232 405 c 0
 232 389.666666667 226 375.666666667 214 363 c 128
 202 350.333333333 188 344 172 344 c 256
 156 344 142 349.666666667 130 361 c 128
 118 372.333333333 112 386.333333333 112 403 c 1
 115 427 l 1
 119.666666667 439 127 448.333333333 137 455 c 128
 147 461.666666667 158.666666667 465 172 465 c 0
EndSplineSet
EndChar
StartChar: semicolon
Encoding: 59 59 26
Width: 307
Flags: HW
LayerCount: 2
Fore
SplineSet
166 464 m 0
 182.666666667 464 197 458 209 446 c 128
 221 434 227 420 227 404 c 256
 227 388 220.833333333 373.833333333 208.5 361.5 c 128
 196.166666667 349.166666667 182 343 166 343 c 0
 149.333333333 343 135.333333333 349 124 361 c 128
 112.666666667 373 107 387.333333333 107 404 c 0
 107 412.666666667 110.166666667 424.833333333 116.5 440.5 c 128
 122.833333333 456.166666667 139.333333333 464 166 464 c 0
69 66 m 2
 78.3333333333 86 86.3333333333 99.8333333333 93 107.5 c 128
 99.6666666667 115.166666667 111.333333333 119 128 119 c 0
 141.333333333 119 151.5 116.666666667 158.5 112 c 128
 165.5 107.333333333 169 99 169 87 c 0
 169 79 167.166666667 71.1666666667 163.5 63.5 c 128
 159.833333333 55.8333333333 153.666666667 45.3333333333 145 32 c 1
 -13 -173 l 1
 -34 -162 l 1
 69 66 l 2
EndSplineSet
EndChar
StartChar: less
Encoding: 60 60 29
Width: 820
Flags: W
LayerCount: 2
Fore
SplineSet
202 294 m 1,0,-1
 692 93 l 1,1,-1
 692 41 l 1,2,-1
 127 274 l 1,3,-1
 127 313 l 1,4,-1
 692 545 l 1,5,-1
 692 492 l 1,6,-1
 202 294 l 1,0,-1
EndSplineSet
EndChar
StartChar: equal
Encoding: 61 61 30
Width: 820
Flags: W
LayerCount: 2
Fore
SplineSet
698 359 m 1,0,-1
 122 359 l 1,1,-1
 122 406 l 1,2,-1
 698 406 l 1,3,-1
 698 359 l 1,0,-1
698 179 m 1,4,-1
 122 179 l 1,5,-1
 122 227 l 1,6,-1
 698 227 l 1,7,-1
 698 179 l 1,4,-1
EndSplineSet
EndChar
StartChar: greater
Encoding: 62 62 31
Width: 820
Flags: W
LayerCount: 2
Fore
SplineSet
693 274 m 1,0,-1
 127 41 l 1,1,-1
 127 93 l 1,2,-1
 618 294 l 1,3,-1
 127 492 l 1,4,-1
 127 545 l 1,5,-1
 693 313 l 1,6,-1
 693 274 l 1,0,-1
EndSplineSet
EndChar
StartChar: question
Encoding: 63 63 30
Width: 432
Flags: HW
LayerCount: 2
Fore
SplineSet
155 112 m 0
 182.333333333 112 198.833333333 104.666666667 204.5 90 c 128
 210.166666667 75.3333333333 213.333333333 66.3333333333 214 63 c 128
 214.666666667 59.6666666667 215 55.3333333333 215 50 c 256
 215 44.6666666667 214.666666667 40.3333333333 214 37 c 128
 213.333333333 33.6666666667 211.5 28.6666666667 208.5 22 c 128
 205.5 15.3333333333 198.5 8.5 187.5 1.5 c 128
 176.5 -5.5 164.666666667 -9 152 -9 c 0
 136.666666667 -9 123.166666667 -3.5 111.5 7.5 c 128
 99.8333333333 18.5 94 33 94 51 c 0
 94 59.6666666667 97.5 72 104.5 88 c 128
 111.5 104 128.333333333 112 155 112 c 0
230 168 m 1
 195.333333333 168 166.166666667 178.5 142.5 199.5 c 128
 118.833333333 220.5 107 248.333333333 107 283 c 0
 107 322.333333333 125 358 161 390 c 1
 194.333333333 414.666666667 227.666666667 439.666666667 261 465 c 1
 297.666666667 497 316 532 316 570 c 0
 316 591.333333333 308.833333333 609.166666667 294.5 623.5 c 128
 280.166666667 637.833333333 262 645 240 645 c 0
 224 645 209.5 641.166666667 196.5 633.5 c 128
 183.5 625.833333333 169 614.666666667 153 600 c 1
 141 602 l 1
 145 636 l 1
 144 667 l 1
 173.333333333 677 206.333333333 682 243 682 c 0
 285 682 320.5 669.833333333 349.5 645.5 c 128
 378.5 621.166666667 393 588.333333333 393 547 c 0
 393 499.666666667 375 459 339 425 c 1
 304.333333333 399.666666667 268.5 373.666666667 231.5 347 c 128
 194.5 320.333333333 174.333333333 292 171 262 c 1
 171 243.333333333 176.666666667 229.5 188 220.5 c 128
 199.333333333 211.5 214.333333333 207 233 207 c 0
 242.333333333 207 250.666666667 208.333333333 258 211 c 1
 246 169 l 1
 230 168 l 1
EndSplineSet
EndChar
StartChar: at
Encoding: 64 64 31
Width: 983
Flags: HW
LayerCount: 2
Fore
SplineSet
651 460 m 1
 698 460 l 1
 631 192 l 1
 621 148 l 1
 621 132 626.333333333 120.5 637 113.5 c 128
 647.666666667 106.5 661.333333333 103 678 103 c 0
 735.333333333 103 782.166666667 132.166666667 818.5 190.5 c 128
 854.833333333 248.833333333 873 308.666666667 873 370 c 0
 873 457.333333333 838.5 526.833333333 769.5 578.5 c 128
 700.5 630.166666667 620.666666667 656 530 656 c 0
 414.666666667 656 316.166666667 618.666666667 234.5 544 c 128
 152.833333333 469.333333333 112 375 112 261 c 0
 112 153 147.5 66.8333333333 218.5 2.5 c 128
 289.5 -61.8333333333 379.666666667 -94 489 -94 c 0
 541.666666667 -94 595.5 -86.1666666667 650.5 -70.5 c 128
 705.5 -54.8333333333 754 -32.3333333333 796 -3 c 1
 814 -30 l 1
 768 -63.3333333333 718.166666667 -89 664.5 -107 c 128
 610.833333333 -125 555.666666667 -134 499 -134 c 0
 377 -134 272.666666667 -99.5 186 -30.5 c 128
 99.3333333333 38.5 56 133 56 253 c 0
 56 379.666666667 103 485.666666667 197 571 c 128
 291 656.333333333 402.333333333 699 531 699 c 0
 634.333333333 699 726.166666667 668.666666667 806.5 608 c 128
 886.833333333 547.333333333 927 466.666666667 927 366 c 0
 927 288.666666667 902.666666667 218.333333333 854 155 c 128
 805.333333333 91.6666666667 743.666666667 60 669 60 c 0
 644.333333333 60 621.666666667 65 601 75 c 128
 580.333333333 85 570 101 570 123 c 1
 571 147 l 1
 556.333333333 120.333333333 536.166666667 99 510.5 83 c 128
 484.833333333 67 457.666666667 59 429 59 c 0
 379.666666667 59 342.166666667 72.8333333333 316.5 100.5 c 128
 290.833333333 128.166666667 278 167 278 217 c 0
 278 283.666666667 298.666666667 344 340 398 c 128
 381.333333333 452 434 479 498 479 c 0
 528 479 553.5 472.666666667 574.5 460 c 128
 595.5 447.333333333 611.333333333 427.666666667 622 401 c 1
 651 460 l 1
611 344 m 1
 604.333333333 371.333333333 591.833333333 393.833333333 573.5 411.5 c 128
 555.166666667 429.166666667 532.333333333 438 505 438 c 0
 452.333333333 438 411 414.5 381 367.5 c 128
 351 320.5 336 269.333333333 336 214 c 0
 336 182 344.833333333 155 362.5 133 c 128
 380.166666667 111 404.666666667 100 436 100 c 0
 471.333333333 100 501.833333333 111.833333333 527.5 135.5 c 128
 553.166666667 159.166666667 571 189 581 225 c 1
 611 344 l 1
EndSplineSet
EndChar
StartChar: A
Encoding: 65 65 32
Width: 582
Flags: HW
LayerCount: 2
Fore
SplineSet
357 688 m 1
 378 682 l 1
 402 688 l 1
 426 537.333333333 442 438.666666667 450 392 c 128
 458 345.333333333 470 286.166666667 486 214.5 c 128
 502 142.833333333 521.666666667 71.3333333333 545 0 c 1
 537.666666667 0 527.333333333 0.833333333333 514 2.5 c 128
 500.666666667 4.16666666667 492 5 488 5 c 0
 474 5 462 4.33333333333 452 3 c 128
 442 1.66666666667 433.666666667 0.666666666667 427 0 c 1
 427 38.6666666667 422.5 83.5 413.5 134.5 c 128
 404.5 185.5 397.666666667 224.666666667 393 252 c 1
 281 255 l 1
 168 252 l 1
 113 154 l 1
 98.3333333333 129.333333333 84 104.166666667 70 78.5 c 128
 56 52.8333333333 42.3333333333 26.6666666667 29 0 c 1
 21.6666666667 0 12.3333333333 0.833333333333 1 2.5 c 128
 -10.3333333333 4.16666666667 -16.6666666667 5 -18 5 c 0
 -28 5 -37 4.33333333333 -45 3 c 128
 -53 1.66666666667 -59.3333333333 0.666666666667 -64 0 c 1
 10.6666666667 104.666666667 88 221.333333333 168 350 c 128
 248 478.666666667 311 591.333333333 357 688 c 1
281 300 m 1
 382 303 l 1
 335 548 l 1
 192 303 l 1
 281 300 l 1
EndSplineSet
EndChar
StartChar: B
Encoding: 66 66 35
Width: 547
Flags: W
LayerCount: 2
Fore
SplineSet
146 671 m 1,0,-1
 219 668 l 2,1,2
 237 668 237 668 281 670 c 128,-1,3
 325 672 325 672 328 672 c 0,4,5
 405 672 405 672 461 639.5 c 128,-1,6
 517 607 517 607 517 536 c 0,7,8
 517 457 517 457 460.5 415.5 c 128,-1,9
 404 374 404 374 316 359 c 1,10,11
 392 352 392 352 440.5 316.5 c 128,-1,12
 489 281 489 281 489 210 c 0,13,14
 489 114 489 114 412.5 57 c 128,-1,15
 336 0 336 0 237 0 c 1,16,-1
 94 3 l 1,17,-1
 9 1 l 1,18,19
 52 145 52 145 86 317.5 c 128,-1,20
 120 490 120 490 146 671 c 1,0,-1
427 524 m 0,21,22
 427 577 427 577 394 608 c 128,-1,23
 361 639 361 639 308 639 c 0,24,25
 292 639 292 639 272 637 c 128,-1,26
 252 635 252 635 235 633 c 1,27,28
 222 585 222 585 206 510.5 c 128,-1,29
 190 436 190 436 179 375 c 1,30,31
 284 375 284 375 355.5 404 c 128,-1,32
 427 433 427 433 427 524 c 0,21,22
187 39 m 0,33,34
 269 39 269 39 332 82 c 128,-1,35
 395 125 395 125 395 203 c 0,36,37
 395 269 395 269 350.5 303 c 128,-1,38
 306 337 306 337 237 337 c 1,39,-1
 172 336 l 1,40,41
 153 249 153 249 140 182 c 128,-1,42
 127 115 127 115 118 43 c 1,43,44
 147 41 147 41 161 40 c 128,-1,45
 175 39 175 39 187 39 c 0,33,34
EndSplineSet
EndChar
StartChar: C
Encoding: 67 67 34
Width: 631
Flags: HW
LayerCount: 2
Fore
SplineSet
439 640 m 0
 347 640 272.833333333 606 216.5 538 c 128
 160.166666667 470 132 389.333333333 132 296 c 0
 132 219.333333333 149.833333333 156 185.5 106 c 128
 221.166666667 56 276.333333333 31 351 31 c 0
 393.666666667 31 433.5 40 470.5 58 c 128
 507.5 76 544.666666667 101.333333333 582 134 c 1
 590 125 l 1
 583.333333333 111.666666667 577.333333333 96.8333333333 572 80.5 c 128
 566.666666667 64.1666666667 562.333333333 47.6666666667 559 31 c 1
 523.666666667 17 488.166666667 6.16666666667 452.5 -1.5 c 128
 416.833333333 -9.16666666667 381 -13 345 -13 c 0
 310.333333333 -13 273 -8.66666666667 233 0 c 1
 169 17.3333333333 119.333333333 52.8333333333 84 106.5 c 128
 48.6666666667 160.166666667 31 221.333333333 31 290 c 0
 31 398.666666667 71.1666666667 491.833333333 151.5 569.5 c 128
 231.833333333 647.166666667 326.666666667 686 436 686 c 0
 474 686 512.666666667 681.666666667 552 673 c 128
 591.333333333 664.333333333 627.333333333 652 660 636 c 1
 652.666666667 624.666666667 645.833333333 610.833333333 639.5 594.5 c 128
 633.166666667 578.166666667 628.666666667 562.666666667 626 548 c 1
 613 548 l 1
 573 609.333333333 515 640 439 640 c 0
EndSplineSet
EndChar
StartChar: D
Encoding: 68 68 35
Width: 728
Flags: HW
LayerCount: 2
Fore
SplineSet
141 671 m 1
 212 670 l 1
 388 672 l 1
 482 672 556.833333333 648 612.5 600 c 128
 668.166666667 552 696 481.333333333 696 388 c 0
 696 264 651.166666667 168.333333333 561.5 101 c 128
 471.833333333 33.6666666667 363 0 235 0 c 1
 83 3 l 1
 8 1 l 1
 32.6666666667 85.6666666667 53.6666666667 162.5 71 231.5 c 128
 88.3333333333 300.5 104.333333333 376.666666667 119 460 c 128
 133.666666667 543.333333333 141 613.666666667 141 671 c 1
215 45 m 0
 323 45 413.666666667 76.1666666667 487 138.5 c 128
 560.333333333 200.833333333 597 285 597 391 c 0
 597 464.333333333 576.333333333 522.333333333 535 565 c 128
 493.666666667 607.666666667 436 629 362 629 c 0
 348 629 324.166666667 628.333333333 290.5 627 c 128
 256.833333333 625.666666667 239 625 237 625 c 1
 215 557 192.833333333 467 170.5 355 c 128
 148.166666667 243 131 141.666666667 119 51 c 1
 129.666666667 51 145.666666667 50 167 48 c 128
 188.333333333 46 204.333333333 45 215 45 c 0
EndSplineSet
EndChar
StartChar: E
Encoding: 69 69 38
Width: 466
Flags: W
LayerCount: 2
Fore
SplineSet
147 671 m 1,0,-1
 316 668 l 1,1,-1
 470 671 l 1,2,3
 455 639 455 639 455 610 c 1,4,5
 426 615 426 615 398 617 c 128,-1,6
 370 619 370 619 337 619 c 2,7,-1
 236 619 l 1,8,9
 227 592 227 592 217 546.5 c 128,-1,10
 207 501 207 501 202 478 c 2,11,-1
 182 382 l 1,12,-1
 267 382 l 2,13,14
 317 382 317 382 341.5 383 c 128,-1,15
 366 384 366 384 412 390 c 1,16,17
 400 361 400 361 400 325 c 1,18,19
 373 329 373 329 338.5 332 c 128,-1,20
 304 335 304 335 275 335 c 2,21,-1
 173 335 l 1,22,-1
 150 224 l 2,23,24
 142 187 142 187 134.5 143.5 c 128,-1,25
 127 100 127 100 120 54 c 1,26,27
 223 54 223 54 276.5 56.5 c 128,-1,28
 330 59 330 59 377 65 c 1,29,30
 372 52 372 52 369.5 41.5 c 128,-1,31
 367 31 367 31 367 20 c 2,32,-1
 368 0 l 1,33,-1
 144 6 l 1,34,35
 76 6 76 6 10 0 c 1,36,37
 47 119 47 119 88.5 325 c 128,-1,38
 130 531 130 531 147 671 c 1,0,-1
EndSplineSet
EndChar
StartChar: F
Encoding: 70 70 37
Width: 446
Flags: HW
LayerCount: 2
Fore
SplineSet
147 671 m 1
 327 668 l 1
 481 671 l 1
 473.666666667 653 468 632.666666667 464 610 c 1
 445.333333333 613.333333333 427 615.666666667 409 617 c 128
 391 618.333333333 370.666666667 619 348 619 c 2
 239 619 l 1
 232.333333333 599.666666667 226.166666667 578.333333333 220.5 555 c 128
 214.833333333 531.666666667 209.333333333 506.333333333 204 479 c 2
 185 382 l 1
 272 382 l 2
 310.666666667 382 337.333333333 382.5 352 383.5 c 128
 366.666666667 384.5 388 386.666666667 416 390 c 1
 412 380.666666667 409.166666667 371.166666667 407.5 361.5 c 128
 405.833333333 351.833333333 404.333333333 340.333333333 403 327 c 1
 382.333333333 329.666666667 362.5 331.666666667 343.5 333 c 128
 324.5 334.333333333 303.333333333 335 280 335 c 2
 176 335 l 1
 152 223 l 2
 150 211 143.5 179.333333333 132.5 128 c 128
 121.5 76.6666666667 116 34 116 0 c 1
 104 1.33333333333 93.6666666667 2.5 85 3.5 c 128
 76.3333333333 4.5 69 5 63 5 c 0
 55.6666666667 5 45.6666666667 4.16666666667 33 2.5 c 128
 20.3333333333 0.833333333333 12.6666666667 0 10 0 c 1
 40.6666666667 104.666666667 66.8333333333 211.666666667 88.5 321 c 128
 110.166666667 430.333333333 129.666666667 547 147 671 c 1
EndSplineSet
EndChar
StartChar: G
Encoding: 71 71 40
Width: 707
Flags: W
LayerCount: 2
Fore
SplineSet
436 640 m 0,0,1
 304 640 304 640 222.5 535.5 c 128,-1,2
 141 431 141 431 141 296 c 0,3,4
 141 175 141 175 200 101.5 c 128,-1,5
 259 28 259 28 377 28 c 0,6,7
 416 28 416 28 439.5 33.5 c 128,-1,8
 463 39 463 39 503 50 c 1,9,10
 526 144 526 144 535.5 192 c 128,-1,11
 545 240 545 240 550 284 c 1,12,13
 580 274 580 274 606 274 c 0,14,15
 618 274 618 274 628.5 276 c 128,-1,16
 639 278 639 278 659 284 c 1,17,18
 638 216 638 216 621.5 150 c 128,-1,19
 605 84 605 84 595 19 c 1,20,21
 481 3 481 3 367 -13 c 1,22,23
 326 -13 326 -13 308 -11.5 c 128,-1,24
 290 -10 290 -10 222.5 2 c 128,-1,25
 155 14 155 14 96.5 96 c 128,-1,26
 38 178 38 178 38 281 c 0,27,28
 38 457 38 457 155.5 571.5 c 128,-1,29
 273 686 273 686 449 686 c 0,30,31
 510 686 510 686 569 670.5 c 128,-1,32
 628 655 628 655 694 626 c 1,33,-1
 676 602 l 2,34,35
 669 594 669 594 662.5 578 c 128,-1,36
 656 562 656 562 651 548 c 1,37,-1
 639 547 l 1,38,39
 597 593 597 593 547 616.5 c 128,-1,40
 497 640 497 640 436 640 c 0,0,1
EndSplineSet
EndChar
StartChar: H
Encoding: 72 72 41
Width: 728
Flags: W
LayerCount: 2
Fore
SplineSet
147 671 m 1,0,-1
 197 667 l 2,1,2
 207 667 207 667 229.5 669 c 128,-1,3
 252 671 252 671 253 671 c 1,4,5
 240 631 240 631 231 593 c 128,-1,6
 222 555 222 555 186 384 c 1,7,-1
 366 381 l 1,8,-1
 561 384 l 1,9,-1
 583 493 l 1,10,11
 596 548 596 548 603.5 589.5 c 128,-1,12
 611 631 611 631 611 671 c 1,13,14
 626 669 626 669 641.5 667.5 c 128,-1,15
 657 666 657 666 661 666 c 0,16,17
 679 666 679 666 691.5 667.5 c 128,-1,18
 704 669 704 669 719 671 c 1,19,20
 671 524 671 524 637 353 c 128,-1,21
 603 182 603 182 581 0 c 1,22,-1
 530 4 l 2,23,24
 521 4 521 4 503 2 c 128,-1,25
 485 0 485 0 475 0 c 1,26,27
 491 59 491 59 502 103 c 128,-1,28
 513 147 513 147 524 203 c 2,29,-1
 551 334 l 1,30,-1
 364 335 l 1,31,-1
 176 334 l 1,32,-1
 153 224 l 1,33,34
 133 118 133 118 117 0 c 1,35,36
 107 1 107 1 90 3 c 128,-1,37
 73 5 73 5 65 5 c 0,38,39
 53 5 53 5 33.5 2.5 c 128,-1,40
 14 0 14 0 10 0 c 1,41,42
 50 133 50 133 87.5 320.5 c 128,-1,43
 125 508 125 508 147 671 c 1,0,-1
EndSplineSet
EndChar
StartChar: I
Encoding: 73 73 42
Width: 277
Flags: W
LayerCount: 2
Fore
SplineSet
124 0 m 1,0,-1
 72 4 l 1,1,2
 48 4 48 4 34.5 2 c 128,-1,3
 21 0 21 0 14 0 c 1,4,5
 62 179 62 179 98 347.5 c 128,-1,6
 134 516 134 516 152 671 c 1,7,8
 166 669 166 669 178 668 c 128,-1,9
 190 667 190 667 207 667 c 0,10,11
 229 667 229 667 242 669 c 128,-1,12
 255 671 255 671 261 671 c 1,13,14
 214 513 214 513 180 343.5 c 128,-1,15
 146 174 146 174 124 0 c 1,0,-1
EndSplineSet
EndChar
StartChar: J
Encoding: 74 74 41
Width: 277
Flags: HW
LayerCount: 2
Fore
SplineSet
173 254 m 1
 151 127 l 2
 135.666666667 37 109 -32.6666666667 71 -82 c 128
 33 -131.333333333 -26.6666666667 -156 -108 -156 c 1
 -112 -116 l 1
 -86.6666666667 -116 -63.6666666667 -110.833333333 -43 -100.5 c 128
 -22.3333333333 -90.1666666667 -6 -74.3333333333 6 -53 c 1
 26 -26.3333333333 46.3333333333 34.8333333333 67 130.5 c 128
 87.6666666667 226.166666667 105.166666667 322.5 119.5 419.5 c 128
 133.833333333 516.5 144.666666667 600.333333333 152 671 c 1
 167.333333333 669.666666667 178.666666667 668.666666667 186 668 c 128
 193.333333333 667.333333333 200.333333333 667 207 667 c 0
 215.666666667 667 225.5 667.5 236.5 668.5 c 128
 247.5 669.5 256 670.333333333 262 671 c 1
 243.333333333 597 226.666666667 526.333333333 212 459 c 128
 197.333333333 391.666666667 184.333333333 323.333333333 173 254 c 1
EndSplineSet
EndChar
StartChar: L
Encoding: 76 76 43
Width: 432
Flags: HW
LayerCount: 2
Fore
SplineSet
147 671 m 1
 155 669.666666667 162.833333333 668.666666667 170.5 668 c 128
 178.166666667 667.333333333 187.666666667 667 199 667 c 0
 207 667 216.166666667 667.5 226.5 668.5 c 128
 236.833333333 669.5 244.666666667 670.333333333 250 671 c 1
 225.333333333 590.333333333 199.833333333 487.166666667 173.5 361.5 c 128
 147.166666667 235.833333333 130 133.333333333 122 54 c 1
 170.666666667 54 216 55 258 57 c 128
 300 59 344.666666667 62.6666666667 392 68 c 1
 383.333333333 52 379 36 379 20 c 1
 381 0 l 1
 148 6 l 1
 102 6 56 4 10 0 c 1
 42 108.666666667 70.1666666667 221.333333333 94.5 338 c 128
 118.833333333 454.666666667 136.333333333 565.666666667 147 671 c 1
EndSplineSet
EndChar
StartChar: M
Encoding: 77 77 46
Width: 841
Flags: W
LayerCount: 2
Fore
SplineSet
154 671 m 1,0,1
 162 671 162 671 181.5 669 c 128,-1,2
 201 667 201 667 202 667 c 0,3,4
 213 667 213 667 227 668.5 c 128,-1,5
 241 670 241 670 249 671 c 1,6,7
 252 653 252 653 257 630.5 c 128,-1,8
 262 608 262 608 267 587 c 2,9,-1
 320 388 l 1,10,-1
 388 135 l 1,11,-1
 565 409 l 1,12,13
 646 540 646 540 728 671 c 1,14,-1
 770 667 l 1,15,16
 782 667 782 667 796.5 668.5 c 128,-1,17
 811 670 811 670 820 671 c 1,18,19
 783 541 783 541 745.5 339.5 c 128,-1,20
 708 138 708 138 695 0 c 1,21,22
 682 0 682 0 662 2.5 c 128,-1,23
 642 5 642 5 639 5 c 0,24,25
 628 5 628 5 608 2.5 c 128,-1,26
 588 0 588 0 582 0 c 1,27,28
 600 63 600 63 616.5 127 c 128,-1,29
 633 191 633 191 647 261 c 2,30,-1
 706 548 l 1,31,-1
 483 194 l 1,32,-1
 427 105 l 2,33,34
 416 88 416 88 401 61 c 128,-1,35
 386 34 386 34 367 0 c 1,36,-1
 334 0 l 1,37,38
 309 91 309 91 284 182 c 128,-1,39
 259 273 259 273 233.5 363.5 c 128,-1,40
 208 454 208 454 183 545 c 1,41,-1
 139 332 l 2,42,43
 123 252 123 252 107 161.5 c 128,-1,44
 91 71 91 71 82 0 c 1,45,-1
 43 4 l 2,46,47
 37 4 37 4 23 2 c 128,-1,48
 9 0 9 0 1 0 c 1,49,50
 49 159 49 159 90.5 337.5 c 128,-1,51
 132 516 132 516 154 671 c 1,0,1
EndSplineSet
EndChar
StartChar: N
Encoding: 78 78 47
Width: 721
Flags: W
LayerCount: 2
Fore
SplineSet
49 182 m 1,0,-1
 91 363 l 1,1,2
 113 450 113 450 127 525 c 128,-1,3
 141 600 141 600 150 680 c 1,4,5
 165 675 165 675 170 675 c 0,6,7
 173 675 173 675 180 677 c 128,-1,8
 187 679 187 679 191 680 c 1,9,10
 249 587 249 587 297.5 514 c 128,-1,11
 346 441 346 441 414.5 341.5 c 128,-1,12
 483 242 483 242 549 150 c 1,13,-1
 608 450 l 2,14,15
 618 498 618 498 628 559.5 c 128,-1,16
 638 621 638 621 644 671 c 1,17,-1
 679 667 l 1,18,19
 690 667 690 667 701.5 668.5 c 128,-1,20
 713 670 713 670 720 671 c 1,21,22
 673 497 673 497 637 331.5 c 128,-1,23
 601 166 601 166 573 -9 c 1,24,25
 571 -8 571 -8 565 -6.5 c 128,-1,26
 559 -5 559 -5 554 -4 c 1,27,28
 542 -6 542 -6 537 -9 c 1,29,30
 462 115 462 115 382 227 c 2,31,-1
 176 517 l 1,32,-1
 129 297 l 2,33,34
 114 224 114 224 100.5 146.5 c 128,-1,35
 87 69 87 69 78 0 c 1,36,37
 70 0 70 0 56.5 2.5 c 128,-1,38
 43 5 43 5 40 5 c 0,39,40
 30 5 30 5 18 2.5 c 128,-1,41
 6 0 6 0 2 0 c 1,42,-1
 49 182 l 1,0,-1
EndSplineSet
EndChar
StartChar: Q
Encoding: 81 81 50
Width: 794
Flags: W
LayerCount: 2
Fore
SplineSet
231 5 m 0,0,1
 136 30 136 30 84.5 107.5 c 128,-1,2
 33 185 33 185 33 287 c 0,3,4
 33 451 33 451 152.5 568.5 c 128,-1,5
 272 686 272 686 436 686 c 0,6,7
 579 686 579 686 672 606.5 c 128,-1,8
 765 527 765 527 765 385 c 0,9,10
 765 281 765 281 712 189 c 128,-1,11
 659 97 659 97 570 43 c 1,12,13
 543 29 543 29 510 17.5 c 128,-1,14
 477 6 477 6 436 -5 c 1,15,16
 503 -22 503 -22 583 -38.5 c 128,-1,17
 663 -55 663 -55 726 -65 c 1,18,-1
 726 -71 l 1,19,20
 716 -85 716 -85 708 -103.5 c 128,-1,21
 700 -122 700 -122 695 -140 c 1,22,23
 553 -84 553 -84 485.5 -59 c 128,-1,24
 418 -34 418 -34 331 -12 c 1,25,26
 284 -8 284 -8 231 5 c 0,0,1
134 298 m 0,27,28
 134 181 134 181 188.5 106.5 c 128,-1,29
 243 32 243 32 356 32 c 0,30,31
 494 32 494 32 579 140 c 128,-1,32
 664 248 664 248 664 389 c 0,33,34
 664 494 664 494 602 567.5 c 128,-1,35
 540 641 540 641 436 641 c 0,36,37
 320 641 320 641 242.5 561 c 128,-1,38
 165 481 165 481 152 412 c 128,-1,39
 139 343 139 343 136.5 325.5 c 128,-1,40
 134 308 134 308 134 298 c 0,27,28
EndSplineSet
EndChar
StartChar: R
Encoding: 82 82 49
Width: 546
Flags: HW
LayerCount: 2
Fore
SplineSet
147 671 m 1
 220 668 l 1
 332 671 l 1
 386 671 433.5 659 474.5 635 c 128
 515.5 611 536 573.666666667 536 523 c 0
 536 461.666666667 513.666666667 416.333333333 469 387 c 128
 424.333333333 357.666666667 367.333333333 338.666666667 298 330 c 1
 368.666666667 210.666666667 439 100.666666667 509 0 c 1
 461 3 l 2
 451 3 440 2.33333333333 428 1 c 128
 410 -1 410 -1 392 -3 c 1
 356.666666667 60.3333333333 318.666666667 125.666666667 278 193 c 2
 197 326 l 1
 173 326 l 1
 152 223 l 2
 150 211 143.5 179.333333333 132.5 128 c 128
 121.5 76.6666666667 116 34 116 0 c 1
 104 1.33333333333 93.6666666667 2.5 85 3.5 c 128
 76.3333333333 4.5 69 5 63 5 c 0
 55.6666666667 5 45.6666666667 4.16666666667 33 2.5 c 128
 20.3333333333 0.833333333333 12.6666666667 0 10 0 c 1
 40.6666666667 104.666666667 66.8333333333 211.666666667 88.5 321 c 128
 110.166666667 430.333333333 129.666666667 547 147 671 c 1
442 516 m 0
 442 555.333333333 428.166666667 584.166666667 400.5 602.5 c 128
 372.833333333 620.833333333 338 630 296 630 c 1
 241 626 l 1
 229.666666667 586.666666667 218.666666667 543.5 208 496.5 c 128
 197.333333333 449.5 188 404.333333333 180 361 c 1
 255.333333333 361 317.833333333 371 367.5 391 c 128
 417.166666667 411 442 452.666666667 442 516 c 0
EndSplineSet
EndChar
StartChar: S
Encoding: 83 83 52
Width: 472
Flags: W
LayerCount: 2
Fore
SplineSet
11 152 m 1,0,-1
 28 152 l 1,1,2
 43 98 43 98 81.5 65.5 c 128,-1,3
 120 33 120 33 176 33 c 0,4,5
 242 33 242 33 288.5 75.5 c 128,-1,6
 335 118 335 118 335 184 c 0,7,8
 335 249 335 249 267 295 c 1,9,10
 204 332 204 332 141 370 c 1,11,12
 72 420 72 420 72 494 c 0,13,14
 72 581 72 581 141 631 c 128,-1,15
 210 681 210 681 301 681 c 0,16,17
 355 681 355 681 398 670 c 128,-1,18
 441 659 441 659 480 631 c 1,19,20
 470 613 470 613 461 590.5 c 128,-1,21
 452 568 452 568 448 548 c 1,22,-1
 435 550 l 1,23,24
 411 594 411 594 376 619.5 c 128,-1,25
 341 645 341 645 294 645 c 0,26,27
 237 645 237 645 198 611 c 128,-1,28
 159 577 159 577 159 520 c 0,29,30
 159 460 159 460 224 418 c 128,-1,31
 289 376 289 376 352 338 c 1,32,33
 420 286 420 286 420 213 c 0,34,35
 420 113 420 113 344 51.5 c 128,-1,36
 268 -10 268 -10 166 -10 c 0,37,38
 115 -10 115 -10 62 7 c 128,-1,39
 9 24 9 24 -25 56 c 1,40,41
 1 100 1 100 11 152 c 1,0,-1
EndSplineSet
EndChar
StartChar: T
Encoding: 84 84 53
Width: 482
Flags: W
LayerCount: 2
Fore
SplineSet
258 617 m 1,0,1
 188 617 188 617 143 615.5 c 128,-1,2
 98 614 98 614 49 608 c 1,3,4
 52 615 52 615 56 638.5 c 128,-1,5
 60 662 60 662 60 671 c 1,6,7
 96 671 96 671 169 667.5 c 128,-1,8
 242 664 242 664 268 664 c 0,9,10
 317 664 317 664 417 667.5 c 128,-1,11
 517 671 517 671 554 671 c 1,12,13
 550 661 550 661 546 650 c 128,-1,14
 542 639 542 639 542 630 c 2,15,-1
 541 620 l 1,16,-1
 542 608 l 1,17,18
 507 613 507 613 454.5 615 c 128,-1,19
 402 617 402 617 356 617 c 1,20,21
 313 452 313 452 281 295 c 128,-1,22
 249 138 249 138 235 0 c 1,23,24
 221 1 221 1 208.5 2.5 c 128,-1,25
 196 4 196 4 180 4 c 0,26,27
 166 4 166 4 150.5 2.5 c 128,-1,28
 135 1 135 1 126 0 c 1,29,30
 164 133 164 133 197 291.5 c 128,-1,31
 230 450 230 450 258 617 c 1,0,1
EndSplineSet
EndChar
StartChar: U
Encoding: 85 85 52
Width: 714
Flags: HW
LayerCount: 2
Fore
SplineSet
192 667 m 2
 199.333333333 667 209.666666667 667.666666667 223 669 c 128
 236.333333333 670.333333333 246 671 252 671 c 1
 230 601 212.333333333 543.5 199 498.5 c 128
 185.666666667 453.5 174.333333333 407 165 359 c 128
 155.666666667 311 151 263.333333333 151 216 c 1
 150 199 l 1
 151 173 l 1
 151 129.666666667 168.333333333 96 203 72 c 128
 237.666666667 48 278 36 324 36 c 0
 362 36 397 43.6666666667 429 59 c 128
 461 74.3333333333 487.833333333 98.8333333333 509.5 132.5 c 128
 531.166666667 166.166666667 550.333333333 215 567 279 c 128
 583.666666667 343 597.166666667 410.333333333 607.5 481 c 128
 617.833333333 551.666666667 625.333333333 615 630 671 c 1
 645 669 645 669 652.5 668 c 128
 657.5 667.333333333 664 667 672 667 c 0
 678.666666667 667 686.166666667 667.5 694.5 668.5 c 128
 702.833333333 669.5 709.333333333 670.333333333 714 671 c 1
 688.666666667 571 666.333333333 474.166666667 647 380.5 c 128
 627.666666667 286.833333333 608.833333333 215.166666667 590.5 165.5 c 128
 572.166666667 115.833333333 540.833333333 74 496.5 40 c 128
 452.166666667 6 389 -11 307 -11 c 0
 237.666666667 -11 178.166666667 3.83333333333 128.5 33.5 c 128
 78.8333333333 63.1666666667 54 111 54 177 c 0
 54 194.333333333 55 208.666666667 57 220 c 128
 59 231.333333333 65.8333333333 263.333333333 77.5 316 c 128
 89.1666666667 368.666666667 101.333333333 427.666666667 114 493 c 128
 126.666666667 558.333333333 136.333333333 617.666666667 143 671 c 1
 192 667 l 2
EndSplineSet
EndChar
StartChar: V
Encoding: 86 86 55
Width: 533
Flags: W
LayerCount: 2
Fore
SplineSet
35 671 m 1,0,1
 43 671 43 671 66 669 c 128,-1,2
 89 667 89 667 91 667 c 0,3,4
 100 667 100 667 121.5 669 c 128,-1,5
 143 671 143 671 144 671 c 0,6,7
 152 598 152 598 162 530.5 c 128,-1,8
 172 463 172 463 188 363 c 1,9,-1
 232 116 l 1,10,-1
 375 384 l 2,11,12
 417 462 417 462 449.5 529.5 c 128,-1,13
 482 597 482 597 511 671 c 1,14,-1
 552 667 l 1,15,16
 564 667 564 667 579 668.5 c 128,-1,17
 594 670 594 670 602 671 c 1,18,-1
 500 498 l 1,19,-1
 394 312 l 1,20,21
 344 221 344 221 309 154.5 c 128,-1,22
 274 88 274 88 231 0 c 1,23,-1
 206 4 l 1,24,25
 193 4 193 4 180 4 c 1,26,27
 170 1 170 1 163 0 c 1,28,29
 153 110 153 110 135 214.5 c 128,-1,30
 117 319 117 319 95.5 414.5 c 128,-1,31
 74 510 74 510 35 671 c 1,0,1
EndSplineSet
EndChar
StartChar: W
Encoding: 87 87 54
Width: 849
Flags: HW
LayerCount: 2
Fore
SplineSet
51 671 m 1
 100 667 l 2
 106 667 115 667.666666667 127 669 c 128
 139 670.333333333 148 671 154 671 c 1
 154 626.333333333 155.5 584.166666667 158.5 544.5 c 128
 161.5 504.833333333 166.333333333 457.666666667 173 403 c 2
 203 144 l 1
 249.666666667 236.666666667 293.5 326 334.5 412 c 128
 375.5 498 414.666666667 584.333333333 452 671 c 1
 489 667 l 2
 493.666666667 667 500.666666667 667.666666667 510 669 c 128
 519.333333333 670.333333333 527 671 533 671 c 1
 533 615 535.666666667 558.5 541 501.5 c 128
 546.333333333 444.5 553.666666667 383.833333333 563 319.5 c 128
 572.333333333 255.166666667 581.666666667 193.333333333 591 134 c 1
 706 382 l 1
 749.333333333 472.666666667 788 569 822 671 c 1
 860 667 l 1
 868.666666667 667 878.166666667 667.5 888.5 668.5 c 128
 898.833333333 669.5 907 670.333333333 913 671 c 1
 863 589 l 1
 799 456 l 1
 700 255 l 2
 680.666666667 216.333333333 661.833333333 177 643.5 137 c 128
 625.166666667 97 604.666666667 51.3333333333 582 0 c 1
 552 4 l 1
 542.666666667 4 535.333333333 3.33333333333 530 2 c 128
 524.666666667 0.666666666667 520.666666667 0 518 0 c 1
 509.333333333 90.6666666667 499.833333333 179 489.5 265 c 128
 479.166666667 351 467 443 453 541 c 1
 401 440.333333333 353.5 345.333333333 310.5 256 c 128
 267.5 166.666666667 230.333333333 81.3333333333 199 0 c 1
 189 1.33333333333 179 3 169 5 c 1
 165 5 160.166666667 4.5 154.5 3.5 c 128
 148.833333333 2.5 142.666666667 1.33333333333 136 0 c 1
 113.333333333 230.666666667 85 454.333333333 51 671 c 1
EndSplineSet
EndChar
StartChar: X
Encoding: 88 88 57
Width: 503
Flags: W
LayerCount: 2
Fore
SplineSet
111 207 m 2,0,-1
 217 335 l 1,1,-1
 132 513 l 1,2,-1
 90 602 l 1,3,-1
 51 671 l 1,4,-1
 107 667 l 1,5,6
 131 667 131 667 144.5 669 c 128,-1,7
 158 671 158 671 165 671 c 1,8,9
 177 635 177 635 194 593.5 c 128,-1,10
 211 552 211 552 223 525 c 2,11,-1
 275 405 l 1,12,-1
 356 517 l 1,13,14
 412 591 412 591 462 671 c 1,15,-1
 507 667 l 1,16,17
 531 667 531 667 544.5 669 c 128,-1,18
 558 671 558 671 565 671 c 1,19,20
 522 630 522 630 486 590.5 c 128,-1,21
 450 551 450 551 403 497 c 1,22,-1
 294 365 l 1,23,-1
 394 145 l 2,24,25
 427 71 427 71 465 0 c 1,26,-1
 422 4 l 1,27,-1
 349 0 l 1,28,29
 337 40 337 40 327.5 66.5 c 128,-1,30
 318 93 318 93 300 135 c 2,31,-1
 236 290 l 1,32,-1
 128 142 l 2,33,34
 106 113 106 113 86 83 c 128,-1,35
 66 53 66 53 32 0 c 1,36,-1
 -10 4 l 1,37,38
 -25 4 -25 4 -33 3.5 c 128,-1,39
 -41 3 -41 3 -69 0 c 1,40,41
 -16 57 -16 57 11 88.5 c 128,-1,42
 38 120 38 120 111 207 c 2,0,-1
EndSplineSet
EndChar
StartChar: Y
Encoding: 89 89 56
Width: 480
Flags: HW
LayerCount: 2
Fore
SplineSet
184 274 m 1
 156.666666667 344 137.5 392.833333333 126.5 420.5 c 128
 115.5 448.166666667 100 485.833333333 80 533.5 c 128
 60 581.166666667 40.6666666667 627 22 671 c 1
 38 669 48.1666666667 667.833333333 52.5 667.5 c 128
 56.8333333333 667.166666667 65 667 77 667 c 0
 83 667 93.5 667.666666667 108.5 669 c 128
 123.5 670.333333333 131.666666667 671 133 671 c 1
 146.333333333 622.333333333 157.666666667 584.166666667 167 556.5 c 128
 176.333333333 528.833333333 205.666666667 451.333333333 255 324 c 1
 361 486 l 2
 377.666666667 512.666666667 395.833333333 542.666666667 415.5 576 c 128
 435.166666667 609.333333333 452.333333333 641 467 671 c 1
 509 667 l 1
 523 667 533.833333333 667.666666667 541.5 669 c 128
 549.166666667 670.333333333 555.333333333 671 560 671 c 1
 483 572 l 1
 416 478 l 1
 275 279 l 1
 253 170 l 1
 242.333333333 113.333333333 234.333333333 56.6666666667 229 0 c 1
 220.333333333 0.666666666667 210.5 1.66666666667 199.5 3 c 128
 188.5 4.33333333333 180 5 174 5 c 0
 162 5 152.166666667 4.5 144.5 3.5 c 128
 136.833333333 2.5 128.333333333 1.33333333333 119 0 c 1
 133 43.3333333333 145.5 91.1666666667 156.5 143.5 c 128
 167.5 195.833333333 176.666666667 239.333333333 184 274 c 1
EndSplineSet
EndChar
StartChar: Z
Encoding: 90 90 59
Width: 565
Flags: W
LayerCount: 2
Fore
SplineSet
-19 17 m 1,0,1
 114 181 114 181 224.5 323 c 128,-1,2
 335 465 335 465 449 623 c 1,3,-1
 327 621 l 2,4,5
 273 621 273 621 222 616.5 c 128,-1,6
 171 612 171 612 101 604 c 1,7,8
 107 621 107 621 109.5 633 c 128,-1,9
 112 645 112 645 115 671 c 1,10,11
 148 671 148 671 227 669 c 128,-1,12
 306 667 306 667 312 667 c 2,13,-1
 389 668 l 1,14,-1
 587 671 l 1,15,-1
 587 659 l 1,16,17
 501 550 501 550 438.5 469 c 128,-1,18
 376 388 376 388 296.5 284 c 128,-1,19
 217 180 217 180 121 52 c 1,20,-1
 238 54 l 1,21,22
 305 54 305 54 360.5 58 c 128,-1,23
 416 62 416 62 537 73 c 1,24,25
 530 61 530 61 524.5 40.5 c 128,-1,26
 519 20 519 20 517 0 c 1,27,28
 461 0 461 0 350 3 c 128,-1,29
 239 6 239 6 183 6 c 0,30,31
 132 6 132 6 85.5 5.5 c 128,-1,32
 39 5 39 5 -19 0 c 1,33,-1
 -19 17 l 1,0,1
EndSplineSet
EndChar
StartChar: bracketleft
Encoding: 91 91 58
Width: 268
Flags: HW
LayerCount: 2
Fore
SplineSet
108 -64 m 1
 143 -62 l 1
 134 -98 l 1
 65 -97 l 1
 -5 -98 l 1
 49.6666666667 152.666666667 102 411.333333333 152 678 c 1
 218 676 l 1
 284 678 l 1
 277 639 l 1
 236 642 l 1
 213 641 l 1
 197 565.666666667 182.833333333 498.5 170.5 439.5 c 128
 158.166666667 380.5 141.833333333 299.5 121.5 196.5 c 128
 101.166666667 93.5 84.3333333333 7.33333333333 71 -62 c 1
 108 -64 l 1
EndSplineSet
EndChar
StartChar: backslash
Encoding: 92 92 59
Width: 276
Flags: HW
LayerCount: 2
Fore
SplineSet
173 -91 m 1
 40 738 l 1
 92 738 l 1
 224 -91 l 1
 173 -91 l 1
EndSplineSet
EndChar
StartChar: bracketright
Encoding: 93 93 60
Width: 268
Flags: HW
LayerCount: 2
Fore
SplineSet
144 644 m 1
 109 642 l 1
 115 679 l 1
 186 678 l 1
 256 679 l 1
 244.666666667 627 229.666666667 555.666666667 211 465 c 128
 192.333333333 374.333333333 172 273.666666667 150 163 c 128
 128 52.3333333333 111 -34.6666666667 99 -98 c 1
 33 -97 l 1
 -33 -98 l 1
 -27 -60 l 1
 13 -63 l 1
 36 -62 l 1
 46.6666666667 -13.3333333333 60 49.6666666667 76 127 c 128
 92 204.333333333 110.833333333 298.333333333 132.5 409 c 128
 154.166666667 519.666666667 169.333333333 597.333333333 178 642 c 1
 144 644 l 1
EndSplineSet
EndChar
StartChar: asciicircum
Encoding: 94 94 61
Width: 241
Flags: HW
LayerCount: 2
Fore
SplineSet
254 536 m 1
 175 639 l 1
 54 536 l 1
 6 536 l 1
 155 704 l 1
 210 704 l 1
 290 536 l 1
 254 536 l 1
EndSplineSet
EndChar
StartChar: underscore
Encoding: 95 95 62
Width: 492
Flags: HW
LayerCount: 2
Fore
SplineSet
492 -233 m 1
 0 -233 l 1
 0 -184 l 1
 492 -184 l 1
 492 -233 l 1
EndSplineSet
EndChar
StartChar: grave
Encoding: 96 96 65
Width: 270
Flags: W
LayerCount: 2
Fore
SplineSet
180 444 m 1,0,1
 174 422 174 422 158.5 406.5 c 128,-1,2
 143 391 143 391 121 391 c 0,3,4
 103 391 103 391 92 396.5 c 128,-1,5
 81 402 81 402 81 423 c 0,6,7
 81 436 81 436 86.5 448 c 128,-1,8
 92 460 92 460 104 477 c 2,9,-1
 264 682 l 1,10,-1
 284 673 l 1,11,-1
 180 444 l 1,0,1
EndSplineSet
EndChar
StartChar: a
Encoding: 97 97 66
Width: 461
Flags: W
LayerCount: 2
Fore
SplineSet
117 -10 m 0,0,1
 64 -10 64 -10 27.5 21 c 128,-1,2
 -9 52 -9 52 -9 105 c 0,3,4
 -9 195 -9 195 69 228 c 1,5,6
 144 247 144 247 223.5 268.5 c 128,-1,7
 303 290 303 290 312 355 c 1,8,9
 312 396 312 396 289.5 420.5 c 128,-1,10
 267 445 267 445 226 445 c 0,11,12
 140 445 140 445 97 368 c 1,13,-1
 81 372 l 1,14,15
 84 384 84 384 86 394.5 c 128,-1,16
 88 405 88 405 88 418 c 2,17,-1
 87 443 l 1,18,19
 130 464 130 464 160 474 c 128,-1,20
 190 484 190 484 226 484 c 0,21,22
 291 484 291 484 340 456 c 128,-1,23
 389 428 389 428 389 367 c 0,24,25
 389 348 389 348 385 320 c 128,-1,26
 381 292 381 292 376 271 c 2,27,-1
 344 103 l 2,28,29
 341 85 341 85 338 67 c 1,30,31
 338 58 338 58 347 47 c 128,-1,32
 356 36 356 36 365 35 c 0,33,34
 372 35 372 35 380.5 37 c 128,-1,35
 389 39 389 39 399 42 c 1,36,-1
 413 17 l 1,37,38
 372 -8 372 -8 327 -8 c 0,39,40
 295 -8 295 -8 279.5 11 c 128,-1,41
 264 30 264 30 257 64 c 1,42,43
 224 27 224 27 192 8.5 c 128,-1,44
 160 -10 160 -10 117 -10 c 0,0,1
73 116 m 0,45,46
 73 83 73 83 94 62 c 128,-1,47
 115 41 115 41 148 41 c 0,48,49
 187 41 187 41 224.5 71 c 128,-1,50
 262 101 262 101 270 140 c 2,51,-1
 291 250 l 1,52,53
 178 226 178 226 125.5 204.5 c 128,-1,54
 73 183 73 183 73 116 c 0,45,46
EndSplineSet
EndChar
StartChar: b
Encoding: 98 98 65
Width: 551
Flags: HW
LayerCount: 2
Fore
SplineSet
124 633 m 2
 143 738 l 1
 150.333333333 736.666666667 158.5 735.166666667 167.5 733.5 c 128
 176.5 731.833333333 184.333333333 731 191 731 c 0
 199 731 207.666666667 732 217 734 c 128
 226.333333333 736 233.666666667 737.333333333 239 738 c 1
 223 684.666666667 206.333333333 618.666666667 189 540 c 128
 171.666666667 461.333333333 161.666666667 415.333333333 159 402 c 1
 181 428 206 447.833333333 234 461.5 c 128
 262 475.166666667 292.666666667 482 326 482 c 0
 379.333333333 482 421 462.833333333 451 424.5 c 128
 481 386.166666667 496 339 496 283 c 0
 496 204.333333333 472.166666667 135.666666667 424.5 77 c 128
 376.833333333 18.3333333333 314.666666667 -11 238 -11 c 0
 207.333333333 -11 179.333333333 -5.5 154 5.5 c 128
 128.666666667 16.5 104 33 80 55 c 1
 60.6666666667 41 42.3333333333 22.6666666667 25 0 c 1
 -8 0 l 1
 8.66666666667 62 24.8333333333 129.5 40.5 202.5 c 128
 56.1666666667 275.5 70 343.166666667 82 405.5 c 128
 94 467.833333333 108 543.666666667 124 633 c 2
404 295 m 0
 404 333 395.333333333 365.333333333 378 392 c 128
 360.666666667 418.666666667 333.666666667 432 297 432 c 0
 235.666666667 432 190.166666667 403.833333333 160.5 347.5 c 128
 130.833333333 291.166666667 116 229 116 161 c 0
 116 125 125.833333333 94.3333333333 145.5 69 c 128
 165.166666667 43.6666666667 193 31 229 31 c 0
 273 31 309 49.3333333333 337 86 c 128
 365 122.666666667 382.333333333 158.166666667 389 192.5 c 128
 395.666666667 226.833333333 399.833333333 249.166666667 401.5 259.5 c 128
 403.166666667 269.833333333 404 281.666666667 404 295 c 0
EndSplineSet
EndChar
StartChar: c
Encoding: 99 99 68
Width: 451
Flags: W
LayerCount: 2
Fore
SplineSet
221 -11 m 0,0,1
 130 -11 130 -11 69.5 47.5 c 128,-1,2
 9 106 9 106 9 197 c 0,3,4
 9 313 9 313 86.5 397.5 c 128,-1,5
 164 482 164 482 278 482 c 0,6,7
 319 482 319 482 359 472 c 128,-1,8
 399 462 399 462 442 443 c 1,9,10
 432 421 432 421 425.5 401.5 c 128,-1,11
 419 382 419 382 415 360 c 1,12,-1
 399 360 l 1,13,14
 380 399 380 399 351 421.5 c 128,-1,15
 322 444 322 444 282 444 c 0,16,17
 195 444 195 444 148 363 c 128,-1,18
 101 282 101 282 101 188 c 0,19,20
 101 126 101 126 134 80 c 128,-1,21
 167 34 167 34 227 34 c 0,22,23
 270 34 270 34 311.5 51 c 128,-1,24
 353 68 353 68 375 101 c 1,25,-1
 391 90 l 1,26,27
 382 71 382 71 376.5 58.5 c 128,-1,28
 371 46 371 46 366 27 c 1,29,30
 298 -11 298 -11 221 -11 c 0,0,1
EndSplineSet
EndChar
StartChar: d
Encoding: 100 100 67
Width: 551
Flags: HW
LayerCount: 2
Fore
SplineSet
184 -10 m 0
 130.666666667 -10 88.6666666667 9.16666666667 58 47.5 c 128
 27.3333333333 85.8333333333 12 132.333333333 12 187 c 0
 12 263.666666667 36 332 84 392 c 128
 132 452 193.666666667 482 269 482 c 0
 299.666666667 482 328.5 472.333333333 355.5 453 c 128
 382.5 433.666666667 401.666666667 409.333333333 413 380 c 1
 436 489 l 2
 441.333333333 515 448.666666667 554 458 606 c 128
 467.333333333 658 474.666666667 702 480 738 c 1
 491.333333333 736 501.166666667 734.333333333 509.5 733 c 128
 517.833333333 731.666666667 524.333333333 731 529 731 c 0
 537 731 545.833333333 732 555.5 734 c 128
 565.166666667 736 572.666666667 737.333333333 578 738 c 1
 542.666666667 622 512.5 502.833333333 487.5 380.5 c 128
 462.5 258.166666667 441 131.333333333 423 0 c 1
 381 2 l 1
 335 0 l 1
 355 68 l 1
 325.666666667 42 298.166666667 22.5 272.5 9.5 c 128
 246.833333333 -3.5 217.333333333 -10 184 -10 c 0
104 173 m 0
 104 135 112.333333333 102.833333333 129 76.5 c 128
 145.666666667 50.1666666667 172.666666667 37 210 37 c 0
 262.666666667 37 303.333333333 58.3333333333 332 101 c 128
 360.666666667 143.666666667 377.166666667 180.833333333 381.5 212.5 c 128
 385.833333333 244.166666667 388.333333333 264.166666667 389 272.5 c 128
 389.666666667 280.833333333 390 287.333333333 390 292 c 0
 390 308.666666667 389.833333333 319.166666667 389.5 323.5 c 128
 389.166666667 327.833333333 388.333333333 331.333333333 387 334 c 1
 382.333333333 362 370 384.333333333 350 401 c 128
 330 417.666666667 305.666666667 426 277 426 c 0
 233 426 197 408 169 372 c 128
 141 336 124 303 118 273 c 128
 112 243 108.166666667 220.333333333 106.5 205 c 128
 104.833333333 189.666666667 104 179 104 173 c 0
EndSplineSet
EndChar
StartChar: e
Encoding: 101 101 68
Width: 478
Flags: HW
LayerCount: 2
Fore
SplineSet
103 170 m 0
 103 130 114.833333333 97.1666666667 138.5 71.5 c 128
 162.166666667 45.8333333333 193.666666667 33 233 33 c 0
 259 33 285.666666667 40.1666666667 313 54.5 c 128
 340.333333333 68.8333333333 365.333333333 87.3333333333 388 110 c 1
 399 99 l 1
 389.666666667 78.3333333333 382 57 376 35 c 1
 353.333333333 20.3333333333 328.166666667 8.66666666667 300.5 0 c 128
 272.833333333 -8.66666666667 245 -13 217 -13 c 0
 155 -13 104.666666667 6 66 44 c 128
 27.3333333333 82 8 132.333333333 8 195 c 0
 8 271.666666667 33.3333333333 338.666666667 84 396 c 128
 134.666666667 453.333333333 197.666666667 482 273 482 c 0
 322.333333333 482 363 464 395 428 c 128
 427 392 443 349 443 299 c 0
 443 292.333333333 442.333333333 281 441 265 c 128
 439.666666667 249 439 240.666666667 439 240 c 2
 274 242 l 1
 108 240 l 1
 106 230 104.666666667 219.166666667 104 207.5 c 128
 103.333333333 195.833333333 103 183.333333333 103 170 c 0
234 279 m 1
 353 280 l 1
 356 327 l 1
 356 358.333333333 348.166666667 385.833333333 332.5 409.5 c 128
 316.833333333 433.166666667 293.666666667 445 263 445 c 0
 223.666666667 445 191.666666667 428.5 167 395.5 c 128
 142.333333333 362.5 125.333333333 324 116 280 c 1
 234 279 l 1
EndSplineSet
EndChar
StartChar: f
Encoding: 102 102 69
Width: 275
Flags: HW
LayerCount: 2
Fore
SplineSet
103 430 m 1
 72 430 72 430 42 430 c 1
 25.3333333333 428 13 426.666666667 5 426 c 1
 9.66666666667 437.333333333 12.8333333333 445.333333333 14.5 450 c 128
 16.1666666667 454.666666667 18 462 20 472 c 1
 35.3333333333 470 50.5 468.333333333 65.5 467 c 128
 80.5 465.666666667 95.3333333333 465 110 465 c 1
 121.333333333 533.666666667 144.333333333 596.333333333 179 653 c 128
 213.666666667 709.666666667 260 738 318 738 c 0
 334 738 343.666666667 737.5 347 736.5 c 128
 350.333333333 735.5 358 731 370 723 c 1
 366.666666667 711.666666667 364 702.166666667 362 694.5 c 128
 360 686.833333333 355.666666667 667.333333333 349 636 c 1
 342 633 l 1
 335.333333333 641 327.166666667 648.666666667 317.5 656 c 128
 307.833333333 663.333333333 294.666666667 668.333333333 278 671 c 1
 236.666666667 671 211.166666667 651.5 201.5 612.5 c 128
 191.833333333 573.5 187 524.333333333 187 465 c 1
 301 473 l 1
 299 467 297.666666667 459.666666667 297 451 c 128
 296.333333333 442.333333333 296 434 296 426 c 1
 282.666666667 426 260.833333333 426.666666667 230.5 428 c 128
 200.166666667 429.333333333 184 430 182 430 c 1
 149 246 l 2
 141.666666667 205.333333333 134.333333333 162.333333333 127 117 c 128
 119.666666667 71.6666666667 116 32.6666666667 116 0 c 1
 66 3 l 1
 19 0 l 1
 34.3333333333 67.3333333333 49.5 139.333333333 64.5 216 c 128
 79.5 292.666666667 92.3333333333 364 103 430 c 1
EndSplineSet
EndChar
StartChar: g
Encoding: 103 103 70
Width: 459
Flags: HW
LayerCount: 2
Fore
SplineSet
33 310 m 0
 33 362.666666667 53.6666666667 404.666666667 95 436 c 128
 136.333333333 467.333333333 184.333333333 483 239 483 c 0
 253 483 275.5 479.166666667 306.5 471.5 c 128
 337.5 463.833333333 358.333333333 460 369 460 c 0
 385 460 405.5 460.833333333 430.5 462.5 c 128
 455.5 464.166666667 470.333333333 465 475 465 c 1
 472.333333333 459.666666667 469.5 452.166666667 466.5 442.5 c 128
 463.5 432.833333333 461.333333333 425.333333333 460 420 c 1
 444.666666667 421.333333333 431.166666667 422.333333333 419.5 423 c 128
 407.833333333 423.666666667 393.666666667 424 377 424 c 1
 389.666666667 408 399.166666667 393.333333333 405.5 380 c 128
 411.833333333 366.666666667 415 351.666666667 415 335 c 0
 415 281.666666667 394.166666667 240.5 352.5 211.5 c 128
 310.833333333 182.5 262 168 206 168 c 0
 196.666666667 168 182 169.833333333 162 173.5 c 128
 142 177.166666667 129 179 123 179 c 0
 111 179 99.6666666667 173 89 161 c 128
 78.3333333333 149 73 136.666666667 73 124 c 0
 73 98 108.5 80.5 179.5 71.5 c 128
 250.5 62.5 303.333333333 52 338 40 c 128
 372.666666667 28 390 -5 390 -59 c 0
 390 -121 362.666666667 -171.166666667 308 -209.5 c 128
 253.333333333 -247.833333333 193.333333333 -267 128 -267 c 0
 78 -267 33.1666666667 -254.333333333 -6.5 -229 c 128
 -46.1666666667 -203.666666667 -66 -167 -66 -119 c 0
 -66 -85.6666666667 -54 -56.6666666667 -30 -32 c 128
 -6 -7.33333333333 23.6666666667 11.6666666667 59 25 c 1
 39.6666666667 31 25 40 15 52 c 128
 5 64 0 80 0 100 c 1
 4.66666666667 123.333333333 15.3333333333 142.333333333 32 157 c 128
 48.6666666667 171.666666667 70.6666666667 185 98 197 c 1
 76.6666666667 213 60.5 229.833333333 49.5 247.5 c 128
 38.5 265.166666667 33 286 33 310 c 0
330 348 m 0
 330 377.333333333 321.833333333 401.5 305.5 420.5 c 128
 289.166666667 439.5 266.333333333 449 237 449 c 0
 201.666666667 449 173.166666667 434 151.5 404 c 128
 129.833333333 374 119 340.666666667 119 304 c 0
 119 276.666666667 126.333333333 253.5 141 234.5 c 128
 155.666666667 215.5 176.666666667 206 204 206 c 0
 242 206 272.5 219.833333333 295.5 247.5 c 128
 318.5 275.166666667 330 308.666666667 330 348 c 0
1 -116 m 0
 1 -151.333333333 14.5 -178.666666667 41.5 -198 c 128
 68.5 -217.333333333 100 -227 136 -227 c 0
 181.333333333 -227 221.5 -214.333333333 256.5 -189 c 128
 291.5 -163.666666667 309 -129.333333333 309 -86 c 0
 309 -32 269.666666667 -1 191 7 c 1
 140.333333333 9.66666666667 106 11.6666666667 88 13 c 1
 61.3333333333 -4.33333333333 40.1666666667 -23.1666666667 24.5 -43.5 c 128
 8.83333333333 -63.8333333333 1 -88 1 -116 c 0
EndSplineSet
EndChar
StartChar: h
Encoding: 104 104 71
Width: 551
Flags: HW
LayerCount: 2
Fore
SplineSet
139 738 m 1
 148.333333333 736 155.333333333 734.666666667 160 734 c 128
 164.666666667 733.333333333 172 733 182 733 c 0
 188 733 193.833333333 733.166666667 199.5 733.5 c 128
 205.166666667 733.833333333 216.333333333 735.333333333 233 738 c 1
 225.666666667 711.333333333 216.333333333 669.5 205 612.5 c 128
 193.666666667 555.5 187.333333333 524 186 518 c 2
 161 385 l 1
 183 415.666666667 210 439.5 242 456.5 c 128
 274 473.5 308.333333333 482 345 482 c 0
 382.333333333 482 414.333333333 471 441 449 c 128
 467.666666667 427 481 398 481 362 c 0
 481 317.333333333 472 250.333333333 454 161 c 128
 436 71.6666666667 425.666666667 18 423 0 c 1
 399 3 399 3 375 6 c 1
 368.333333333 6 360.666666667 5.33333333333 352 4 c 128
 343.333333333 2.66666666667 335 1.33333333333 327 0 c 1
 347 63.3333333333 362.833333333 122.833333333 374.5 178.5 c 128
 386.166666667 234.166666667 392 287.333333333 392 338 c 0
 392 363.333333333 384.5 384.166666667 369.5 400.5 c 128
 354.5 416.833333333 334.333333333 425 309 425 c 1
 297 424 l 1
 239.666666667 415.333333333 197.666666667 388.333333333 171 343 c 128
 144.333333333 297.666666667 127 243.166666667 119 179.5 c 128
 111 115.833333333 104 56 98 0 c 1
 92.6666666667 0 84.1666666667 0.833333333333 72.5 2.5 c 128
 60.8333333333 4.16666666667 53.6666666667 5 51 5 c 0
 43.6666666667 5 34.1666666667 4.16666666667 22.5 2.5 c 128
 10.8333333333 0.833333333333 4.33333333333 0 3 0 c 1
 35 108.666666667 65.6666666667 237.5 95 386.5 c 128
 124.333333333 535.5 139 652.666666667 139 738 c 1
EndSplineSet
EndChar
StartChar: i
Encoding: 105 105 72
Width: 241
Flags: HW
LayerCount: 2
Fore
SplineSet
93 472 m 1
 111 468 128.333333333 466 145 466 c 0
 163 466 180 468 196 472 c 1
 170 385.333333333 149.333333333 302.833333333 134 224.5 c 128
 118.666666667 146.166666667 111 71.3333333333 111 0 c 1
 103.666666667 0.666666666667 94.8333333333 1.66666666667 84.5 3 c 128
 74.1666666667 4.33333333333 66 5 60 5 c 0
 48 5 37.5 4.33333333333 28.5 3 c 128
 19.5 1.66666666667 12 0.666666666667 6 0 c 1
 31.3333333333 86.6666666667 52.1666666667 170.333333333 68.5 251 c 128
 84.8333333333 331.666666667 93 405.333333333 93 472 c 1
169 693 m 0
 181.666666667 693 192.666666667 688.333333333 202 679 c 128
 211.333333333 669.666666667 216 658 216 644 c 0
 216 630.666666667 211.5 619.166666667 202.5 609.5 c 128
 193.5 599.833333333 182.333333333 595 169 595 c 0
 155 595 143.333333333 599.666666667 134 609 c 128
 124.666666667 618.333333333 120 629.666666667 120 643 c 256
 120 656.333333333 124.666666667 668 134 678 c 128
 143.333333333 688 155 693 169 693 c 0
EndSplineSet
EndChar
StartChar: j
Encoding: 106 106 75
Width: 243
Flags: W
LayerCount: 2
Fore
SplineSet
168 693 m 0,0,1
 187 693 187 693 200.5 679.5 c 128,-1,2
 214 666 214 666 214 646 c 0,3,4
 214 625 214 625 200 610 c 128,-1,5
 186 595 186 595 165 595 c 0,6,7
 145 595 145 595 131 609 c 128,-1,8
 117 623 117 623 117 643 c 256,9,10
 117 663 117 663 132 678 c 128,-1,11
 147 693 147 693 168 693 c 0,0,1
-101 -242 m 1,12,13
 -46 -237 -46 -237 -22.5 -196.5 c 128,-1,14
 1 -156 1 -156 13 -89 c 2,15,-1
 44 77 l 1,16,17
 60 175 60 175 77.5 282 c 128,-1,18
 95 389 95 389 95 472 c 1,19,20
 121 466 121 466 146 466 c 256,21,22
 171 466 171 466 192 472 c 1,23,24
 172 379 172 379 156 285 c 128,-1,25
 140 191 140 191 123 78.5 c 128,-1,26
 106 -34 106 -34 89.5 -98.5 c 128,-1,27
 73 -163 73 -163 29 -217 c 128,-1,28
 -15 -271 -15 -271 -95 -271 c 1,29,-1
 -101 -242 l 1,12,13
EndSplineSet
EndChar
StartChar: k
Encoding: 107 107 74
Width: 477
Flags: HW
LayerCount: 2
Fore
SplineSet
136 738 m 1
 143.333333333 736.666666667 150.166666667 735.5 156.5 734.5 c 128
 162.833333333 733.5 171.333333333 733 182 733 c 0
 188 733 193.833333333 733.166666667 199.5 733.5 c 128
 205.166666667 733.833333333 216.333333333 735.333333333 233 738 c 1
 214 668 l 1
 186 518 l 1
 142 278 l 1
 159 276 l 1
 199 298 235.833333333 324.333333333 269.5 355 c 128
 303.166666667 385.666666667 341.666666667 424.666666667 385 472 c 1
 403.666666667 468.666666667 421 467 437 467 c 0
 449.666666667 467 465 468.666666667 483 472 c 1
 485 461 l 1
 469.666666667 451.666666667 447.666666667 437 419 417 c 128
 390.333333333 397 362.666666667 377.333333333 336 358 c 2
 229 279 l 1
 293 187 362.666666667 94 438 0 c 1
 431.333333333 0 421 0.833333333333 407 2.5 c 128
 393 4.16666666667 384.333333333 5 381 5 c 0
 368.333333333 5 357.166666667 4.33333333333 347.5 3 c 128
 337.833333333 1.66666666667 330 0.666666666667 324 0 c 1
 292 50 263.666666667 92.6666666667 239 128 c 128
 214.333333333 163.333333333 186 201.666666667 154 243 c 1
 134 242 l 1
 128 206.666666667 121.833333333 167.5 115.5 124.5 c 128
 109.166666667 81.5 103.333333333 40 98 0 c 1
 92.6666666667 0 84.1666666667 0.833333333333 72.5 2.5 c 128
 60.8333333333 4.16666666667 53.6666666667 5 51 5 c 0
 43.6666666667 5 34.1666666667 4.16666666667 22.5 2.5 c 128
 10.8333333333 0.833333333333 4.33333333333 0 3 0 c 1
 69.6666666667 243.333333333 114 489.333333333 136 738 c 1
EndSplineSet
EndChar
StartChar: l
Encoding: 108 108 75
Width: 243
Flags: HW
LayerCount: 2
Fore
SplineSet
144 738 m 1
 154.666666667 736 162.333333333 734.666666667 167 734 c 128
 171.666666667 733.333333333 179.333333333 733 190 733 c 0
 205.333333333 733 223 734.666666667 243 738 c 1
 214.333333333 625.333333333 187.5 503.333333333 162.5 372 c 128
 137.5 240.666666667 118 116.666666667 104 0 c 1
 96 0.666666666667 87.3333333333 1.66666666667 78 3 c 128
 68.6666666667 4.33333333333 61 5 55 5 c 0
 44.3333333333 5 35.5 4.5 28.5 3.5 c 128
 21.5 2.5 14 1.33333333333 6 0 c 1
 37.3333333333 112.666666667 65.3333333333 234.333333333 90 365 c 128
 114.666666667 495.666666667 132.666666667 620 144 738 c 1
EndSplineSet
EndChar
StartChar: m
Encoding: 109 109 78
Width: 862
Flags: W
LayerCount: 2
Fore
SplineSet
384 338 m 0,0,1
 384 377 384 377 362.5 400.5 c 128,-1,2
 341 424 341 424 303 424 c 0,3,4
 216 424 216 424 174 354 c 128,-1,5
 132 284 132 284 119 184 c 128,-1,6
 106 84 106 84 97 0 c 1,7,8
 87 0 87 0 70.5 2.5 c 128,-1,9
 54 5 54 5 51 5 c 0,10,11
 40 5 40 5 22.5 2.5 c 128,-1,12
 5 0 5 0 3 0 c 1,13,14
 39 116 39 116 64.5 245 c 128,-1,15
 90 374 90 374 90 472 c 1,16,-1
 132 466 l 1,17,18
 157 466 157 466 181 472 c 1,19,20
 163 420 163 420 155 377 c 1,21,22
 193 428 193 428 239 455 c 128,-1,23
 285 482 285 482 342 482 c 0,24,25
 452 482 452 482 467 377 c 1,26,27
 505 425 505 425 554 453.5 c 128,-1,28
 603 482 603 482 659 482 c 0,29,30
 714 482 714 482 753 449 c 128,-1,31
 792 416 792 416 792 361 c 0,32,33
 792 350 792 350 790 331 c 128,-1,34
 788 312 788 312 786 303 c 2,35,-1
 749 100 l 1,36,-1
 734 0 l 1,37,38
 711 3 711 3 689 6 c 1,39,40
 681 6 681 6 665 3 c 128,-1,41
 649 0 649 0 640 0 c 1,42,43
 666 86 666 86 684 176 c 128,-1,44
 702 266 702 266 702 338 c 0,45,46
 702 379 702 379 683.5 401.5 c 128,-1,47
 665 424 665 424 621 424 c 0,48,49
 535 424 535 424 492.5 353 c 128,-1,50
 450 282 450 282 433 169 c 1,51,52
 424 84 424 84 416 0 c 1,53,54
 409 0 409 0 393 3 c 128,-1,55
 377 6 377 6 369 6 c 0,56,57
 360 6 360 6 345.5 3.5 c 128,-1,58
 331 1 331 1 322 0 c 1,59,60
 348 87 348 87 366 177 c 128,-1,61
 384 267 384 267 384 338 c 0,0,1
EndSplineSet
EndChar
StartChar: n
Encoding: 110 110 77
Width: 551
Flags: HW
LayerCount: 2
Fore
SplineSet
90 472 m 1
 132 466 l 1
 148.666666667 466 165 468 181 472 c 1
 170.333333333 441.333333333 162 409.666666667 156 377 c 1
 183.333333333 410.333333333 212 436.166666667 242 454.5 c 128
 272 472.833333333 306 482 344 482 c 0
 382.666666667 482 415 471 441 449 c 128
 467 427 480 396.666666667 480 358 c 0
 480 344.666666667 479 330.333333333 477 315 c 128
 475 299.666666667 472.333333333 285 469 271 c 1
 443 129 l 2
 439 108.333333333 435.166666667 85.1666666667 431.5 59.5 c 128
 426 21 426 21 423 0 c 1
 399 3 399 3 375 6 c 1
 368.333333333 6 360.666666667 5.33333333333 352 4 c 128
 343.333333333 2.66666666667 335 1.33333333333 327 0 c 1
 344.333333333 58 359.5 117.666666667 372.5 179 c 128
 385.5 240.333333333 392 293.333333333 392 338 c 1
 389.333333333 364.666666667 381 385.666666667 367 401 c 128
 353 416.333333333 333 424 307 424 c 0
 249 424 205.666666667 400.333333333 177 353 c 128
 148.333333333 305.666666667 129.5 249 120.5 183 c 128
 111.5 117 104 56 98 0 c 1
 92.6666666667 0 84.1666666667 0.833333333333 72.5 2.5 c 128
 60.8333333333 4.16666666667 53.6666666667 5 51 5 c 0
 43.6666666667 5 34.1666666667 4.16666666667 22.5 2.5 c 128
 10.8333333333 0.833333333333 4.33333333333 0 3 0 c 1
 27 77.3333333333 47.5 159 64.5 245 c 128
 81.5 331 90 406.666666667 90 472 c 1
EndSplineSet
EndChar
StartChar: p
Encoding: 112 112 81
Width: 551
Flags: W
LayerCount: 2
Fore
SplineSet
-16 -105 m 1,0,1
 15 38 15 38 47.5 193 c 128,-1,2
 80 348 80 348 92 471 c 1,3,4
 113 467 113 467 135 467 c 0,5,6
 146 467 146 467 160 468.5 c 128,-1,7
 174 470 174 470 181 471 c 1,8,-1
 162 401 l 1,9,10
 194 439 194 439 237 460.5 c 128,-1,11
 280 482 280 482 328 482 c 0,12,13
 409 482 409 482 456 424.5 c 128,-1,14
 503 367 503 367 503 283 c 0,15,16
 503 169 503 169 431 79.5 c 128,-1,17
 359 -10 359 -10 247 -10 c 0,18,19
 199 -10 199 -10 160.5 17.5 c 128,-1,20
 122 45 122 45 104 91 c 1,21,-1
 82 -18 l 2,22,23
 70 -75 70 -75 59 -136.5 c 128,-1,24
 48 -198 48 -198 36 -269 c 1,25,26
 26 -267 26 -267 13 -265 c 128,-1,27
 0 -263 0 -263 -10 -263 c 0,28,29
 -21 -263 -21 -263 -33.5 -265 c 128,-1,30
 -46 -267 -46 -267 -59 -269 c 1,31,32
 -43 -215 -43 -215 -32 -174 c 128,-1,33
 -21 -133 -21 -133 -16 -105 c 1,0,1
413 293 m 0,34,35
 413 349 413 349 386.5 391 c 128,-1,36
 360 433 360 433 306 433 c 0,37,38
 217 433 217 433 171.5 351 c 128,-1,39
 126 269 126 269 126 173 c 0,40,41
 126 118 126 118 154.5 81 c 128,-1,42
 183 44 183 44 236 44 c 0,43,44
 305 44 305 44 347.5 97.5 c 128,-1,45
 390 151 390 151 398 196.5 c 128,-1,46
 406 242 406 242 409.5 264 c 128,-1,47
 413 286 413 286 413 293 c 0,34,35
EndSplineSet
EndChar
StartChar: q
Encoding: 113 113 82
Width: 551
Flags: W
LayerCount: 2
Fore
SplineSet
193 -10 m 0,0,1
 112 -10 112 -10 64.5 47.5 c 128,-1,2
 17 105 17 105 17 189 c 0,3,4
 17 305 17 305 90.5 393.5 c 128,-1,5
 164 482 164 482 278 482 c 0,6,7
 326 482 326 482 361 456 c 128,-1,8
 396 430 396 430 416 383 c 1,9,10
 424 430 424 430 425.5 441.5 c 128,-1,11
 427 453 427 453 427 471 c 1,12,13
 435 469 435 469 447 468 c 128,-1,14
 459 467 459 467 470 467 c 256,15,16
 481 467 481 467 494.5 468.5 c 128,-1,17
 508 470 508 470 516 471 c 1,18,19
 490 371 490 371 472 283 c 128,-1,20
 454 195 454 195 388 -163 c 1,21,-1
 370 -269 l 1,22,23
 358 -266 358 -266 348.5 -264.5 c 128,-1,24
 339 -263 339 -263 322 -263 c 0,25,26
 304 -263 304 -263 295 -264.5 c 128,-1,27
 286 -266 286 -266 274 -269 c 1,28,29
 298 -188 298 -188 316 -110 c 1,30,-1
 344 22 l 1,31,-1
 355 69 l 1,32,33
 318 32 318 32 279 11 c 128,-1,34
 240 -10 240 -10 193 -10 c 0,0,1
108 174 m 0,35,36
 108 119 108 119 134 78.5 c 128,-1,37
 160 38 160 38 213 38 c 0,38,39
 302 38 302 38 347.5 119.5 c 128,-1,40
 393 201 393 201 393 298 c 0,41,42
 393 354 393 354 363.5 391 c 128,-1,43
 334 428 334 428 279 428 c 0,44,45
 213 428 213 428 171.5 374 c 128,-1,46
 130 320 130 320 119 265 c 128,-1,47
 108 210 108 210 108 174 c 0,35,36
EndSplineSet
EndChar
StartChar: r
Encoding: 114 114 81
Width: 326
Flags: HW
LayerCount: 2
Fore
SplineSet
90 473 m 1
 132 467 l 1
 147.333333333 467 162.666666667 469 178 473 c 1
 168.666666667 438.333333333 161.666666667 406 157 376 c 1
 176.333333333 405.333333333 197.833333333 430.333333333 221.5 451 c 128
 245.166666667 471.666666667 270.666666667 482 298 482 c 1
 310 480 319.333333333 478.666666667 326 478 c 1
 321.333333333 464.666666667 317.833333333 451.5 315.5 438.5 c 128
 313.166666667 425.5 312 411.333333333 312 396 c 1
 296.666666667 398 281.666666667 400 267 402 c 1
 203 402 163.166666667 370.333333333 147.5 307 c 128
 131.833333333 243.666666667 115.333333333 141.333333333 98 0 c 1
 92.6666666667 0 84.1666666667 0.833333333333 72.5 2.5 c 128
 60.8333333333 4.16666666667 53.6666666667 5 51 5 c 0
 43.6666666667 5 34.1666666667 4.16666666667 22.5 2.5 c 128
 10.8333333333 0.833333333333 4.33333333333 0 3 0 c 1
 26.3333333333 76 46.6666666667 157.5 64 244.5 c 128
 81.3333333333 331.5 90 407.666666667 90 473 c 1
EndSplineSet
EndChar
StartChar: s
Encoding: 115 115 84
Width: 379
Flags: W
LayerCount: 2
Fore
SplineSet
30 129 m 1,0,1
 36 85 36 85 66 57 c 128,-1,2
 96 29 96 29 141 29 c 0,3,4
 181 29 181 29 211 52 c 128,-1,5
 241 75 241 75 241 114 c 0,6,7
 241 173 241 173 140 218 c 128,-1,8
 39 263 39 263 39 334 c 0,9,10
 39 400 39 400 87.5 441 c 128,-1,11
 136 482 136 482 204 482 c 0,12,13
 240 482 240 482 273.5 474 c 128,-1,14
 307 466 307 466 337 447 c 1,15,16
 322 411 322 411 312 367 c 1,17,-1
 299 367 l 1,18,19
 285 406 285 406 262 425 c 128,-1,20
 239 444 239 444 199 444 c 0,21,22
 168 444 168 444 141 419 c 128,-1,23
 114 394 114 394 114 363 c 0,24,25
 114 314 114 314 215.5 267.5 c 128,-1,26
 317 221 317 221 317 157 c 0,27,28
 317 81 317 81 263.5 35 c 128,-1,29
 210 -11 210 -11 132 -11 c 0,30,31
 93 -11 93 -11 52 1.5 c 128,-1,32
 11 14 11 14 -17 37 c 1,33,34
 -11 61 -11 61 -4.5 83 c 128,-1,35
 2 105 2 105 12 129 c 1,36,-1
 30 129 l 1,0,1
EndSplineSet
EndChar
StartChar: t
Encoding: 116 116 85
Width: 312
Flags: W
LayerCount: 2
Fore
SplineSet
24 422 m 1,0,1
 28 432 28 432 30 445 c 128,-1,2
 32 458 32 458 32 472 c 1,3,4
 47 469 47 469 67 467 c 128,-1,5
 87 465 87 465 120 465 c 1,6,7
 125 489 125 489 131.5 523 c 128,-1,8
 138 557 138 557 142 586 c 1,9,10
 167 591 167 591 184 597 c 128,-1,11
 201 603 201 603 230 617 c 1,12,-1
 238 607 l 1,13,-1
 211 505 l 1,14,-1
 202 465 l 1,15,16
 261 465 261 465 314 472 c 1,17,18
 313 469 313 469 309 449.5 c 128,-1,19
 305 430 305 430 305 422 c 1,20,21
 276 426 276 426 251.5 427 c 128,-1,22
 227 428 227 428 193 428 c 1,23,-1
 141 193 l 1,24,25
 133 164 133 164 129.5 143.5 c 128,-1,26
 126 123 126 123 126 100 c 0,27,28
 126 72 126 72 143 56 c 128,-1,29
 160 40 160 40 188 40 c 0,30,31
 205 40 205 40 214.5 43 c 128,-1,32
 224 46 224 46 250 58 c 1,33,-1
 246 21 l 1,34,35
 221 8 221 8 196 -0.5 c 128,-1,36
 171 -9 171 -9 146 -9 c 0,37,38
 102 -9 102 -9 70.5 15 c 128,-1,39
 39 39 39 39 39 82 c 0,40,41
 39 104 39 104 45.5 135 c 128,-1,42
 52 166 52 166 55 180 c 2,43,-1
 112 428 l 1,44,45
 86 428 86 428 66 427 c 128,-1,46
 46 426 46 426 24 422 c 1,0,1
EndSplineSet
EndChar
StartChar: u
Encoding: 117 117 84
Width: 551
Flags: HW
LayerCount: 2
Fore
SplineSet
423 0 m 1
 379 4 l 2
 371.666666667 4 363.333333333 3.5 354 2.5 c 128
 344.666666667 1.5 337.333333333 0.666666666667 332 0 c 1
 343.333333333 30 351.333333333 61 356 93 c 1
 330.666666667 59.6666666667 302.833333333 34.1666666667 272.5 16.5 c 128
 242.166666667 -1.16666666667 207.333333333 -10 168 -10 c 256
 128.666666667 -10 96 0.666666666667 70 22 c 128
 44 43.3333333333 31 73.3333333333 31 112 c 0
 31 145.333333333 37 194.333333333 49 259 c 128
 61 323.666666667 74.6666666667 394.666666667 90 472 c 1
 107.333333333 467.333333333 122.666666667 465 136 465 c 0
 143.333333333 465 151.166666667 465.666666667 159.5 467 c 128
 167.833333333 468.333333333 176.333333333 470 185 472 c 1
 161 383.333333333 144.166666667 317.333333333 134.5 274 c 128
 124.833333333 230.666666667 120 183.666666667 120 133 c 0
 120 109.666666667 125.5 90.1666666667 136.5 74.5 c 128
 147.5 58.8333333333 164.666666667 49.6666666667 188 47 c 1
 278.666666667 47 335.5 82.6666666667 358.5 154 c 128
 381.5 225.333333333 400 331.333333333 414 472 c 1
 429.333333333 468 445.333333333 466 462 466 c 0
 478 466 494 468 510 472 c 1
 488.666666667 402 468.833333333 321 450.5 229 c 128
 432.166666667 137 423 60.6666666667 423 0 c 1
EndSplineSet
EndChar
StartChar: v
Encoding: 118 118 85
Width: 436
Flags: HW
LayerCount: 2
Fore
SplineSet
11 472 m 1
 29 468 46 466 62 466 c 0
 78.6666666667 466 95.6666666667 468 113 472 c 1
 119 404 128.333333333 339.333333333 141 278 c 1
 177 86 l 1
 266 243 l 2
 286 277.666666667 304 312.166666667 320 346.5 c 128
 336 380.833333333 354.333333333 422.666666667 375 472 c 1
 388.333333333 468 401.333333333 466 414 466 c 0
 430 466 445.666666667 468 461 472 c 1
 409.666666667 398 361.5 322.5 316.5 245.5 c 128
 271.5 168.5 227.333333333 86.6666666667 184 0 c 1
 176 1.33333333333 169.333333333 2.5 164 3.5 c 128
 158.666666667 4.5 154 5 150 5 c 0
 142 5 134.833333333 4.33333333333 128.5 3 c 128
 122.166666667 1.66666666667 117 0.666666666667 113 0 c 1
 105 50.6666666667 95.1666666667 104 83.5 160 c 128
 71.8333333333 216 61.3333333333 264 52 304 c 128
 42.6666666667 344 29 400 11 472 c 1
EndSplineSet
EndChar
StartChar: w
Encoding: 119 119 86
Width: 731
Flags: HW
LayerCount: 2
Fore
SplineSet
16 472 m 1
 31.3333333333 468 48 466 66 466 c 0
 82 466 97.6666666667 468 113 472 c 1
 119 414.666666667 126.333333333 356.166666667 135 296.5 c 128
 143.666666667 236.833333333 153.666666667 173.666666667 165 107 c 1
 238 240 l 2
 257.333333333 275.333333333 276 311.833333333 294 349.5 c 128
 312 387.166666667 330 428 348 472 c 1
 360 468 373 466 387 466 c 0
 400.333333333 466 412 468 422 472 c 1
 422 430.666666667 428 381 440 323 c 128
 452 265 461 221.333333333 467 192 c 2
 487 91 l 1
 557 222 l 1
 581.666666667 272 602 315.166666667 618 351.5 c 128
 634 387.833333333 650 428 666 472 c 1
 671.333333333 470.666666667 677.166666667 469.5 683.5 468.5 c 128
 689.833333333 467.5 695.333333333 466.666666667 700 466 c 1
 715.333333333 466 730.666666667 468 746 472 c 1
 702 394 656.5 312.833333333 609.5 228.5 c 128
 562.5 144.166666667 523.333333333 68 492 0 c 1
 486.666666667 0 479.833333333 0.833333333333 471.5 2.5 c 128
 463.166666667 4.16666666667 458 5 456 5 c 0
 452 5 446 4.16666666667 438 2.5 c 128
 430 0.833333333333 424.666666667 0 422 0 c 1
 414 52 406.5 95.8333333333 399.5 131.5 c 128
 392.5 167.166666667 376.666666667 246.333333333 352 369 c 1
 290 252.333333333 228.666666667 129.333333333 168 0 c 1
 134 4 l 2
 128.666666667 4 122.5 3.5 115.5 2.5 c 128
 105 1 105 1 98 0 c 1
 78 158.666666667 50.6666666667 316 16 472 c 1
EndSplineSet
EndChar
StartChar: x
Encoding: 120 120 89
Width: 443
Flags: W
LayerCount: 2
Fore
SplineSet
93 149 m 1,0,-1
 169 231 l 1,1,2
 138 292 138 292 106.5 350 c 128,-1,3
 75 408 75 408 38 472 c 1,4,5
 64 466 64 466 91 466 c 0,6,7
 117 466 117 466 143 472 c 1,8,9
 161 424 161 424 178.5 385 c 128,-1,10
 196 346 196 346 223 290 c 1,11,12
 284 366 284 366 308 396 c 128,-1,13
 332 426 332 426 362 472 c 1,14,15
 380 466 380 466 399 466 c 0,16,17
 421 466 421 466 448 472 c 1,18,-1
 326 344 l 1,19,-1
 242 253 l 1,20,-1
 291 156 l 1,21,22
 313 109 313 109 326.5 85 c 128,-1,23
 340 61 340 61 377 0 c 1,24,25
 365 0 365 0 345 2.5 c 128,-1,26
 325 5 325 5 322 5 c 0,27,28
 310 5 310 5 291 2.5 c 128,-1,29
 272 0 272 0 269 0 c 1,30,31
 253 42 253 42 243.5 65 c 128,-1,32
 234 88 234 88 187 193 c 1,33,34
 151 151 151 151 110.5 98.5 c 128,-1,35
 70 46 70 46 39 0 c 1,36,37
 30 0 30 0 15 2.5 c 128,-1,38
 0 5 0 5 -4 5 c 0,39,40
 -13 5 -13 5 -28.5 2.5 c 128,-1,41
 -44 0 -44 0 -48 0 c 1,42,-1
 93 149 l 1,0,-1
EndSplineSet
EndChar
StartChar: y
Encoding: 121 121 90
Width: 436
Flags: W
LayerCount: 2
Fore
SplineSet
64 -127 m 1,0,-1
 123 -25 l 1,1,-1
 84 159 l 1,2,-1
 47 336 l 1,3,-1
 10 472 l 1,4,5
 25 469 25 469 37.5 467 c 128,-1,6
 50 465 50 465 63 465 c 0,7,8
 73 465 73 465 84.5 466.5 c 128,-1,9
 96 468 96 468 116 472 c 1,10,11
 128 355 128 355 146 266 c 2,12,-1
 184 79 l 1,13,-1
 255 210 l 1,14,15
 290 271 290 271 320.5 332 c 128,-1,16
 351 393 351 393 386 472 c 1,17,18
 409 465 409 465 429 465 c 0,19,20
 438 465 438 465 448.5 466.5 c 128,-1,21
 459 468 459 468 472 472 c 1,22,23
 353 292 353 292 246 104 c 128,-1,24
 139 -84 139 -84 53 -269 c 1,25,-1
 24 -264 l 1,26,27
 9 -264 9 -264 -6 -265 c 128,-1,28
 -21 -266 -21 -266 -35 -269 c 1,29,30
 -2 -226 -2 -226 28 -183 c 1,31,32
 52 -145 52 -145 64 -127 c 1,0,-1
EndSplineSet
EndChar
StartChar: z
Encoding: 122 122 89
Width: 456
Flags: HW
LayerCount: 2
Fore
SplineSet
224 305 m 2
 322 424 l 1
 268.666666667 424 225.666666667 423.666666667 193 423 c 128
 160.333333333 422.333333333 122.666666667 420 80 416 c 1
 83 452 l 1
 82 472 l 1
 111.333333333 469.333333333 130.666666667 467.833333333 140 467.5 c 128
 149.333333333 467.166666667 159.666666667 467 171 467 c 0
 214.333333333 467 269.5 467.833333333 336.5 469.5 c 128
 403.5 471.166666667 442.666666667 472 454 472 c 1
 454 454 l 1
 399.333333333 393.333333333 358.666666667 347.833333333 332 317.5 c 128
 305.333333333 287.166666667 271.333333333 247.166666667 230 197.5 c 128
 188.666666667 147.833333333 149 98.6666666667 111 50 c 1
 161 50 207.833333333 51 251.5 53 c 128
 295.166666667 55 341.666666667 58.6666666667 391 64 c 1
 387.666666667 54 384.333333333 43.3333333333 381 32 c 128
 377.666666667 20.6666666667 375.666666667 10 375 0 c 1
 352.333333333 0 318.666666667 1 274 3 c 128
 229.333333333 5 195.666666667 6 173 6 c 0
 110.333333333 6 44.3333333333 3 -25 -3 c 1
 -25 22 l 1
 58.3333333333 109.333333333 141.333333333 203.666666667 224 305 c 2
EndSplineSet
EndChar
StartChar: braceleft
Encoding: 123 123 92
Width: 492
Flags: W
LayerCount: 2
Fore
SplineSet
354 656 m 1,0,1
 321 652 321 652 303 628 c 128,-1,2
 285 604 285 604 285 572 c 2,3,-1
 285 537 l 1,4,-1
 285 420 l 2,5,6
 285 354 285 354 265.5 312.5 c 128,-1,7
 246 271 246 271 190 254 c 1,8,9
 244 239 244 239 264.5 196.5 c 128,-1,10
 285 154 285 154 285 90 c 2,11,-1
 285 -26 l 2,12,13
 285 -79 285 -79 297.5 -108.5 c 128,-1,14
 310 -138 310 -138 339.5 -143 c 128,-1,15
 369 -148 369 -148 382 -148 c 128,-1,16
 395 -148 395 -148 409 -148 c 1,17,-1
 409 -199 l 1,18,19
 331 -199 331 -199 279 -173 c 128,-1,20
 227 -147 227 -147 227 -77 c 1,21,-1
 226 -21 l 1,22,-1
 226 94 l 2,23,24
 226 140 226 140 212.5 176 c 128,-1,25
 199 212 199 212 162 221 c 1,26,27
 139 228 139 228 116.5 228.5 c 128,-1,28
 94 229 94 229 84 229 c 1,29,-1
 84 280 l 1,30,31
 161 280 161 280 193.5 309.5 c 128,-1,32
 226 339 226 339 226 416 c 2,33,-1
 226 531 l 2,34,35
 226 607 226 607 244 650.5 c 128,-1,36
 262 694 262 694 324 704 c 1,37,38
 363 708 363 708 409 708 c 1,39,-1
 409 658 l 1,40,-1
 354 656 l 1,0,1
EndSplineSet
EndChar
StartChar: bar
Encoding: 124 124 93
Width: 492
Flags: W
LayerCount: 2
Fore
SplineSet
272 323 m 1,0,-1
 219 323 l 1,1,-1
 219 688 l 1,2,-1
 272 688 l 1,3,-1
 272 323 l 1,0,-1
272 -169 m 1,4,-1
 219 -169 l 1,5,-1
 219 195 l 1,6,-1
 272 195 l 1,7,-1
 272 -169 l 1,4,-1
EndSplineSet
EndChar
StartChar: braceright
Encoding: 125 125 94
Width: 492
Flags: W
LayerCount: 2
Fore
SplineSet
266 416 m 2,0,1
 266 350 266 350 292 315 c 128,-1,2
 318 280 318 280 381 280 c 2,3,-1
 408 280 l 1,4,-1
 408 229 l 1,5,6
 333 229 333 229 299.5 200 c 128,-1,7
 266 171 266 171 266 94 c 2,8,-1
 266 -21 l 2,9,10
 266 -133 266 -133 231 -166 c 128,-1,11
 196 -199 196 -199 83 -199 c 1,12,-1
 83 -148 l 1,13,14
 142 -148 142 -148 174.5 -131 c 128,-1,15
 207 -114 207 -114 207 -60 c 2,16,-1
 207 -26 l 1,17,-1
 207 90 l 2,18,19
 207 155 207 155 226.5 196 c 128,-1,20
 246 237 246 237 301 254 c 1,21,22
 242 274 242 274 224.5 311.5 c 128,-1,23
 207 349 207 349 207 420 c 2,24,-1
 207 537 l 2,25,26
 207 588 207 588 194.5 618.5 c 128,-1,27
 182 649 182 649 138 657 c 1,28,-1
 83 658 l 1,29,-1
 83 708 l 1,30,31
 192 708 192 708 228.5 677 c 128,-1,32
 265 646 265 646 265 587 c 1,33,-1
 266 531 l 1,34,-1
 266 416 l 2,0,1
EndSplineSet
EndChar
StartChar: asciitilde
Encoding: 126 126 95
Width: 984
Flags: W
LayerCount: 2
Fore
SplineSet
614 469 m 0,0,1
 559 469 559 469 479 540 c 128,-1,2
 399 611 399 611 368 611 c 0,3,4
 311 611 311 611 285.5 570.5 c 128,-1,5
 260 530 260 530 260 469 c 1,6,-1
 205 469 l 1,7,8
 205 552 205 552 245.5 608.5 c 128,-1,9
 286 665 286 665 368 665 c 0,10,11
 436 665 436 665 502 593 c 128,-1,12
 568 521 568 521 615 521 c 0,13,14
 674 521 674 521 698 561 c 128,-1,15
 722 601 722 601 722 665 c 1,16,-1
 778 665 l 1,17,18
 778 580 778 580 737.5 524.5 c 128,-1,19
 697 469 697 469 614 469 c 0,0,1
EndSplineSet
EndChar
StartChar: glyph143
Encoding: 163 163 143
Width: 539
Flags: W
LayerCount: 2
Fore
SplineSet
-3 71 m 1,0,-1
 10 70 l 1,1,2
 101 70 101 70 130 143.5 c 128,-1,3
 159 217 159 217 159 326 c 1,4,5
 135 326 135 326 112 326 c 128,-1,6
 89 326 89 326 62 323 c 1,7,-1
 70 367 l 1,8,9
 85 367 85 367 115 365 c 128,-1,10
 145 363 145 363 160 363 c 1,11,12
 160 374 160 374 160.5 383.5 c 128,-1,13
 161 393 161 393 165 423 c 1,14,15
 165 515 165 515 231.5 585.5 c 128,-1,16
 298 656 298 656 391 656 c 0,17,18
 437 656 437 656 479 635.5 c 128,-1,19
 521 615 521 615 544 577 c 1,20,21
 509 547 509 547 486 517 c 1,22,-1
 468 522 l 1,23,24
 468 565 468 565 449.5 592 c 128,-1,25
 431 619 431 619 391 619 c 0,26,27
 315 619 315 619 283.5 537 c 128,-1,28
 252 455 252 455 252 363 c 1,29,-1
 338 362 l 1,30,-1
 435 367 l 1,31,32
 429 357 429 357 427 345 c 128,-1,33
 425 333 425 333 425 317 c 1,34,35
 342 324 342 324 249 324 c 1,36,37
 239 230 239 230 210.5 178 c 128,-1,38
 182 126 182 126 107 69 c 1,39,-1
 223 67 l 2,40,41
 273 67 273 67 365 71 c 128,-1,42
 457 75 457 75 477 75 c 1,43,-1
 470 -5 l 1,44,45
 417 -5 417 -5 319 -0.5 c 128,-1,46
 221 4 221 4 210 4 c 0,47,48
 171 4 171 4 82.5 2 c 128,-1,49
 -6 0 -6 0 -11 0 c 1,50,-1
 -3 71 l 1,0,-1
EndSplineSet
EndChar
StartChar: yen
Encoding: 165 165 127
Width: 539
Flags: HW
LayerCount: 2
Fore
SplineSet
200 209 m 1
 180.666666667 209 151.833333333 208.666666667 113.5 208 c 128
 75.1666666667 207.333333333 46.6666666667 207 28 207 c 1
 38 246 l 1
 56 246 78.5 245.5 105.5 244.5 c 128
 132.5 243.5 146.333333333 243 147 243 c 2
 209 243 l 1
 222 314 l 1
 53 312 l 1
 60 352 l 1
 212 349 l 1
 192 401 173.833333333 446.166666667 157.5 484.5 c 128
 141.166666667 522.833333333 118.333333333 574.333333333 89 639 c 1
 93.6666666667 639 101.666666667 638.333333333 113 637 c 128
 124.333333333 635.666666667 133 635 139 635 c 0
 143.666666667 635 151 635.666666667 161 637 c 128
 171 638.333333333 178.666666667 639 184 639 c 1
 192.666666667 610.333333333 202 582 212 554 c 128
 222 526 232.333333333 498 243 470 c 2
 285 357 l 1
 357 464 l 2
 393 518.666666667 427.333333333 577 460 639 c 1
 499 635 l 2
 505 635 514.666666667 635.666666667 528 637 c 128
 541.333333333 638.333333333 548.333333333 639 549 639 c 1
 519.666666667 603 494.833333333 571.833333333 474.5 545.5 c 128
 454.166666667 519.166666667 432 489.333333333 408 456 c 2
 329 349 l 1
 481 352 l 1
 474 312 l 1
 302 314 l 1
 289 243 l 1
 316.333333333 243 344.333333333 243.333333333 373 244 c 128
 416 245 416 245 459 246 c 1
 451 207 l 1
 432.333333333 207 404.166666667 207.333333333 366.5 208 c 128
 328.833333333 208.666666667 300.666666667 209 282 209 c 1
 274.666666667 176.333333333 268 139.833333333 262 99.5 c 128
 256 59.1666666667 251 26 247 0 c 1
 237.666666667 0.666666666667 229 1.5 221 2.5 c 128
 213 3.5 203.333333333 4 192 4 c 1
 146 0 l 1
 156.666666667 31.3333333333 166.166666667 63.5 174.5 96.5 c 128
 182.833333333 129.5 191.333333333 167 200 209 c 1
EndSplineSet
EndChar
StartChar: brokenbar
Encoding: 166 166 91
Width: 492
Flags: HW
LayerCount: 2
Fore
SplineSet
272 323 m 1
 219 323 l 1
 219 688 l 1
 272 688 l 1
 272 323 l 1
272 -169 m 1
 219 -169 l 1
 219 195 l 1
 272 195 l 1
 272 -169 l 1
EndSplineSet
EndChar
StartChar: otilde
Encoding: 166 166 152
Width: 717
Flags: W
LayerCount: 2
Fore
SplineSet
252 -7 m 1,0,1
 154 -7 154 -7 82.5 56.5 c 128,-1,2
 11 120 11 120 11 219 c 0,3,4
 11 356 11 356 104.5 415 c 128,-1,5
 198 474 198 474 344 474 c 1,6,7
 358 534 358 534 367.5 592 c 128,-1,8
 377 650 377 650 387 727 c 1,9,10
 402 724 402 724 411.5 723 c 128,-1,11
 421 722 421 722 438 722 c 0,12,13
 451 722 451 722 460 723 c 128,-1,14
 469 724 469 724 486 727 c 1,15,16
 465 644 465 644 451 585 c 128,-1,17
 437 526 437 526 427 470 c 1,18,19
 532 456 532 456 600.5 399.5 c 128,-1,20
 669 343 669 343 669 243 c 0,21,22
 669 125 669 125 581.5 57.5 c 128,-1,23
 494 -10 494 -10 373 -10 c 1,24,-1
 333 -8 l 1,25,26
 309 -122 309 -122 291 -269 c 1,27,28
 273 -264 273 -264 258 -264 c 0,29,30
 241 -264 241 -264 226.5 -264.5 c 128,-1,31
 212 -265 212 -265 192 -269 c 1,32,33
 213 -193 213 -193 228 -131.5 c 128,-1,34
 243 -70 243 -70 252 -7 c 1,0,1
368 28 m 2,35,36
 467 28 467 28 522 90.5 c 128,-1,37
 577 153 577 153 577 254 c 0,38,39
 577 327 577 327 535.5 376.5 c 128,-1,40
 494 426 494 426 421 436 c 1,41,-1
 343 28 l 1,42,-1
 368 28 l 2,35,36
104 217 m 0,43,44
 104 141 104 141 145.5 85 c 128,-1,45
 187 29 187 29 259 29 c 1,46,-1
 338 439 l 1,47,48
 230 439 230 439 167 382.5 c 128,-1,49
 104 326 104 326 104 217 c 0,43,44
EndSplineSet
EndChar
StartChar: dieresis
Encoding: 167 167 124
Width: 486
Flags: W
LayerCount: 2
Fore
SplineSet
30 31 m 1,0,-1
 42 30 l 1,1,2
 67 -16 67 -16 102 -43 c 128,-1,3
 137 -70 137 -70 185 -70 c 0,4,5
 235 -70 235 -70 269.5 -41 c 128,-1,6
 304 -12 304 -12 304 37 c 0,7,8
 304 93 304 93 242 138 c 1,9,10
 184 175 184 175 126 212 c 1,11,12
 63 261 63 261 63 326 c 0,13,14
 63 367 63 367 86.5 399 c 128,-1,15
 110 431 110 431 150 458 c 1,16,17
 141 475 141 475 136 490.5 c 128,-1,18
 131 506 131 506 131 524 c 0,19,20
 131 588 131 588 183.5 635.5 c 128,-1,21
 236 683 236 683 303 683 c 0,22,23
 340 683 340 683 376 670.5 c 128,-1,24
 412 658 412 658 436 635 c 1,25,26
 431 627 431 627 425 616.5 c 128,-1,27
 419 606 419 606 405 578 c 1,28,-1
 392 578 l 1,29,30
 372 608 372 608 347.5 625.5 c 128,-1,31
 323 643 323 643 291 643 c 0,32,33
 251 643 251 643 221.5 616.5 c 128,-1,34
 192 590 192 590 192 550 c 0,35,36
 192 500 192 500 251.5 461 c 128,-1,37
 311 422 311 422 369 387 c 1,38,39
 431 339 431 339 431 274 c 0,40,41
 431 238 431 238 409 205 c 128,-1,42
 387 172 387 172 354 146 c 1,43,44
 375 114 375 114 375 70 c 0,45,46
 375 -6 375 -6 317.5 -60.5 c 128,-1,47
 260 -115 260 -115 185 -115 c 0,48,49
 85 -115 85 -115 5 -51 c 1,50,51
 18 -26 18 -26 24 -8 c 128,-1,52
 30 10 30 10 30 31 c 1,0,-1
372 245 m 0,53,54
 372 285 372 285 301.5 337.5 c 128,-1,55
 231 390 231 390 172 434 c 1,56,57
 150 422 150 422 136 403.5 c 128,-1,58
 122 385 122 385 122 362 c 0,59,60
 122 314 122 314 195.5 262.5 c 128,-1,61
 269 211 269 211 332 169 c 1,62,63
 348 184 348 184 360 204.5 c 128,-1,64
 372 225 372 225 372 245 c 0,53,54
EndSplineSet
EndChar
StartChar: aring
Encoding: 168 168 104
Width: 436
Flags: W
LayerCount: 2
Fore
SplineSet
176 444 m 2,0,1
 161 411 161 411 148.5 401 c 128,-1,2
 136 391 136 391 117 391 c 1,3,-1
 97 394 l 1,4,5
 88 397 88 397 82.5 401.5 c 128,-1,6
 77 406 77 406 77 423 c 0,7,8
 77 435 77 435 84.5 449.5 c 128,-1,9
 92 464 92 464 99 477 c 1,10,-1
 260 682 l 1,11,-1
 280 673 l 1,12,-1
 176 444 l 2,0,1
367 444 m 1,13,-1
 355 418 l 2,14,15
 348 403 348 403 337 397 c 128,-1,16
 326 391 326 391 307 391 c 256,17,18
 288 391 288 391 277.5 398.5 c 128,-1,19
 267 406 267 406 267 424 c 0,20,21
 267 440 267 440 274.5 453 c 128,-1,22
 282 466 282 466 291 477 c 2,23,-1
 450 682 l 1,24,-1
 470 673 l 1,25,-1
 367 444 l 1,13,-1
EndSplineSet
EndChar
StartChar: copyright
Encoding: 169 169 121
Width: 820
Flags: HW
LayerCount: 2
Fore
SplineSet
587 651 m 0
 641 620.333333333 683.5 577.833333333 714.5 523.5 c 128
 745.5 469.166666667 761 410.333333333 761 347 c 0
 761 251 726.166666667 168.5 656.5 99.5 c 128
 586.833333333 30.5 504.333333333 -4 409 -4 c 256
 313.666666667 -4 231.333333333 30.6666666667 162 100 c 128
 92.6666666667 169.333333333 58 251.666666667 58 347 c 0
 58 443 92.6666666667 525.666666667 162 595 c 128
 231.333333333 664.333333333 314 699 410 699 c 0
 472 699 531 683 587 651 c 0
410 661 m 0
 324.666666667 661 251 630 189 568 c 128
 127 506 96 432.333333333 96 347 c 0
 96 263 127 189.666666667 189 127 c 128
 251 64.3333333333 324 33 408 33 c 0
 492.666666667 33 566.333333333 64 629 126 c 128
 691.666666667 188 723 261 723 345 c 0
 723 401 709.333333333 453.5 682 502.5 c 128
 654.666666667 551.5 616.333333333 590.166666667 567 618.5 c 128
 517.666666667 646.833333333 465.333333333 661 410 661 c 0
412 520 m 0
 370.666666667 520 339.5 503 318.5 469 c 128
 297.5 435 287 396.333333333 287 353 c 0
 287 307.666666667 296.5 266.833333333 315.5 230.5 c 128
 334.5 194.166666667 364 176 404 176 c 0
 432 176 456.833333333 184.5 478.5 201.5 c 128
 500.166666667 218.5 514 240 520 266 c 1
 576 266 l 1
 570.666666667 224.666666667 551.666666667 191.666666667 519 167 c 128
 486.333333333 142.333333333 448.333333333 130 405 130 c 0
 349 130 305 151 273 193 c 128
 241 235 225 285 225 343 c 0
 225 403.666666667 241.333333333 455.833333333 274 499.5 c 128
 306.666666667 543.166666667 353 565 413 565 c 0
 453 565 487.666666667 553.666666667 517 531 c 128
 546.333333333 508.333333333 564.666666667 477.333333333 572 438 c 1
 516 438 l 1
 510.666666667 463.333333333 498.5 483.333333333 479.5 498 c 128
 460.5 512.666666667 438 520 412 520 c 0
EndSplineSet
EndChar
StartChar: guillemotleft
Encoding: 171 171 130
Width: 432
Flags: HW
LayerCount: 2
Fore
SplineSet
397 469 m 1
 400.333333333 455.666666667 406 444.333333333 414 435 c 1
 395.333333333 403.666666667 375.5 373.833333333 354.5 345.5 c 128
 333.5 317.166666667 308.333333333 285 279 249 c 1
 292.333333333 215.666666667 305.333333333 180 318 142 c 128
 330.666666667 104 341 67.6666666667 349 33 c 1
 343.666666667 28.3333333333 338.666666667 22.5 334 15.5 c 128
 329.333333333 8.5 325.666666667 3.33333333333 323 0 c 1
 306.333333333 43.3333333333 289.5 85 272.5 125 c 128
 255.5 165 236.333333333 208.333333333 215 255 c 1
 397 469 l 1
214 469 m 1
 216 462.333333333 218.333333333 456.333333333 221 451 c 128
 223.666666667 445.666666667 227.333333333 440.333333333 232 435 c 1
 212.666666667 403.666666667 191.5 372.333333333 168.5 341 c 128
 145.5 309.666666667 121.666666667 279 97 249 c 1
 114.333333333 207 128.333333333 170.166666667 139 138.5 c 128
 149.666666667 106.833333333 158.666666667 71.6666666667 166 33 c 1
 161.333333333 28.3333333333 156.666666667 22.5 152 15.5 c 128
 147.333333333 8.5 143.666666667 3.33333333333 141 0 c 1
 124.333333333 43.3333333333 107.5 85 90.5 125 c 128
 73.5 165 54.3333333333 208.333333333 33 255 c 1
 85 315.666666667 119.333333333 355.666666667 136 375 c 128
 152.666666667 394.333333333 178.666666667 425.666666667 214 469 c 1
EndSplineSet
EndChar
StartChar: logicalnot
Encoding: 172 172 130
Width: 388
Flags: W
LayerCount: 2
Fore
SplineSet
228 571 m 1,0,1
 155 538 155 538 121.5 522 c 128,-1,2
 88 506 88 506 47 480 c 1,3,4
 45 495 45 495 43 509 c 128,-1,5
 41 523 41 523 35 539 c 1,6,7
 110 564 110 564 171.5 589.5 c 128,-1,8
 233 615 233 615 324 659 c 1,9,-1
 337 645 l 1,10,11
 258 327 258 327 205 0 c 1,12,13
 196 0 196 0 179 3 c 128,-1,14
 162 6 162 6 153 6 c 0,15,16
 143 6 143 6 129.5 4 c 128,-1,17
 116 2 116 2 103 0 c 1,18,19
 175 287 175 287 228 571 c 1,0,1
EndSplineSet
EndChar
StartChar: registered
Encoding: 174 174 120
Width: 820
Flags: HW
LayerCount: 2
Fore
SplineSet
587 651 m 0
 641 620.333333333 683.5 577.833333333 714.5 523.5 c 128
 745.5 469.166666667 761 410.333333333 761 347 c 0
 761 251 726.166666667 168.5 656.5 99.5 c 128
 586.833333333 30.5 504.333333333 -4 409 -4 c 256
 313.666666667 -4 231.333333333 30.6666666667 162 100 c 128
 92.6666666667 169.333333333 58 251.666666667 58 347 c 0
 58 443 92.6666666667 525.666666667 162 595 c 128
 231.333333333 664.333333333 314 699 410 699 c 0
 472 699 531 683 587 651 c 0
410 661 m 0
 324.666666667 661 251 630 189 568 c 128
 127 506 96 432.333333333 96 347 c 0
 96 263 127 189.666666667 189 127 c 128
 251 64.3333333333 324 33 408 33 c 0
 492.666666667 33 566.333333333 64 629 126 c 128
 691.666666667 188 723 261 723 345 c 0
 723 401 709.333333333 453.5 682 502.5 c 128
 654.666666667 551.5 616.333333333 590.166666667 567 618.5 c 128
 517.666666667 646.833333333 465.333333333 661 410 661 c 0
586 447 m 0
 586 419.666666667 576.833333333 396 558.5 376 c 128
 540.166666667 356 517.666666667 343 491 337 c 1
 582 151 l 1
 513 151 l 1
 427 329 l 1
 333 329 l 1
 333 151 l 1
 272 151 l 1
 272 555 l 1
 419 555 l 2
 465.666666667 555 505.166666667 547.333333333 537.5 532 c 128
 569.833333333 516.666666667 586 488.333333333 586 447 c 0
333 515 m 1
 333 369 l 1
 408 369 l 2
 440.666666667 369 468.166666667 373.666666667 490.5 383 c 128
 512.833333333 392.333333333 524 411 524 439 c 0
 524 469 512.833333333 489.166666667 490.5 499.5 c 128
 468.166666667 509.833333333 440.333333333 515 407 515 c 2
 333 515 l 1
EndSplineSet
EndChar
StartChar: AE
Encoding: 176 176 125
Width: 492
Flags: W
LayerCount: 2
Fore
SplineSet
314 763 m 0,0,1
 358 763 358 763 390 735.5 c 128,-1,2
 422 708 422 708 422 665 c 0,3,4
 422 609 422 609 381.5 567.5 c 128,-1,5
 341 526 341 526 285 526 c 0,6,7
 244 526 244 526 213.5 555.5 c 128,-1,8
 183 585 183 585 183 627 c 0,9,10
 183 682 183 682 221.5 722.5 c 128,-1,11
 260 763 260 763 314 763 c 0,0,1
287 557 m 0,12,13
 325 557 325 557 349 589.5 c 128,-1,14
 373 622 373 622 373 662 c 0,15,16
 373 693 373 693 357.5 713 c 128,-1,17
 342 733 342 733 312 733 c 0,18,19
 272 733 272 733 251.5 697.5 c 128,-1,20
 231 662 231 662 231 619 c 1,21,22
 234 592 234 592 248 574.5 c 128,-1,23
 262 557 262 557 287 557 c 0,12,13
EndSplineSet
EndChar
StartChar: plusminus
Encoding: 177 177 124
Width: 820
Flags: HW
LayerCount: 2
Fore
SplineSet
435 394 m 1
 698 394 l 1
 698 347 l 1
 435 347 l 1
 435 179 l 1
 386 179 l 1
 386 347 l 1
 122 347 l 1
 122 394 l 1
 386 394 l 1
 386 562 l 1
 435 562 l 1
 435 394 l 1
698 24 m 1
 122 24 l 1
 122 72 l 1
 698 72 l 1
 698 24 l 1
EndSplineSet
EndChar
StartChar: Ccedilla
Encoding: 178 178 147
Width: 357
Flags: W
LayerCount: 2
Fore
SplineSet
280 306 m 1,0,1
 278 300 278 300 275 288.5 c 128,-1,2
 272 277 272 277 272 271 c 2,3,-1
 274 255 l 1,4,5
 251 255 251 255 197.5 257 c 128,-1,6
 144 259 144 259 141 259 c 0,7,8
 117 259 117 259 59 257 c 128,-1,9
 1 255 1 255 -2 255 c 1,10,-1
 0 279 l 1,11,12
 122 369 122 369 183.5 426.5 c 128,-1,13
 245 484 245 484 245 554 c 0,14,15
 245 585 245 585 226 605 c 128,-1,16
 207 625 207 625 175 625 c 0,17,18
 147 625 147 625 125 608.5 c 128,-1,19
 103 592 103 592 92 564 c 1,20,-1
 83 564 l 1,21,22
 78 582 78 582 62 599 c 1,23,24
 88 625 88 625 119 637 c 128,-1,25
 150 649 150 649 187 649 c 0,26,27
 237 649 237 649 274 622.5 c 128,-1,28
 311 596 311 596 311 548 c 0,29,30
 311 466 311 466 216.5 400.5 c 128,-1,31
 122 335 122 335 66 298 c 1,32,-1
 93 298 l 1,33,-1
 117 298 l 2,34,35
 147 298 147 298 184 298.5 c 128,-1,36
 221 299 221 299 280 306 c 1,0,1
EndSplineSet
EndChar
StartChar: uni00B2
Encoding: 178 178 144
Width: 357
Flags: HW
LayerCount: 2
Fore
SplineSet
280 306 m 1
 278.666666667 302 277 296.166666667 275 288.5 c 128
 273 280.833333333 272 275 272 271 c 2
 274 255 l 1
 258.666666667 255 233.166666667 255.666666667 197.5 257 c 128
 161.833333333 258.333333333 143 259 141 259 c 0
 125 259 97.6666666667 258.333333333 59 257 c 128
 20.3333333333 255.666666667 0 255 -2 255 c 1
 0 279 l 1
 81.3333333333 339 142.5 388.166666667 183.5 426.5 c 128
 224.5 464.833333333 245 507.333333333 245 554 c 0
 245 574.666666667 238.666666667 591.666666667 226 605 c 128
 213.333333333 618.333333333 196.333333333 625 175 625 c 0
 156.333333333 625 139.666666667 619.5 125 608.5 c 128
 110.333333333 597.5 99.3333333333 582.666666667 92 564 c 1
 83 564 l 1
 79.6666666667 576 72.6666666667 587.666666667 62 599 c 1
 79.3333333333 616.333333333 98.3333333333 629 119 637 c 128
 139.666666667 645 162.333333333 649 187 649 c 0
 220.333333333 649 249.333333333 640.166666667 274 622.5 c 128
 298.666666667 604.833333333 311 580 311 548 c 0
 311 493.333333333 279.5 444.166666667 216.5 400.5 c 128
 153.5 356.833333333 103.333333333 322.666666667 66 298 c 1
 93 298 l 1
 117 298 l 2
 137 298 159.333333333 298.166666667 184 298.5 c 128
 208.666666667 298.833333333 240.666666667 301.333333333 280 306 c 1
EndSplineSet
EndChar
StartChar: Ntilde
Encoding: 179 179 148
Width: 357
Flags: W
LayerCount: 2
Fore
SplineSet
18 321 m 1,0,-1
 26 319 l 1,1,2
 39 294 39 294 61.5 282.5 c 128,-1,3
 84 271 84 271 114 271 c 0,4,5
 164 271 164 271 201.5 300 c 128,-1,6
 239 329 239 329 239 378 c 0,7,8
 239 408 239 408 220 428 c 128,-1,9
 201 448 201 448 170 448 c 1,10,-1
 126 444 l 1,11,12
 130 457 130 457 132 475 c 1,13,-1
 157 474 l 1,14,15
 190 474 190 474 220.5 497 c 128,-1,16
 251 520 251 520 255 553 c 1,17,18
 255 587 255 587 238 607 c 128,-1,19
 221 627 221 627 187 627 c 0,20,21
 128 627 128 627 104 570 c 1,22,-1
 97 570 l 1,23,24
 94 590 94 590 80 611 c 1,25,26
 131 650 131 650 198 650 c 0,27,28
 242 650 242 650 277 628 c 128,-1,29
 312 606 312 606 312 562 c 0,30,31
 312 521 312 521 279.5 498.5 c 128,-1,32
 247 476 247 476 199 464 c 1,33,34
 240 460 240 460 270 439 c 128,-1,35
 300 418 300 418 300 379 c 0,36,37
 300 313 300 313 237.5 279.5 c 128,-1,38
 175 246 175 246 103 246 c 0,39,40
 75 246 75 246 59 249.5 c 128,-1,41
 43 253 43 253 1 265 c 1,42,-1
 18 321 l 1,0,-1
EndSplineSet
EndChar
StartChar: uni00B3
Encoding: 179 179 145
Width: 357
Flags: HW
LayerCount: 2
Fore
SplineSet
18 321 m 1
 26 319 l 1
 34.6666666667 302.333333333 46.5 290.166666667 61.5 282.5 c 128
 76.5 274.833333333 94 271 114 271 c 0
 147.333333333 271 176.5 280.666666667 201.5 300 c 128
 226.5 319.333333333 239 345.333333333 239 378 c 0
 239 398 232.666666667 414.666666667 220 428 c 128
 207.333333333 441.333333333 190.666666667 448 170 448 c 1
 126 444 l 1
 128.666666667 452.666666667 130.666666667 463 132 475 c 1
 157 474 l 1
 179 474 200.166666667 481.666666667 220.5 497 c 128
 240.833333333 512.333333333 252.333333333 531 255 553 c 1
 255 575.666666667 249.333333333 593.666666667 238 607 c 128
 226.666666667 620.333333333 209.666666667 627 187 627 c 0
 147.666666667 627 120 608 104 570 c 1
 97 570 l 1
 95 583.333333333 89.3333333333 597 80 611 c 1
 114 637 153.333333333 650 198 650 c 0
 227.333333333 650 253.666666667 642.666666667 277 628 c 128
 300.333333333 613.333333333 312 591.333333333 312 562 c 0
 312 534.666666667 301.166666667 513.5 279.5 498.5 c 128
 257.833333333 483.5 231 472 199 464 c 1
 226.333333333 461.333333333 250 453 270 439 c 128
 290 425 300 405 300 379 c 0
 300 335 279.166666667 301.833333333 237.5 279.5 c 128
 195.833333333 257.166666667 151 246 103 246 c 0
 84.3333333333 246 69.6666666667 247.166666667 59 249.5 c 128
 48.3333333333 251.833333333 29 257 1 265 c 1
 18 321 l 1
EndSplineSet
EndChar
StartChar: dagger
Encoding: 182 182 120
Width: 425
Flags: W
LayerCount: 2
Fore
SplineSet
363 697 m 2,0,-1
 531 697 l 1,1,-1
 522 655 l 1,2,-1
 480 655 l 1,3,-1
 342 3 l 1,4,-1
 300 3 l 1,5,-1
 438 655 l 1,6,-1
 359 655 l 1,7,-1
 221 3 l 1,8,-1
 179 3 l 1,9,-1
 263 402 l 1,10,11
 203 402 203 402 164 433.5 c 128,-1,12
 125 465 125 465 125 517 c 0,13,14
 125 574 125 574 191 635.5 c 128,-1,15
 257 697 257 697 363 697 c 2,0,-1
EndSplineSet
EndChar
StartChar: Aring
Encoding: 185 185 146
Width: 357
Flags: W
LayerCount: 2
Fore
SplineSet
224 599 m 1,0,1
 194 586 194 586 163.5 573 c 128,-1,2
 133 560 133 560 104 543 c 1,3,4
 104 561 104 561 98 579 c 1,5,6
 211 619 211 619 219 622 c 128,-1,7
 227 625 227 625 289 651 c 1,8,-1
 298 644 l 1,9,10
 273 552 273 552 251 455 c 128,-1,11
 229 358 229 358 210 255 c 1,12,13
 195 259 195 259 177 259 c 0,14,15
 162 259 162 259 154 257 c 128,-1,16
 146 255 146 255 143 255 c 1,17,18
 193 428 193 428 224 599 c 1,0,1
EndSplineSet
EndChar
StartChar: uni00B9
Encoding: 185 185 143
Width: 357
Flags: HW
LayerCount: 2
Fore
SplineSet
224 599 m 1
 204 590.333333333 183.833333333 581.666666667 163.5 573 c 128
 143.166666667 564.333333333 123.333333333 554.333333333 104 543 c 1
 104 555 102 567 98 579 c 1
 173.333333333 605.666666667 213.666666667 620 219 622 c 128
 224.333333333 624 247.666666667 633.666666667 289 651 c 1
 298 644 l 1
 281.333333333 582.666666667 265.666666667 519.666666667 251 455 c 128
 236.333333333 390.333333333 222.666666667 323.666666667 210 255 c 1
 200 257.666666667 189 259 177 259 c 0
 167 259 159.333333333 258.333333333 154 257 c 128
 148.666666667 255.666666667 145 255 143 255 c 1
 176.333333333 370.333333333 203.333333333 485 224 599 c 1
EndSplineSet
EndChar
StartChar: guillemotright
Encoding: 187 187 133
Width: 432
Flags: W
LayerCount: 2
Fore
SplineSet
192 0 m 1,0,1
 188 15 188 15 176 34 c 1,2,3
 204 82 204 82 229.5 117 c 128,-1,4
 255 152 255 152 310 221 c 1,5,6
 285 283 285 283 268.5 331.5 c 128,-1,7
 252 380 252 380 241 436 c 1,8,9
 248 443 248 443 255.5 453 c 128,-1,10
 263 463 263 463 267 469 c 1,11,12
 291 404 291 404 306.5 367 c 128,-1,13
 322 330 322 330 375 213 c 1,14,15
 336 169 336 169 285 109.5 c 128,-1,16
 234 50 234 50 192 0 c 1,0,1
10 0 m 1,17,18
 6 17 6 17 -5 34 c 1,19,20
 21 81 21 81 47 116.5 c 128,-1,21
 73 152 73 152 128 221 c 1,22,23
 81 327 81 327 59 436 c 1,24,-1
 85 469 l 1,25,26
 107 409 107 409 131.5 350.5 c 128,-1,27
 156 292 156 292 192 213 c 1,28,-1
 10 0 l 1,17,18
EndSplineSet
EndChar
StartChar: oacute
Encoding: 189 189 151
Width: 844
Flags: W
LayerCount: 2
Fore
SplineSet
218 602 m 1,0,1
 173 585 173 585 152.5 576 c 128,-1,2
 132 567 132 567 104 550 c 1,3,4
 104 559 104 559 101 568.5 c 128,-1,5
 98 578 98 578 97 583 c 1,6,7
 154 602 154 602 192.5 616 c 128,-1,8
 231 630 231 630 279 651 c 1,9,-1
 288 644 l 1,10,11
 263 557 263 557 245.5 480 c 128,-1,12
 228 403 228 403 204 282 c 1,13,-1
 171 285 l 1,14,-1
 140 282 l 1,15,16
 164 361 164 361 183.5 441.5 c 128,-1,17
 203 522 203 522 218 602 c 1,0,1
729 731 m 1,18,-1
 184 -90 l 1,19,-1
 126 -90 l 1,20,-1
 669 731 l 1,21,-1
 729 731 l 1,18,-1
772 45 m 1,22,23
 765 27 765 27 765 13 c 1,24,-1
 766 0 l 1,25,-1
 639 2 l 1,26,-1
 500 0 l 1,27,-1
 504 20 l 1,28,29
 641 123 641 123 689 166.5 c 128,-1,30
 737 210 737 210 737 278 c 0,31,32
 737 306 737 306 719 325 c 128,-1,33
 701 344 701 344 671 344 c 0,34,35
 644 344 644 344 623 329 c 128,-1,36
 602 314 602 314 593 288 c 1,37,-1
 583 288 l 1,38,39
 575 308 575 308 562 320 c 1,40,41
 612 368 612 368 682 368 c 0,42,43
 728 368 728 368 764 342.5 c 128,-1,44
 800 317 800 317 800 272 c 0,45,46
 800 198 800 198 710 135.5 c 128,-1,47
 620 73 620 73 567 38 c 1,48,49
 607 38 607 38 679 41.5 c 128,-1,50
 751 45 751 45 772 45 c 1,22,23
EndSplineSet
EndChar
StartChar: onehalf
Encoding: 189 189 147
Width: 844
Flags: HW
LayerCount: 2
Fore
SplineSet
218 602 m 1
 188 590.666666667 166.166666667 582 152.5 576 c 128
 138.833333333 570 122.666666667 561.333333333 104 550 c 1
 104 556 103 562.166666667 101 568.5 c 128
 99 574.833333333 97.6666666667 579.666666667 97 583 c 1
 135 595.666666667 166.833333333 606.666666667 192.5 616 c 128
 218.166666667 625.333333333 247 637 279 651 c 1
 288 644 l 1
 271.333333333 586 257.166666667 531.333333333 245.5 480 c 128
 233.833333333 428.666666667 220 362.666666667 204 282 c 1
 171 285 l 1
 140 282 l 1
 156 334.666666667 170.5 387.833333333 183.5 441.5 c 128
 196.5 495.166666667 208 548.666666667 218 602 c 1
729 731 m 1
 184 -90 l 1
 126 -90 l 1
 669 731 l 1
 729 731 l 1
772 45 m 1
 767.333333333 33 765 22.3333333333 765 13 c 1
 766 0 l 1
 639 2 l 1
 500 0 l 1
 504 20 l 1
 595.333333333 88.6666666667 657 137.5 689 166.5 c 128
 721 195.5 737 232.666666667 737 278 c 0
 737 296.666666667 731 312.333333333 719 325 c 128
 707 337.666666667 691 344 671 344 c 0
 653 344 637 339 623 329 c 128
 609 319 599 305.333333333 593 288 c 1
 583 288 l 1
 577.666666667 301.333333333 570.666666667 312 562 320 c 1
 595.333333333 352 635.333333333 368 682 368 c 0
 712.666666667 368 740 359.5 764 342.5 c 128
 788 325.5 800 302 800 272 c 0
 800 222.666666667 770 177.166666667 710 135.5 c 128
 650 93.8333333333 602.333333333 61.3333333333 567 38 c 1
 593.666666667 38 631 39.1666666667 679 41.5 c 128
 727 43.8333333333 758 45 772 45 c 1
EndSplineSet
EndChar
StartChar: Adieresis
Encoding: 196 196 94
Width: 583
Flags: HW
LayerCount: 2
Fore
SplineSet
357 688 m 1
 379 683 l 1
 403 688 l 1
 415 611.333333333 427.666666667 533 441 453 c 128
 454.333333333 373 469.5 294.333333333 486.5 217 c 128
 503.5 139.666666667 523 67.3333333333 545 0 c 1
 537.666666667 0 527.333333333 0.833333333333 514 2.5 c 128
 500.666666667 4.16666666667 492 5 488 5 c 0
 474.666666667 5 462.833333333 4.33333333333 452.5 3 c 128
 442.166666667 1.66666666667 433.666666667 0.666666666667 427 0 c 1
 427 38 422.5 82.5 413.5 133.5 c 128
 404.5 184.5 397.666666667 224 393 252 c 1
 282 255 l 1
 167 252 l 1
 113 155 l 1
 77.6666666667 93 59 60.1666666667 57 56.5 c 128
 55 52.8333333333 45.3333333333 34 28 0 c 1
 22 0 13.6666666667 0.833333333333 3 2.5 c 128
 -7.66666666667 4.16666666667 -14.6666666667 5 -18 5 c 0
 -27.3333333333 5 -36.1666666667 4.33333333333 -44.5 3 c 128
 -52.8333333333 1.66666666667 -59.6666666667 0.666666666667 -65 0 c 1
 -17.6666666667 65.3333333333 33 139.333333333 87 222 c 128
 141 304.666666667 191.833333333 386.666666667 239.5 468 c 128
 287.166666667 549.333333333 326.333333333 622.666666667 357 688 c 1
315 867 m 0
 329 867 340.666666667 861.666666667 350 851 c 1
 360.666666667 840.333333333 366 827.666666667 366 813 c 256
 366 798.333333333 360.666666667 786.5 350 777.5 c 128
 339.333333333 768.5 327.333333333 764 314 764 c 0
 300 764 287.666666667 769 277 779 c 128
 266.333333333 789 261 801 261 815 c 0
 261 829.666666667 266.333333333 842 277 852 c 128
 287.666666667 862 300.333333333 867 315 867 c 0
483 867 m 0
 496.333333333 867 508.333333333 861.666666667 519 851 c 128
 529.666666667 840.333333333 535 828 535 814 c 256
 535 800 529.666666667 788.166666667 519 778.5 c 128
 508.333333333 768.833333333 496.333333333 764 483 764 c 0
 469 764 457 769 447 779 c 128
 437 789 432 801 432 815 c 256
 432 829 436.833333333 841.166666667 446.5 851.5 c 128
 456.166666667 861.833333333 468.333333333 867 483 867 c 0
282 301 m 0
 292.666666667 301 309 301.333333333 331 302 c 128
 353 302.666666667 370 303 382 303 c 1
 336 548 l 1
 192 303 l 1
 202 303 217 302.666666667 237 302 c 128
 257 301.333333333 272 301 282 301 c 0
EndSplineSet
EndChar
StartChar: Eacute
Encoding: 201 201 97
Width: 466
Flags: W
LayerCount: 2
Fore
SplineSet
146 671 m 1,0,-1
 317 669 l 1,1,-1
 470 671 l 1,2,3
 459 645 459 645 454 610 c 1,4,5
 422 616 422 616 396 618 c 128,-1,6
 370 620 370 620 337 620 c 2,7,-1
 236 620 l 1,8,9
 225 586 225 586 219.5 561.5 c 128,-1,10
 214 537 214 537 203 478 c 1,11,-1
 182 382 l 1,12,-1
 266 382 l 2,13,14
 325 382 325 382 347 383.5 c 128,-1,15
 369 385 369 385 411 390 c 1,16,17
 400 360 400 360 400 325 c 1,18,19
 360 331 360 331 334 333.5 c 128,-1,20
 308 336 308 336 276 336 c 2,21,-1
 171 335 l 1,22,-1
 150 224 l 2,23,24
 142 185 142 185 135.5 146 c 128,-1,25
 129 107 129 107 121 54 c 1,26,27
 222 54 222 54 276.5 57 c 128,-1,28
 331 60 331 60 378 65 c 1,29,30
 372 48 372 48 370 40 c 128,-1,31
 368 32 368 32 368 19 c 2,32,-1
 368 0 l 1,33,-1
 144 6 l 1,34,35
 76 6 76 6 10 0 c 1,36,37
 48 122 48 122 89 328 c 128,-1,38
 130 534 130 534 146 671 c 1,0,-1
247 737 m 1,39,-1
 388 880 l 2,40,41
 405 896 405 896 417 903.5 c 128,-1,42
 429 911 429 911 444 911 c 256,43,44
 459 911 459 911 470 898 c 128,-1,45
 481 885 481 885 481 870 c 0,46,47
 481 857 481 857 472 849 c 128,-1,48
 463 841 463 841 445 830 c 2,49,-1
 290 737 l 1,50,-1
 247 737 l 1,39,-1
EndSplineSet
EndChar
StartChar: Odieresis
Encoding: 214 214 98
Width: 794
Flags: W
LayerCount: 2
Fore
SplineSet
444 686 m 0,0,1
 579 686 579 686 671.5 610 c 128,-1,2
 764 534 764 534 764 400 c 0,3,4
 764 228 764 228 643.5 107.5 c 128,-1,5
 523 -13 523 -13 352 -13 c 0,6,7
 211 -13 211 -13 121 64.5 c 128,-1,8
 31 142 31 142 31 280 c 0,9,10
 31 320 31 320 50.5 413.5 c 128,-1,11
 70 507 70 507 183 596.5 c 128,-1,12
 296 686 296 686 444 686 c 0,0,1
400 867 m 0,13,14
 420 867 420 867 435.5 850.5 c 128,-1,15
 451 834 451 834 451 813 c 256,16,17
 451 792 451 792 435 778 c 128,-1,18
 419 764 419 764 399 764 c 0,19,20
 378 764 378 764 363 779 c 128,-1,21
 348 794 348 794 348 815 c 0,22,23
 348 837 348 837 363 852 c 128,-1,24
 378 867 378 867 400 867 c 0,13,14
570 867 m 0,25,26
 591 867 591 867 605.5 850.5 c 128,-1,27
 620 834 620 834 620 813 c 256,28,29
 620 792 620 792 604.5 778 c 128,-1,30
 589 764 589 764 568 764 c 256,31,32
 547 764 547 764 532 779 c 128,-1,33
 517 794 517 794 517 815 c 256,34,35
 517 836 517 836 532.5 851.5 c 128,-1,36
 548 867 548 867 570 867 c 0,25,26
438 639 m 0,37,38
 299 639 299 639 216.5 530 c 128,-1,39
 134 421 134 421 134 279 c 0,40,41
 134 170 134 170 192 100.5 c 128,-1,42
 250 31 250 31 357 31 c 0,43,44
 494 31 494 31 578 136 c 128,-1,45
 662 241 662 241 662 381 c 0,46,47
 662 429 662 429 655 469 c 128,-1,48
 648 509 648 509 624.5 550.5 c 128,-1,49
 601 592 601 592 550.5 615.5 c 128,-1,50
 500 639 500 639 438 639 c 0,37,38
EndSplineSet
EndChar
StartChar: aacute
Encoding: 215 215 149
Width: 820
Flags: W
LayerCount: 2
Fore
SplineSet
641 558 m 1,0,-1
 676 525 l 1,1,-1
 445 294 l 1,2,-1
 676 62 l 1,3,-1
 641 28 l 1,4,-1
 410 259 l 1,5,-1
 179 28 l 1,6,-1
 146 62 l 1,7,-1
 378 294 l 1,8,-1
 146 525 l 1,9,-1
 179 558 l 1,10,-1
 410 326 l 1,11,-1
 641 558 l 1,0,-1
EndSplineSet
EndChar
StartChar: Udieresis
Encoding: 220 220 97
Width: 715
Flags: HW
LayerCount: 2
Fore
SplineSet
192 668 m 1
 252 671 l 1
 226.666666667 590.333333333 205.5 512.666666667 188.5 438 c 128
 171.5 363.333333333 159 289.333333333 151 216 c 1
 150 198 l 1
 151 170 l 1
 151 127.333333333 168.5 94.1666666667 203.5 70.5 c 128
 238.5 46.8333333333 278.666666667 35 324 35 c 0
 362 35 397 42.6666666667 429 58 c 128
 461 73.3333333333 491 102.5 519 145.5 c 128
 547 188.5 572.333333333 266.166666667 595 378.5 c 128
 617.666666667 490.833333333 629 588.333333333 629 671 c 1
 673 668 l 1
 715 671 l 1
 689.666666667 571 667.166666667 474.166666667 647.5 380.5 c 128
 627.833333333 286.833333333 608.833333333 215 590.5 165 c 128
 572.166666667 115 540.833333333 72.8333333333 496.5 38.5 c 128
 452.166666667 4.16666666667 389 -13 307 -13 c 0
 237 -13 177.333333333 2 128 32 c 128
 78.6666666667 62 54 110 54 176 c 0
 54 190.666666667 56.3333333333 209.166666667 61 231.5 c 128
 65.6666666667 253.833333333 72.8333333333 286.666666667 82.5 330 c 128
 92.1666666667 373.333333333 102.666666667 424.833333333 114 484.5 c 128
 125.333333333 544.166666667 135 606.333333333 143 671 c 1
 192 668 l 1
385 867 m 0
 399 867 410.666666667 861.666666667 420 851 c 1
 430.666666667 840.333333333 436 828 436 814 c 0
 436 798.666666667 430.666666667 786.5 420 777.5 c 128
 409.333333333 768.5 397.666666667 764 385 764 c 0
 371 764 358.666666667 769 348 779 c 128
 337.333333333 789 332 801 332 815 c 256
 332 829 337.166666667 841.166666667 347.5 851.5 c 128
 357.833333333 861.833333333 370.333333333 867 385 867 c 0
554 867 m 0
 567.333333333 867 579 861.833333333 589 851.5 c 128
 599 841.166666667 604 828.333333333 604 813 c 0
 604 799 599.166666667 787.333333333 589.5 778 c 128
 579.833333333 768.666666667 567.666666667 764 553 764 c 0
 539.666666667 764 527.666666667 769 517 779 c 128
 506.333333333 789 501 801 501 815 c 256
 501 829 506.166666667 841.166666667 516.5 851.5 c 128
 526.833333333 861.833333333 539.333333333 867 554 867 c 0
EndSplineSet
EndChar
StartChar: germandbls
Encoding: 223 223 119
Width: 538
Flags: HW
LayerCount: 2
Fore
SplineSet
36 135 m 1
 48.6666666667 213.666666667 63 300.833333333 79 396.5 c 128
 95 492.166666667 121.333333333 573 158 639 c 128
 194.666666667 705 252.333333333 738 331 738 c 0
 371.666666667 738 407.666666667 728.166666667 439 708.5 c 128
 470.333333333 688.833333333 486 659.666666667 486 621 c 256
 486 582.333333333 462 544 414 506 c 128
 366 468 342 438.666666667 342 418 c 0
 342 396 367.166666667 362.5 417.5 317.5 c 128
 467.833333333 272.5 493 230.666666667 493 192 c 0
 493 138.666666667 471 92.6666666667 427 54 c 128
 383 15.3333333333 333.666666667 -4 279 -4 c 0
 248.333333333 -4 217.333333333 4.66666666667 186 22 c 1
 188.666666667 35.3333333333 192 49.3333333333 196 64 c 128
 200 78.6666666667 205 94 211 110 c 1
 221.666666667 88 234.666666667 71 250 59 c 128
 265.333333333 47 285 41 309 41 c 0
 338.333333333 41 363.166666667 52.5 383.5 75.5 c 128
 403.833333333 98.5 414 125.333333333 414 156 c 0
 414 191.333333333 388.833333333 229.833333333 338.5 271.5 c 128
 288.166666667 313.166666667 263 350.666666667 263 384 c 0
 263 414.666666667 289.666666667 451.333333333 343 494 c 128
 396.333333333 536.666666667 423 577.666666667 423 617 c 0
 423 642.333333333 414.166666667 662.833333333 396.5 678.5 c 128
 378.833333333 694.166666667 357 702 331 702 c 0
 275 702 238.833333333 680.666666667 222.5 638 c 128
 206.166666667 595.333333333 190.333333333 528 175 436 c 1
 134 206 l 2
 129.333333333 181.333333333 123.5 147 116.5 103 c 128
 109.5 59 104.666666667 24.6666666667 102 0 c 1
 86 2 70 4.33333333333 54 7 c 1
 44.6666666667 7 36.3333333333 6.16666666667 29 4.5 c 128
 21.6666666667 2.83333333333 14 1.33333333333 6 0 c 1
 36 135 l 1
EndSplineSet
EndChar
StartChar: agrave
Encoding: 224 224 98
Width: 462
Flags: HW
LayerCount: 2
Fore
SplineSet
116 -10 m 0
 81.3333333333 -10 52 0.333333333333 28 21 c 128
 4 41.6666666667 -8 70 -8 106 c 0
 -8 165.333333333 18 206.333333333 70 229 c 1
 119.333333333 241.666666667 170.5 255.166666667 223.5 269.5 c 128
 276.5 283.833333333 306 312.333333333 312 355 c 1
 312 382.333333333 304.833333333 404.166666667 290.5 420.5 c 128
 276.166666667 436.833333333 255 445 227 445 c 0
 198.333333333 445 173.166666667 438.5 151.5 425.5 c 128
 129.833333333 412.5 111.666666667 393.333333333 97 368 c 1
 80 373 l 1
 85.3333333333 387.666666667 88 402.666666667 88 418 c 1
 86 444 l 1
 122.666666667 460.666666667 150.5 471.5 169.5 476.5 c 128
 188.5 481.5 207.666666667 484 227 484 c 0
 270.333333333 484 308 474.666666667 340 456 c 128
 372 437.333333333 388 408 388 368 c 0
 388 352.666666667 386.5 334.333333333 383.5 313 c 128
 380.5 291.666666667 378.666666667 277.333333333 378 270 c 1
 344 103 l 2
 341 85 341 85 338 67 c 1
 338 60.3333333333 341 53.3333333333 347 46 c 128
 353 38.6666666667 359.333333333 35 366 35 c 0
 376 35 387 37.6666666667 399 43 c 1
 412 17 l 1
 386.666666667 1 358 -7 326 -7 c 0
 304.666666667 -7 288.833333333 -0.833333333333 278.5 11.5 c 128
 268.166666667 23.8333333333 261.333333333 41.6666666667 258 65 c 1
 235.333333333 39.6666666667 213.333333333 20.8333333333 192 8.5 c 128
 170.666666667 -3.83333333333 145.333333333 -10 116 -10 c 0
301 536 m 1
 173 631 l 1
 165.666666667 635 159.166666667 641.166666667 153.5 649.5 c 128
 147.833333333 657.833333333 145 666 145 674 c 256
 145 682 149.166666667 689.833333333 157.5 697.5 c 128
 165.833333333 705.166666667 174 709 182 709 c 0
 189.333333333 709 196.166666667 707 202.5 703 c 128
 208.833333333 699 215.333333333 693.333333333 222 686 c 2
 341 536 l 1
 301 536 l 1
74 115 m 0
 74 93.6666666667 80.8333333333 76.1666666667 94.5 62.5 c 128
 108.166666667 48.8333333333 125.666666667 42 147 42 c 0
 173.666666667 42 199.5 51.8333333333 224.5 71.5 c 128
 249.5 91.1666666667 264.666666667 114 270 140 c 2
 290 249 l 1
 216.666666667 233.666666667 162.333333333 218.833333333 127 204.5 c 128
 91.6666666667 190.166666667 74 160.333333333 74 115 c 0
EndSplineSet
EndChar
StartChar: acircumflex
Encoding: 226 226 101
Width: 462
Flags: W
LayerCount: 2
Fore
SplineSet
116 -10 m 0,0,1
 64 -10 64 -10 28 21 c 128,-1,2
 -8 52 -8 52 -8 106 c 0,3,4
 -8 195 -8 195 70 229 c 1,5,6
 144 248 144 248 223.5 269.5 c 128,-1,7
 303 291 303 291 312 355 c 1,8,9
 312 396 312 396 290.5 420.5 c 128,-1,10
 269 445 269 445 227 445 c 0,11,12
 184 445 184 445 151.5 425.5 c 128,-1,13
 119 406 119 406 97 368 c 1,14,-1
 80 373 l 1,15,16
 88 395 88 395 88 418 c 1,17,-1
 86 444 l 1,18,19
 141 469 141 469 169.5 476.5 c 128,-1,20
 198 484 198 484 227 484 c 0,21,22
 292 484 292 484 340 456 c 128,-1,23
 388 428 388 428 388 368 c 0,24,25
 388 345 388 345 383.5 313 c 128,-1,26
 379 281 379 281 378 270 c 1,27,-1
 344 103 l 2,28,29
 341 85 341 85 338 67 c 1,30,31
 338 57 338 57 347 46 c 128,-1,32
 356 35 356 35 366 35 c 0,33,34
 381 35 381 35 399 43 c 1,35,-1
 412 17 l 1,36,37
 374 -7 374 -7 326 -7 c 0,38,39
 294 -7 294 -7 278.5 11.5 c 128,-1,40
 263 30 263 30 258 65 c 1,41,42
 224 27 224 27 192 8.5 c 128,-1,43
 160 -10 160 -10 116 -10 c 0,0,1
356 536 m 1,44,-1
 276 639 l 1,45,-1
 153 536 l 1,46,-1
 107 536 l 1,47,-1
 255 704 l 1,48,-1
 311 704 l 1,49,-1
 390 536 l 1,50,-1
 356 536 l 1,44,-1
74 115 m 0,51,52
 74 83 74 83 94.5 62.5 c 128,-1,53
 115 42 115 42 147 42 c 0,54,55
 187 42 187 42 224.5 71.5 c 128,-1,56
 262 101 262 101 270 140 c 2,57,-1
 290 249 l 1,58,59
 180 226 180 226 127 204.5 c 128,-1,60
 74 183 74 183 74 115 c 0,51,52
EndSplineSet
EndChar
StartChar: adieresis
Encoding: 228 228 102
Width: 462
Flags: W
LayerCount: 2
Fore
SplineSet
116 -10 m 0,0,1
 64 -10 64 -10 28 21 c 128,-1,2
 -8 52 -8 52 -8 106 c 0,3,4
 -8 195 -8 195 70 229 c 1,5,6
 144 248 144 248 223.5 269.5 c 128,-1,7
 303 291 303 291 312 355 c 1,8,9
 312 396 312 396 290.5 420.5 c 128,-1,10
 269 445 269 445 227 445 c 0,11,12
 184 445 184 445 151.5 425.5 c 128,-1,13
 119 406 119 406 97 368 c 1,14,-1
 80 373 l 1,15,16
 88 395 88 395 88 418 c 1,17,-1
 86 444 l 1,18,19
 141 469 141 469 169.5 476.5 c 128,-1,20
 198 484 198 484 227 484 c 0,21,22
 292 484 292 484 340 456 c 128,-1,23
 388 428 388 428 388 368 c 0,24,25
 388 345 388 345 383.5 313 c 128,-1,26
 379 281 379 281 378 270 c 1,27,-1
 344 103 l 2,28,29
 341 85 341 85 338 67 c 1,30,31
 338 57 338 57 347 46 c 128,-1,32
 356 35 356 35 366 35 c 0,33,34
 381 35 381 35 399 43 c 1,35,-1
 412 17 l 1,36,37
 374 -7 374 -7 326 -7 c 0,38,39
 294 -7 294 -7 278.5 11.5 c 128,-1,40
 263 30 263 30 258 65 c 1,41,42
 224 27 224 27 192 8.5 c 128,-1,43
 160 -10 160 -10 116 -10 c 0,0,1
186 665 m 0,44,45
 208 665 208 665 222.5 650.5 c 128,-1,46
 237 636 237 636 237 611 c 0,47,48
 237 594 237 594 223 578 c 128,-1,49
 209 562 209 562 186 562 c 0,50,51
 165 562 165 562 150 577 c 128,-1,52
 135 592 135 592 135 614 c 0,53,54
 135 635 135 635 150 650 c 128,-1,55
 165 665 165 665 186 665 c 0,44,45
356 665 m 0,56,57
 377 665 377 665 391.5 650.5 c 128,-1,58
 406 636 406 636 406 611 c 0,59,60
 406 594 406 594 392 578 c 128,-1,61
 378 562 378 562 356 562 c 256,62,63
 334 562 334 562 318.5 577.5 c 128,-1,64
 303 593 303 593 303 614 c 0,65,66
 303 636 303 636 318.5 650.5 c 128,-1,67
 334 665 334 665 356 665 c 0,56,57
74 115 m 0,68,69
 74 83 74 83 94.5 62.5 c 128,-1,70
 115 42 115 42 147 42 c 0,71,72
 187 42 187 42 224.5 71.5 c 128,-1,73
 262 101 262 101 270 140 c 2,74,-1
 290 249 l 1,75,76
 180 226 180 226 127 204.5 c 128,-1,77
 74 183 74 183 74 115 c 0,68,69
EndSplineSet
EndChar
StartChar: ccedilla
Encoding: 231 231 105
Width: 451
Flags: W
LayerCount: 2
Fore
SplineSet
222 -13 m 0,0,1
 130 -13 130 -13 69 46 c 128,-1,2
 8 105 8 105 8 198 c 0,3,4
 8 313 8 313 86 397.5 c 128,-1,5
 164 482 164 482 279 482 c 0,6,7
 322 482 322 482 356.5 473.5 c 128,-1,8
 391 465 391 465 442 444 c 1,9,10
 432 420 432 420 425 400.5 c 128,-1,11
 418 381 418 381 414 361 c 1,12,-1
 399 361 l 1,13,14
 382 399 382 399 352.5 422 c 128,-1,15
 323 445 323 445 283 445 c 0,16,17
 197 445 197 445 149 362.5 c 128,-1,18
 101 280 101 280 101 186 c 0,19,20
 101 122 101 122 133.5 77.5 c 128,-1,21
 166 33 166 33 228 33 c 0,22,23
 271 33 271 33 312 50 c 128,-1,24
 353 67 353 67 376 100 c 1,25,-1
 391 89 l 1,26,27
 376 58 376 58 367 25 c 1,28,29
 332 7 332 7 295.5 -3 c 128,-1,30
 259 -13 259 -13 222 -13 c 0,0,1
85 -147 m 1,31,32
 119 -162 119 -162 143 -169.5 c 128,-1,33
 167 -177 167 -177 192 -177 c 0,34,35
 218 -177 218 -177 236 -168.5 c 128,-1,36
 254 -160 254 -160 254 -137 c 0,37,38
 254 -120 254 -120 244 -106.5 c 128,-1,39
 234 -93 234 -93 218 -91 c 1,40,41
 198 -91 198 -91 182.5 -93 c 128,-1,42
 167 -95 167 -95 157 -96 c 1,43,-1
 188 -1 l 1,44,-1
 221 -1 l 1,45,-1
 203 -60 l 1,46,47
 209 -57 209 -57 217.5 -56 c 128,-1,48
 226 -55 226 -55 236 -55 c 0,49,50
 272 -55 272 -55 297.5 -76.5 c 128,-1,51
 323 -98 323 -98 323 -133 c 0,52,53
 323 -175 323 -175 291 -197 c 128,-1,54
 259 -219 259 -219 215 -219 c 0,55,56
 177 -219 177 -219 150 -211.5 c 128,-1,57
 123 -204 123 -204 85 -184 c 1,58,-1
 85 -147 l 1,31,32
EndSplineSet
EndChar
StartChar: egrave
Encoding: 232 232 105
Width: 478
Flags: HW
LayerCount: 2
Fore
SplineSet
103 169 m 0
 103 129.666666667 115 97.3333333333 139 72 c 128
 163 46.6666666667 194.333333333 34 233 34 c 0
 259 34 285.666666667 41.1666666667 313 55.5 c 128
 340.333333333 69.8333333333 365.333333333 88 388 110 c 1
 399 100 l 1
 395 90 391 79.1666666667 387 67.5 c 128
 383 55.8333333333 380 45.3333333333 378 36 c 1
 352.666666667 20 326.666666667 7.83333333333 300 -0.5 c 128
 273.333333333 -8.83333333333 246 -13 218 -13 c 0
 154.666666667 -13 103.666666667 6 65 44 c 128
 26.3333333333 82 7 133 7 197 c 0
 7 273 32.3333333333 339.5 83 396.5 c 128
 133.666666667 453.5 196.666666667 482 272 482 c 0
 321.333333333 482 362.333333333 464 395 428 c 128
 427.666666667 392 444 349.333333333 444 300 c 1
 440 240 l 1
 274 242 l 1
 107 240 l 1
 104.333333333 219.333333333 103 195.666666667 103 169 c 0
326 535 m 1
 198 630 l 1
 190 634.666666667 183.333333333 640.666666667 178 648 c 128
 172.666666667 655.333333333 170 663.333333333 170 672 c 0
 170 679.333333333 174.166666667 687.166666667 182.5 695.5 c 128
 190.833333333 703.833333333 199 708 207 708 c 0
 214.333333333 708 221.166666667 706 227.5 702 c 128
 233.833333333 698 240.333333333 692.333333333 247 685 c 2
 366 535 l 1
 326 535 l 1
234 280 m 1
 352 280 l 1
 355.333333333 298 357 313.333333333 357 326 c 0
 357 356.666666667 348.833333333 384.166666667 332.5 408.5 c 128
 316.166666667 432.833333333 293 445 263 445 c 0
 223.666666667 445 192 428.833333333 168 396.5 c 128
 144 364.166666667 126.333333333 325.333333333 115 280 c 1
 234 280 l 1
EndSplineSet
EndChar
StartChar: eacute
Encoding: 233 233 104
Width: 478
Flags: HW
LayerCount: 2
Fore
SplineSet
103 169 m 0
 103 129.666666667 115 97.3333333333 139 72 c 128
 163 46.6666666667 194.333333333 34 233 34 c 0
 259 34 285.666666667 41.1666666667 313 55.5 c 128
 340.333333333 69.8333333333 365.333333333 88 388 110 c 1
 399 100 l 1
 395 90 391 79.1666666667 387 67.5 c 128
 383 55.8333333333 380 45.3333333333 378 36 c 1
 352.666666667 20 326.666666667 7.83333333333 300 -0.5 c 128
 273.333333333 -8.83333333333 246 -13 218 -13 c 0
 154.666666667 -13 103.666666667 6 65 44 c 128
 26.3333333333 82 7 133 7 197 c 0
 7 273 32.3333333333 339.5 83 396.5 c 128
 133.666666667 453.5 196.666666667 482 272 482 c 0
 321.333333333 482 362.333333333 464 395 428 c 128
 427.666666667 392 444 349.333333333 444 300 c 0
 444 292.666666667 443.5 283.833333333 442.5 273.5 c 128
 441.5 263.166666667 440.666666667 252 440 240 c 1
 274 242 l 1
 107 240 l 1
 104.333333333 219.333333333 103 195.666666667 103 169 c 0
198 535 m 1
 337 678 l 2
 346.333333333 686.666666667 355.166666667 693.5 363.5 698.5 c 128
 371.833333333 703.5 381.333333333 706 392 706 c 0
 402 706 411.166666667 702.5 419.5 695.5 c 128
 427.833333333 688.5 432 680 432 670 c 0
 432 663.333333333 427.5 655.333333333 418.5 646 c 128
 409.5 636.666666667 401 630 393 626 c 2
 239 535 l 1
 198 535 l 1
234 280 m 1
 352 280 l 1
 355.333333333 298 357 313.333333333 357 326 c 0
 357 356.666666667 348.833333333 384.166666667 332.5 408.5 c 128
 316.166666667 432.833333333 293 445 263 445 c 0
 223.666666667 445 192 428.833333333 168 396.5 c 128
 144 364.166666667 126.333333333 325.333333333 115 280 c 1
 234 280 l 1
EndSplineSet
EndChar
StartChar: ecircumflex
Encoding: 234 234 106
Width: 478
Flags: HW
LayerCount: 2
Fore
SplineSet
103 169 m 0
 103 129.666666667 115 97.3333333333 139 72 c 128
 163 46.6666666667 194.333333333 34 233 34 c 0
 259 34 285.666666667 41.1666666667 313 55.5 c 128
 340.333333333 69.8333333333 365.333333333 88 388 110 c 1
 399 100 l 1
 395 90 391 79.1666666667 387 67.5 c 128
 383 55.8333333333 380 45.3333333333 378 36 c 1
 352.666666667 20 326.666666667 7.83333333333 300 -0.5 c 128
 273.333333333 -8.83333333333 246 -13 218 -13 c 0
 154.666666667 -13 103.666666667 6 65 44 c 128
 26.3333333333 82 7 133 7 197 c 0
 7 273 32.3333333333 339.5 83 396.5 c 128
 133.666666667 453.5 196.666666667 482 272 482 c 0
 321.333333333 482 362.333333333 464 395 428 c 128
 427.666666667 392 444 349.333333333 444 300 c 0
 444 293.333333333 443.333333333 281.833333333 442 265.5 c 128
 440.666666667 249.166666667 440 240.666666667 440 240 c 2
 274 242 l 1
 107 240 l 1
 104.333333333 219.333333333 103 195.666666667 103 169 c 0
380 535 m 1
 301 638 l 1
 177 535 l 1
 132 535 l 1
 280 703 l 1
 336 703 l 1
 415 535 l 1
 380 535 l 1
234 280 m 1
 352 280 l 1
 355.333333333 298 357 313.333333333 357 326 c 0
 357 356.666666667 348.833333333 384.166666667 332.5 408.5 c 128
 316.166666667 432.833333333 293 445 263 445 c 0
 223.666666667 445 192 428.833333333 168 396.5 c 128
 144 364.166666667 126.333333333 325.333333333 115 280 c 1
 234 280 l 1
EndSplineSet
EndChar
StartChar: edieresis
Encoding: 235 235 109
Width: 478
Flags: W
LayerCount: 2
Fore
SplineSet
103 169 m 0,0,1
 103 110 103 110 139 72 c 128,-1,2
 175 34 175 34 233 34 c 0,3,4
 272 34 272 34 313 55.5 c 128,-1,5
 354 77 354 77 388 110 c 1,6,-1
 399 100 l 1,7,8
 393 85 393 85 387 67.5 c 128,-1,9
 381 50 381 50 378 36 c 1,10,11
 340 12 340 12 300 -0.5 c 128,-1,12
 260 -13 260 -13 218 -13 c 0,13,14
 123 -13 123 -13 65 44 c 128,-1,15
 7 101 7 101 7 197 c 0,16,17
 7 311 7 311 83 396.5 c 128,-1,18
 159 482 159 482 272 482 c 0,19,20
 346 482 346 482 395 428 c 128,-1,21
 444 374 444 374 444 300 c 0,22,23
 444 286 444 286 442 266 c 128,-1,24
 440 246 440 246 440 240 c 1,25,-1
 274 242 l 1,26,-1
 107 240 l 1,27,28
 103 209 103 209 103 169 c 0,0,1
211 665 m 0,29,30
 230 665 230 665 247 650 c 1,31,32
 253 643 253 643 258 634 c 128,-1,33
 263 625 263 625 263 613 c 256,34,35
 263 601 263 601 258 592.5 c 128,-1,36
 253 584 253 584 242.5 573 c 128,-1,37
 232 562 232 562 212 562 c 0,38,39
 189 562 189 562 174 577 c 128,-1,40
 159 592 159 592 159 614 c 0,41,42
 159 635 159 635 174 650 c 128,-1,43
 189 665 189 665 211 665 c 0,29,30
380 665 m 0,44,45
 399 665 399 665 416 650 c 1,46,47
 422 642 422 642 427 633 c 128,-1,48
 432 624 432 624 432 611 c 0,49,50
 432 597 432 597 426.5 589 c 128,-1,51
 421 581 421 581 411 571.5 c 128,-1,52
 401 562 401 562 381 562 c 0,53,54
 359 562 359 562 344 577 c 128,-1,55
 329 592 329 592 329 614 c 0,56,57
 329 635 329 635 344 650 c 128,-1,58
 359 665 359 665 380 665 c 0,44,45
234 280 m 1,59,-1
 352 280 l 1,60,61
 357 307 357 307 357 326 c 0,62,63
 357 372 357 372 332.5 408.5 c 128,-1,64
 308 445 308 445 263 445 c 0,65,66
 204 445 204 445 168 396.5 c 128,-1,67
 132 348 132 348 115 280 c 1,68,-1
 234 280 l 1,59,-1
EndSplineSet
EndChar
StartChar: icircumflex
Encoding: 238 238 109
Width: 241
Flags: HW
LayerCount: 2
Fore
SplineSet
94 471 m 1
 102 470.333333333 111 469.333333333 121 468 c 128
 131 466.666666667 139 466 145 466 c 0
 156.333333333 466 165.666666667 466.5 173 467.5 c 128
 180.333333333 468.5 188.666666667 469.666666667 198 471 c 1
 170 382.333333333 148.333333333 300 133 224 c 128
 117.666666667 148 110 73.3333333333 110 0 c 1
 103.333333333 0.666666666667 94.3333333333 1.66666666667 83 3 c 128
 71.6666666667 4.33333333333 64 5 60 5 c 0
 54.6666666667 5 49.5 4.83333333333 44.5 4.5 c 128
 39.5 4.16666666667 26.6666666667 2.66666666667 6 0 c 1
 20.6666666667 49.3333333333 34.6666666667 101.666666667 48 157 c 128
 61.3333333333 212.333333333 72.3333333333 267.166666667 81 321.5 c 128
 89.6666666667 375.833333333 94 425.666666667 94 471 c 1
254 536 m 1
 175 639 l 1
 54 536 l 1
 6 536 l 1
 155 704 l 1
 210 704 l 1
 290 536 l 1
 254 536 l 1
EndSplineSet
EndChar
StartChar: idieresis
Encoding: 239 239 110
Width: 241
Flags: HW
LayerCount: 2
Fore
SplineSet
94 471 m 1
 102 470.333333333 111 469.333333333 121 468 c 128
 131 466.666666667 139 466 145 466 c 0
 156.333333333 466 165.666666667 466.5 173 467.5 c 128
 180.333333333 468.5 188.666666667 469.666666667 198 471 c 1
 170 382.333333333 148.333333333 300 133 224 c 128
 117.666666667 148 110 73.3333333333 110 0 c 1
 102 0.666666666667 93.1666666667 1.66666666667 83.5 3 c 128
 73.8333333333 4.33333333333 66 5 60 5 c 0
 47.3333333333 5 37.3333333333 4.5 30 3.5 c 128
 22.6666666667 2.5 14.6666666667 1.33333333333 6 0 c 1
 20.6666666667 49.3333333333 34.6666666667 101.666666667 48 157 c 128
 61.3333333333 212.333333333 72.3333333333 267.166666667 81 321.5 c 128
 89.6666666667 375.833333333 94 425.666666667 94 471 c 1
85 665 m 0
 98.3333333333 665 110.666666667 660 122 650 c 1
 125.333333333 644.666666667 128.666666667 638.666666667 132 632 c 128
 135.333333333 625.333333333 137 618.333333333 137 611 c 0
 137 602.333333333 135.166666667 595.166666667 131.5 589.5 c 128
 127.833333333 583.833333333 122.833333333 577.833333333 116.5 571.5 c 128
 110.166666667 565.166666667 99.6666666667 562 85 562 c 0
 71 562 58.6666666667 567 48 577 c 128
 37.3333333333 587 32 599.333333333 32 614 c 0
 32 628 37.3333333333 640 48 650 c 128
 58.6666666667 660 71 665 85 665 c 0
254 665 m 0
 266.666666667 665 278.666666667 660 290 650 c 1
 294 645.333333333 297.666666667 640 301 634 c 128
 304.333333333 628 306 621 306 613 c 256
 306 605 304.333333333 598.166666667 301 592.5 c 128
 297.666666667 586.833333333 292.5 580.333333333 285.5 573 c 128
 278.5 565.666666667 268 562 254 562 c 256
 240 562 228.166666667 567.166666667 218.5 577.5 c 128
 208.833333333 587.833333333 204 600 204 614 c 256
 204 628 208.666666667 640 218 650 c 128
 227.333333333 660 239.333333333 665 254 665 c 0
EndSplineSet
EndChar
StartChar: ocircumflex
Encoding: 244 244 115
Width: 548
Flags: W
LayerCount: 2
Fore
SplineSet
267 482 m 0,0,1
 371 482 371 482 436.5 430 c 128,-1,2
 502 378 502 378 502 276 c 0,3,4
 502 162 502 162 426 75.5 c 128,-1,5
 350 -11 350 -11 240 -11 c 0,6,7
 135 -11 135 -11 71 41.5 c 128,-1,8
 7 94 7 94 7 198 c 0,9,10
 7 231 7 231 12 251 c 128,-1,11
 17 271 17 271 38 328 c 128,-1,12
 59 385 59 385 123 433.5 c 128,-1,13
 187 482 187 482 267 482 c 0,0,1
415 536 m 1,14,-1
 336 639 l 1,15,-1
 215 536 l 1,16,-1
 167 536 l 1,17,-1
 315 704 l 1,18,-1
 372 704 l 1,19,-1
 451 536 l 1,20,-1
 415 536 l 1,14,-1
97 169 m 0,21,22
 97 110 97 110 128.5 68 c 128,-1,23
 160 26 160 26 218 26 c 0,24,25
 312 26 312 26 361 114 c 128,-1,26
 410 202 410 202 410 304 c 0,27,28
 410 364 410 364 377 405 c 128,-1,29
 344 446 344 446 285 446 c 0,30,31
 221 446 221 446 177.5 396 c 128,-1,32
 134 346 134 346 115.5 284 c 128,-1,33
 97 222 97 222 97 169 c 0,21,22
EndSplineSet
EndChar
StartChar: odieresis
Encoding: 246 246 114
Width: 548
Flags: HW
LayerCount: 2
Fore
SplineSet
267 482 m 0
 336.333333333 482 392.833333333 464.666666667 436.5 430 c 128
 480.166666667 395.333333333 502 344 502 276 c 0
 502 200 476.666666667 133.166666667 426 75.5 c 128
 375.333333333 17.8333333333 313.333333333 -11 240 -11 c 0
 170.666666667 -11 114.5 6.66666666667 71.5 42 c 128
 28.5 77.3333333333 7 129.333333333 7 198 c 0
 7 211.333333333 9.33333333333 229 14 251 c 128
 18.6666666667 273 27.3333333333 300.833333333 40 334.5 c 128
 52.6666666667 368.166666667 80.3333333333 401.166666667 123 433.5 c 128
 165.666666667 465.833333333 213.666666667 482 267 482 c 0
246 665 m 0
 258.666666667 665 271 660 283 650 c 1
 285 647.333333333 288 642.833333333 292 636.5 c 128
 296 630.166666667 298 622.333333333 298 613 c 0
 298 601.666666667 296 593.166666667 292 587.5 c 128
 288 581.833333333 282.666666667 576.166666667 276 570.5 c 128
 269.333333333 564.833333333 259.666666667 562 247 562 c 0
 232.333333333 562 219.833333333 567.166666667 209.5 577.5 c 128
 199.166666667 587.833333333 194 600 194 614 c 1
 195.333333333 628.666666667 200.833333333 640.833333333 210.5 650.5 c 128
 220.166666667 660.166666667 232 665 246 665 c 0
415 665 m 0
 428.333333333 665 440.666666667 660 452 650 c 1
 456 645.333333333 459.666666667 640 463 634 c 128
 466.333333333 628 468 621 468 613 c 0
 468 605.666666667 466.666666667 598.666666667 464 592 c 1
 460 586.666666667 454.5 580.333333333 447.5 573 c 128
 440.5 565.666666667 430 562 416 562 c 256
 402 562 389.833333333 567.166666667 379.5 577.5 c 128
 369.166666667 587.833333333 364 600 364 614 c 256
 364 628 369 640 379 650 c 128
 389 660 401 665 415 665 c 0
97 169 m 0
 97 129.666666667 107.5 96 128.5 68 c 128
 149.5 40 179.333333333 26 218 26 c 0
 280.666666667 26 328.333333333 55.3333333333 361 114 c 128
 393.666666667 172.666666667 410 236 410 304 c 0
 410 344 399 377.666666667 377 405 c 128
 355 432.333333333 324.333333333 446 285 446 c 0
 242.333333333 446 206.5 429.333333333 177.5 396 c 128
 148.5 362.666666667 127.833333333 325.333333333 115.5 284 c 128
 103.166666667 242.666666667 97 204.333333333 97 169 c 0
EndSplineSet
EndChar
StartChar: divide
Encoding: 247 247 141
Width: 820
Flags: W
LayerCount: 2
Fore
SplineSet
462 464 m 0,0,1
 462 443 462 443 446 427 c 128,-1,2
 430 411 430 411 408 411 c 0,3,4
 387 411 387 411 372.5 426.5 c 128,-1,5
 358 442 358 442 358 463 c 256,6,7
 358 484 358 484 373 499 c 128,-1,8
 388 514 388 514 409 514 c 1,9,-1
 428 511 l 1,10,11
 443 504 443 504 452.5 491 c 128,-1,12
 462 478 462 478 462 464 c 0,0,1
698 270 m 1,13,-1
 122 270 l 1,14,-1
 122 317 l 1,15,-1
 698 317 l 1,16,-1
 698 270 l 1,13,-1
460 123 m 0,17,18
 460 102 460 102 446 87 c 128,-1,19
 432 72 432 72 410 72 c 0,20,21
 390 72 390 72 374 87 c 128,-1,22
 358 102 358 102 358 123 c 256,23,24
 358 144 358 144 373.5 159.5 c 128,-1,25
 389 175 389 175 409 175 c 0,26,27
 414 175 414 175 418 174 c 128,-1,28
 422 173 422 173 435 169 c 128,-1,29
 448 165 448 165 454 155 c 128,-1,30
 460 145 460 145 460 123 c 0,17,18
EndSplineSet
EndChar
StartChar: ugrave
Encoding: 249 249 117
Width: 552
Flags: W
LayerCount: 2
Fore
SplineSet
423 0 m 1,0,-1
 380 4 l 1,1,2
 368 4 368 4 353.5 2.5 c 128,-1,3
 339 1 339 1 331 0 c 1,4,5
 335 10 335 10 342.5 36 c 128,-1,6
 350 62 350 62 357 94 c 1,7,8
 318 42 318 42 272.5 15.5 c 128,-1,9
 227 -11 227 -11 167 -11 c 0,10,11
 110 -11 110 -11 70.5 22 c 128,-1,12
 31 55 31 55 31 112 c 0,13,14
 31 172 31 172 51.5 276 c 128,-1,15
 72 380 72 380 90 471 c 1,16,17
 101 469 101 469 117 467 c 128,-1,18
 133 465 133 465 137 465 c 0,19,20
 161 468 161 468 185 471 c 1,21,22
 149 336 149 336 135 272.5 c 128,-1,23
 121 209 121 209 121 134 c 0,24,25
 121 98 121 98 137 74.5 c 128,-1,26
 153 51 153 51 187 47 c 1,27,28
 324 47 324 47 358.5 154 c 128,-1,29
 393 261 393 261 414 471 c 1,30,31
 426 469 426 469 440 467.5 c 128,-1,32
 454 466 454 466 463 466 c 0,33,34
 479 466 479 466 489 467.5 c 128,-1,35
 499 469 499 469 511 471 c 1,36,37
 478 368 478 368 450.5 230.5 c 128,-1,38
 423 93 423 93 423 0 c 1,0,-1
356 536 m 1,39,-1
 228 631 l 1,40,41
 199 646 199 646 199 674 c 0,42,43
 199 686 199 686 211.5 697.5 c 128,-1,44
 224 709 224 709 236 709 c 0,45,46
 247 709 247 709 257 703 c 128,-1,47
 267 697 267 697 277 686 c 1,48,-1
 394 536 l 1,49,-1
 356 536 l 1,39,-1
EndSplineSet
EndChar
StartChar: ucircumflex
Encoding: 251 251 116
Width: 552
Flags: HW
LayerCount: 2
Fore
SplineSet
423 0 m 1
 380 4 l 1
 372 4 363.166666667 3.5 353.5 2.5 c 128
 343.833333333 1.5 336.333333333 0.666666666667 331 0 c 1
 333.666666667 6.66666666667 337.5 18.6666666667 342.5 36 c 128
 347.5 53.3333333333 352.333333333 72.6666666667 357 94 c 1
 331 59.3333333333 302.833333333 33.1666666667 272.5 15.5 c 128
 242.166666667 -2.16666666667 207 -11 167 -11 c 0
 129 -11 96.8333333333 0 70.5 22 c 128
 44.1666666667 44 31 74 31 112 c 0
 31 152 37.8333333333 206.666666667 51.5 276 c 128
 65.1666666667 345.333333333 78 410.333333333 90 471 c 1
 97.3333333333 469.666666667 106.333333333 468.333333333 117 467 c 128
 127.666666667 465.666666667 134.333333333 465 137 465 c 0
 161 468 161 468 185 471 c 1
 161 381 144.333333333 314.833333333 135 272.5 c 128
 125.666666667 230.166666667 121 184 121 134 c 0
 121 110 126.333333333 90.1666666667 137 74.5 c 128
 147.666666667 58.8333333333 164.333333333 49.6666666667 187 47 c 1
 278.333333333 47 335.5 82.6666666667 358.5 154 c 128
 381.5 225.333333333 400 331 414 471 c 1
 422 469.666666667 430.666666667 468.5 440 467.5 c 128
 449.333333333 466.5 457 466 463 466 c 0
 468.333333333 466 476 466.666666667 486 468 c 128
 496 469.333333333 504.333333333 470.333333333 511 471 c 1
 489 402.333333333 468.833333333 322.166666667 450.5 230.5 c 128
 432.166666667 138.833333333 423 62 423 0 c 1
409 536 m 1
 330 639 l 1
 209 536 l 1
 162 536 l 1
 311 704 l 1
 366 704 l 1
 445 536 l 1
 409 536 l 1
EndSplineSet
EndChar
StartChar: udieresis
Encoding: 252 252 119
Width: 552
Flags: W
LayerCount: 2
Fore
SplineSet
423 0 m 1,0,-1
 380 4 l 1,1,2
 368 4 368 4 353.5 2.5 c 128,-1,3
 339 1 339 1 331 0 c 1,4,5
 335 10 335 10 342.5 36 c 128,-1,6
 350 62 350 62 357 94 c 1,7,8
 318 42 318 42 272.5 15.5 c 128,-1,9
 227 -11 227 -11 167 -11 c 0,10,11
 110 -11 110 -11 70.5 22 c 128,-1,12
 31 55 31 55 31 112 c 0,13,14
 31 172 31 172 51.5 276 c 128,-1,15
 72 380 72 380 90 471 c 1,16,17
 101 469 101 469 117 467 c 128,-1,18
 133 465 133 465 137 465 c 0,19,20
 161 468 161 468 185 471 c 1,21,22
 149 336 149 336 135 272.5 c 128,-1,23
 121 209 121 209 121 134 c 0,24,25
 121 98 121 98 137 74.5 c 128,-1,26
 153 51 153 51 187 47 c 1,27,28
 324 47 324 47 358.5 154 c 128,-1,29
 393 261 393 261 414 471 c 1,30,31
 426 469 426 469 440 467.5 c 128,-1,32
 454 466 454 466 463 466 c 0,33,34
 471 466 471 466 486 468 c 128,-1,35
 501 470 501 470 511 471 c 1,36,37
 478 368 478 368 450.5 230.5 c 128,-1,38
 423 93 423 93 423 0 c 1,0,-1
240 665 m 0,39,40
 259 665 259 665 277 650 c 1,41,42
 282 642 282 642 286.5 633 c 128,-1,43
 291 624 291 624 291 611 c 0,44,45
 291 594 291 594 283 581 c 1,46,47
 280 579 280 579 270 570.5 c 128,-1,48
 260 562 260 562 240 562 c 0,49,50
 219 562 219 562 203.5 577.5 c 128,-1,51
 188 593 188 593 188 614 c 0,52,53
 188 636 188 636 203.5 650.5 c 128,-1,54
 219 665 219 665 240 665 c 0,39,40
409 665 m 0,55,56
 429 665 429 665 446 650 c 1,57,58
 451 642 451 642 455.5 633 c 128,-1,59
 460 624 460 624 460 611 c 0,60,61
 460 594 460 594 452 581 c 1,62,63
 449 579 449 579 440 570.5 c 128,-1,64
 431 562 431 562 409 562 c 0,65,66
 388 562 388 562 372.5 577.5 c 128,-1,67
 357 593 357 593 357 614 c 0,68,69
 357 636 357 636 372.5 650.5 c 128,-1,70
 388 665 388 665 409 665 c 0,55,56
EndSplineSet
EndChar
StartChar: oe
Encoding: 339 339 135
Width: 867
Flags: W
LayerCount: 2
Fore
SplineSet
489 190 m 0,0,1
 489 123 489 123 523 78.5 c 128,-1,2
 557 34 557 34 622 34 c 0,3,4
 662 34 662 34 702 55 c 128,-1,5
 742 76 742 76 778 110 c 1,6,-1
 789 100 l 1,7,8
 775 71 775 71 766 36 c 1,9,10
 728 12 728 12 688 -0.5 c 128,-1,11
 648 -13 648 -13 607 -13 c 0,12,13
 551 -13 551 -13 503 9 c 128,-1,14
 455 31 455 31 427 77 c 1,15,16
 349 -12 349 -12 223 -12 c 0,17,18
 127 -12 127 -12 67 45 c 128,-1,19
 7 102 7 102 7 198 c 0,20,21
 7 311 7 311 87 397 c 128,-1,22
 167 483 167 483 280 483 c 0,23,24
 398 483 398 483 470 397 c 1,25,26
 514 441 514 441 558 462.5 c 128,-1,27
 602 484 602 484 659 484 c 0,28,29
 736 484 736 484 784 429.5 c 128,-1,30
 832 375 832 375 832 297 c 1,31,-1
 830 240 l 1,32,-1
 661 242 l 1,33,-1
 493 240 l 1,34,35
 489 219 489 219 489 190 c 0,0,1
97 169 m 0,36,37
 97 110 97 110 128.5 68 c 128,-1,38
 160 26 160 26 218 26 c 0,39,40
 312 26 312 26 361 114 c 128,-1,41
 410 202 410 202 410 304 c 0,42,43
 410 364 410 364 377 405 c 128,-1,44
 344 446 344 446 285 446 c 0,45,46
 221 446 221 446 177.5 396 c 128,-1,47
 134 346 134 346 115.5 284 c 128,-1,48
 97 222 97 222 97 169 c 0,36,37
625 280 m 1,49,-1
 743 280 l 1,50,-1
 746 331 l 1,51,52
 746 376 746 376 721.5 411 c 128,-1,53
 697 446 697 446 652 446 c 0,54,55
 594 446 594 446 558 396.5 c 128,-1,56
 522 347 522 347 505 280 c 1,57,-1
 625 280 l 1,49,-1
EndSplineSet
EndChar
StartChar: Otilde
Encoding: 902 902 181
Width: 582
Flags: W
LayerCount: 2
Fore
SplineSet
357 688 m 1,0,-1
 378 682 l 1,1,-1
 402 688 l 1,2,3
 438 462 438 462 450 392 c 128,-1,4
 462 322 462 322 486 214.5 c 128,-1,5
 510 107 510 107 545 0 c 1,6,7
 534 0 534 0 514 2.5 c 128,-1,8
 494 5 494 5 488 5 c 0,9,10
 467 5 467 5 452 3 c 128,-1,11
 437 1 437 1 427 0 c 1,12,13
 427 58 427 58 413.5 134.5 c 128,-1,14
 400 211 400 211 393 252 c 1,15,-1
 281 255 l 1,16,-1
 168 252 l 1,17,-1
 113 154 l 1,18,19
 91 117 91 117 70 78.5 c 128,-1,20
 49 40 49 40 29 0 c 1,21,22
 18 0 18 0 1 2.5 c 128,-1,23
 -16 5 -16 5 -18 5 c 0,24,25
 -33 5 -33 5 -45 3 c 128,-1,26
 -57 1 -57 1 -64 0 c 1,27,28
 48 157 48 157 168 350 c 128,-1,29
 288 543 288 543 357 688 c 1,0,-1
2 536 m 1,30,-1
 143 678 l 2,31,32
 156 691 156 691 169.5 699 c 128,-1,33
 183 707 183 707 197 707 c 0,34,35
 212 707 212 707 224 696 c 128,-1,36
 236 685 236 685 236 669 c 0,37,38
 236 661 236 661 222 646 c 128,-1,39
 208 631 208 631 200 627 c 2,40,-1
 44 536 l 1,41,-1
 2 536 l 1,30,-1
281 300 m 1,42,-1
 382 303 l 1,43,-1
 335 548 l 1,44,-1
 192 303 l 1,45,-1
 281 300 l 1,42,-1
EndSplineSet
EndChar
StartChar: Epsilontonos
Encoding: 904 904 178
Width: 636
Flags: HW
LayerCount: 2
Fore
SplineSet
317 671 m 1
 486 668 l 1
 640 671 l 1
 630 649.666666667 625 629.333333333 625 610 c 1
 605.666666667 613.333333333 586.666666667 615.666666667 568 617 c 128
 549.333333333 618.333333333 529 619 507 619 c 2
 406 619 l 1
 400 601 393.666666667 576.833333333 387 546.5 c 128
 380.333333333 516.166666667 375.333333333 493.333333333 372 478 c 2
 352 382 l 1
 437 382 l 2
 470.333333333 382 495.166666667 382.333333333 511.5 383 c 128
 527.833333333 383.666666667 551.333333333 386 582 390 c 1
 574 370.666666667 570 349 570 325 c 1
 552 327.666666667 531.5 330 508.5 332 c 128
 485.5 334 464.333333333 335 445 335 c 2
 343 335 l 1
 320 224 l 2
 314.666666667 199.333333333 309.5 172.5 304.5 143.5 c 128
 299.5 114.5 294.666666667 84.6666666667 290 54 c 1
 358.666666667 54 410.833333333 54.8333333333 446.5 56.5 c 128
 482.166666667 58.1666666667 515.666666667 61 547 65 c 1
 543.666666667 56.3333333333 541.166666667 48.5 539.5 41.5 c 128
 537.833333333 34.5 537 27.3333333333 537 20 c 2
 538 0 l 1
 314 6 l 1
 268.666666667 6 224 4 180 0 c 1
 204.666666667 79.3333333333 230.833333333 187.666666667 258.5 325 c 128
 286.166666667 462.333333333 305.666666667 577.666666667 317 671 c 1
-28 536 m 1
 113 678 l 2
 121.666666667 686.666666667 130.5 693.666666667 139.5 699 c 128
 148.5 704.333333333 157.666666667 707 167 707 c 0
 177 707 186 703.333333333 194 696 c 128
 202 688.666666667 206 679.666666667 206 669 c 0
 206 663.666666667 201.333333333 656 192 646 c 128
 182.666666667 636 175.333333333 629.666666667 170 627 c 2
 14 536 l 1
 -28 536 l 1
EndSplineSet
EndChar
StartChar: OE
Encoding: 904 904 182
Width: 636
Flags: W
LayerCount: 2
Fore
SplineSet
317 671 m 1,0,-1
 486 668 l 1,1,-1
 640 671 l 1,2,3
 625 639 625 639 625 610 c 1,4,5
 596 615 596 615 568 617 c 128,-1,6
 540 619 540 619 507 619 c 2,7,-1
 406 619 l 1,8,9
 397 592 397 592 387 546.5 c 128,-1,10
 377 501 377 501 372 478 c 2,11,-1
 352 382 l 1,12,-1
 437 382 l 2,13,14
 487 382 487 382 511.5 383 c 128,-1,15
 536 384 536 384 582 390 c 1,16,17
 570 361 570 361 570 325 c 1,18,19
 543 329 543 329 508.5 332 c 128,-1,20
 474 335 474 335 445 335 c 2,21,-1
 343 335 l 1,22,-1
 320 224 l 2,23,24
 312 187 312 187 304.5 143.5 c 128,-1,25
 297 100 297 100 290 54 c 1,26,27
 393 54 393 54 446.5 56.5 c 128,-1,28
 500 59 500 59 547 65 c 1,29,30
 542 52 542 52 539.5 41.5 c 128,-1,31
 537 31 537 31 537 20 c 2,32,-1
 538 0 l 1,33,-1
 314 6 l 1,34,35
 246 6 246 6 180 0 c 1,36,37
 217 119 217 119 258.5 325 c 128,-1,38
 300 531 300 531 317 671 c 1,0,-1
-28 536 m 1,39,-1
 113 678 l 2,40,41
 126 691 126 691 139.5 699 c 128,-1,42
 153 707 153 707 167 707 c 0,43,44
 182 707 182 707 194 696 c 128,-1,45
 206 685 206 685 206 669 c 0,46,47
 206 661 206 661 192 646 c 128,-1,48
 178 631 178 631 170 627 c 2,49,-1
 14 536 l 1,50,-1
 -28 536 l 1,39,-1
EndSplineSet
EndChar
StartChar: Etatonos
Encoding: 905 905 180
Width: 898
Flags: HW
LayerCount: 2
Fore
SplineSet
317 671 m 1
 367 667 l 2
 373.666666667 667 384.5 667.666666667 399.5 669 c 128
 414.5 670.333333333 422.333333333 671 423 671 c 1
 414.333333333 644.333333333 407 618.333333333 401 593 c 128
 395 567.666666667 380 498 356 384 c 1
 536 381 l 1
 731 384 l 1
 753 493 l 1
 761.666666667 529.666666667 768.5 561.833333333 773.5 589.5 c 128
 778.5 617.166666667 781 644.333333333 781 671 c 1
 791 669.666666667 801.166666667 668.5 811.5 667.5 c 128
 821.833333333 666.5 828.333333333 666 831 666 c 0
 843 666 853.166666667 666.5 861.5 667.5 c 128
 869.833333333 668.5 879 669.666666667 889 671 c 1
 857 573 829.666666667 467 807 353 c 128
 784.333333333 239 765.666666667 121.333333333 751 0 c 1
 700 4 l 2
 694 4 685 3.33333333333 673 2 c 128
 661 0.666666666667 651.666666667 0 645 0 c 1
 655.666666667 39.3333333333 664.666666667 73.6666666667 672 103 c 128
 679.333333333 132.333333333 686.666666667 165.666666667 694 203 c 2
 721 334 l 1
 534 335 l 1
 346 334 l 1
 323 224 l 1
 309.666666667 153.333333333 297.666666667 78.6666666667 287 0 c 1
 280.333333333 0.666666666667 271.333333333 1.66666666667 260 3 c 128
 248.666666667 4.33333333333 240.333333333 5 235 5 c 0
 227 5 216.5 4.16666666667 203.5 2.5 c 128
 190.5 0.833333333333 182.666666667 0 180 0 c 1
 206.666666667 88.6666666667 232.5 195.5 257.5 320.5 c 128
 282.5 445.5 302.333333333 562.333333333 317 671 c 1
-28 536 m 1
 113 678 l 2
 121.666666667 686.666666667 130.5 693.666666667 139.5 699 c 128
 148.5 704.333333333 157.666666667 707 167 707 c 0
 177 707 186 703.333333333 194 696 c 128
 202 688.666666667 206 679.666666667 206 669 c 0
 206 663.666666667 201.333333333 656 192 646 c 128
 182.666666667 636 175.333333333 629.666666667 170 627 c 2
 14 536 l 1
 -28 536 l 1
EndSplineSet
EndChar
StartChar: lozenge
Encoding: 905 905 184
Width: 898
Flags: W
LayerCount: 2
Fore
SplineSet
317 671 m 1,0,-1
 367 667 l 2,1,2
 377 667 377 667 399.5 669 c 128,-1,3
 422 671 422 671 423 671 c 1,4,5
 410 631 410 631 401 593 c 128,-1,6
 392 555 392 555 356 384 c 1,7,-1
 536 381 l 1,8,-1
 731 384 l 1,9,-1
 753 493 l 1,10,11
 766 548 766 548 773.5 589.5 c 128,-1,12
 781 631 781 631 781 671 c 1,13,14
 796 669 796 669 811.5 667.5 c 128,-1,15
 827 666 827 666 831 666 c 0,16,17
 849 666 849 666 861.5 667.5 c 128,-1,18
 874 669 874 669 889 671 c 1,19,20
 841 524 841 524 807 353 c 128,-1,21
 773 182 773 182 751 0 c 1,22,-1
 700 4 l 2,23,24
 691 4 691 4 673 2 c 128,-1,25
 655 0 655 0 645 0 c 1,26,27
 661 59 661 59 672 103 c 128,-1,28
 683 147 683 147 694 203 c 2,29,-1
 721 334 l 1,30,-1
 534 335 l 1,31,-1
 346 334 l 1,32,-1
 323 224 l 1,33,34
 303 118 303 118 287 0 c 1,35,36
 277 1 277 1 260 3 c 128,-1,37
 243 5 243 5 235 5 c 0,38,39
 223 5 223 5 203.5 2.5 c 128,-1,40
 184 0 184 0 180 0 c 1,41,42
 220 133 220 133 257.5 320.5 c 128,-1,43
 295 508 295 508 317 671 c 1,0,-1
-28 536 m 1,44,-1
 113 678 l 2,45,46
 126 691 126 691 139.5 699 c 128,-1,47
 153 707 153 707 167 707 c 0,48,49
 182 707 182 707 194 696 c 128,-1,50
 206 685 206 685 206 669 c 0,51,52
 206 661 206 661 192 646 c 128,-1,53
 178 631 178 631 170 627 c 2,54,-1
 14 536 l 1,55,-1
 -28 536 l 1,44,-1
EndSplineSet
EndChar
StartChar: Iotatonos
Encoding: 906 906 181
Width: 447
Flags: HW
LayerCount: 2
Fore
SplineSet
294 0 m 1
 242 4 l 1
 226 4 213.5 3.33333333333 204.5 2 c 128
 195.5 0.666666666667 188.666666667 0 184 0 c 1
 216 119.333333333 244 235.166666667 268 347.5 c 128
 292 459.833333333 310 567.666666667 322 671 c 1
 331.333333333 669.666666667 340 668.666666667 348 668 c 128
 356 667.333333333 365.666666667 667 377 667 c 0
 391.666666667 667 403.333333333 667.666666667 412 669 c 128
 420.666666667 670.333333333 427 671 431 671 c 1
 399.666666667 565.666666667 372.666666667 456.5 350 343.5 c 128
 327.333333333 230.5 308.666666667 116 294 0 c 1
-28 536 m 1
 113 678 l 2
 121.666666667 686.666666667 130.5 693.666666667 139.5 699 c 128
 148.5 704.333333333 157.666666667 707 167 707 c 0
 177 707 186 703.333333333 194 696 c 128
 202 688.666666667 206 679.666666667 206 669 c 0
 206 663.666666667 201.333333333 656 192 646 c 128
 182.666666667 636 175.333333333 629.666666667 170 627 c 2
 14 536 l 1
 -28 536 l 1
EndSplineSet
EndChar
StartChar: ydieresis
Encoding: 906 906 185
Width: 447
Flags: W
LayerCount: 2
Fore
SplineSet
294 0 m 1,0,-1
 242 4 l 1,1,2
 218 4 218 4 204.5 2 c 128,-1,3
 191 0 191 0 184 0 c 1,4,5
 232 179 232 179 268 347.5 c 128,-1,6
 304 516 304 516 322 671 c 1,7,8
 336 669 336 669 348 668 c 128,-1,9
 360 667 360 667 377 667 c 0,10,11
 399 667 399 667 412 669 c 128,-1,12
 425 671 425 671 431 671 c 1,13,14
 384 513 384 513 350 343.5 c 128,-1,15
 316 174 316 174 294 0 c 1,0,-1
-28 536 m 1,16,-1
 113 678 l 2,17,18
 126 691 126 691 139.5 699 c 128,-1,19
 153 707 153 707 167 707 c 0,20,21
 182 707 182 707 194 696 c 128,-1,22
 206 685 206 685 206 669 c 0,23,24
 206 661 206 661 192 646 c 128,-1,25
 178 631 178 631 170 627 c 2,26,-1
 14 536 l 1,27,-1
 -28 536 l 1,16,-1
EndSplineSet
EndChar
StartChar: Ydieresis
Encoding: 908 908 186
Width: 914
Flags: W
LayerCount: 2
Fore
SplineSet
563 686 m 0,0,1
 698 686 698 686 790.5 610 c 128,-1,2
 883 534 883 534 883 400 c 0,3,4
 883 229 883 229 763 108 c 128,-1,5
 643 -13 643 -13 472 -13 c 0,6,7
 332 -13 332 -13 241.5 64 c 128,-1,8
 151 141 151 141 151 279 c 0,9,10
 151 317 151 317 170.5 412 c 128,-1,11
 190 507 190 507 303 596.5 c 128,-1,12
 416 686 416 686 563 686 c 0,0,1
-28 536 m 1,13,-1
 113 678 l 2,14,15
 126 691 126 691 139.5 699 c 128,-1,16
 153 707 153 707 167 707 c 0,17,18
 182 707 182 707 194 696 c 128,-1,19
 206 685 206 685 206 669 c 0,20,21
 206 661 206 661 192 646 c 128,-1,22
 178 631 178 631 170 627 c 2,23,-1
 14 536 l 1,24,-1
 -28 536 l 1,13,-1
556 639 m 0,25,26
 420 639 420 639 336.5 529.5 c 128,-1,27
 253 420 253 420 253 278 c 0,28,29
 253 170 253 170 312 100.5 c 128,-1,30
 371 31 371 31 477 31 c 0,31,32
 613 31 613 31 697.5 136.5 c 128,-1,33
 782 242 782 242 782 381 c 0,34,35
 782 429 782 429 775 468.5 c 128,-1,36
 768 508 768 508 744.5 549.5 c 128,-1,37
 721 591 721 591 669.5 615 c 128,-1,38
 618 639 618 639 556 639 c 0,25,26
EndSplineSet
EndChar
StartChar: fraction
Encoding: 910 910 185
Width: 770
Flags: HW
LayerCount: 2
Fore
SplineSet
474 274 m 1
 446.666666667 344 427.5 392.833333333 416.5 420.5 c 128
 405.5 448.166666667 390 485.833333333 370 533.5 c 128
 350 581.166666667 330.666666667 627 312 671 c 1
 328 669 338.166666667 667.833333333 342.5 667.5 c 128
 346.833333333 667.166666667 355 667 367 667 c 0
 373 667 383.5 667.666666667 398.5 669 c 128
 413.5 670.333333333 421.666666667 671 423 671 c 1
 436.333333333 622.333333333 447.666666667 584.166666667 457 556.5 c 128
 466.333333333 528.833333333 495.666666667 451.333333333 545 324 c 1
 651 486 l 2
 667.666666667 512.666666667 685.833333333 542.666666667 705.5 576 c 128
 725.166666667 609.333333333 742.333333333 641 757 671 c 1
 799 667 l 1
 813 667 823.833333333 667.666666667 831.5 669 c 128
 839.166666667 670.333333333 845.333333333 671 850 671 c 1
 773 572 l 1
 706 478 l 1
 565 279 l 1
 543 170 l 1
 532.333333333 113.333333333 524.333333333 56.6666666667 519 0 c 1
 510.333333333 0.666666666667 500.5 1.66666666667 489.5 3 c 128
 478.5 4.33333333333 470 5 464 5 c 0
 452 5 442.166666667 4.5 434.5 3.5 c 128
 426.833333333 2.5 418.333333333 1.33333333333 409 0 c 1
 423 43.3333333333 435.5 91.1666666667 446.5 143.5 c 128
 457.5 195.833333333 466.666666667 239.333333333 474 274 c 1
-28 536 m 1
 113 678 l 2
 121.666666667 686.666666667 130.5 693.666666667 139.5 699 c 128
 148.5 704.333333333 157.666666667 707 167 707 c 0
 177 707 186 703.333333333 194 696 c 128
 202 688.666666667 206 679.666666667 206 669 c 0
 206 663.666666667 201.333333333 656 192 646 c 128
 182.666666667 636 175.333333333 629.666666667 170 627 c 2
 14 536 l 1
 -28 536 l 1
EndSplineSet
EndChar
StartChar: Omegatonos
Encoding: 911 911 188
Width: 914
Flags: HW
LayerCount: 2
Fore
SplineSet
886 69 m 1
 880 50.3333333333 875.333333333 27.3333333333 872 0 c 1
 854.666666667 0 829 1 795 3 c 128
 761 5 735.333333333 6 718 6 c 0
 701.333333333 6 675.666666667 5 641 3 c 128
 606.333333333 1 580.333333333 0 563 0 c 1
 575 41 l 1
 639.666666667 71 690.166666667 117.5 726.5 180.5 c 128
 762.833333333 243.5 781 312.666666667 781 388 c 256
 781 463.333333333 762.166666667 524 724.5 570 c 128
 686.833333333 616 630.666666667 639 556 639 c 0
 465.333333333 639 392 603 336 531 c 128
 280 459 252 376 252 282 c 0
 252 226.666666667 264.333333333 177.333333333 289 134 c 128
 313.666666667 90.6666666667 350.666666667 59.6666666667 400 41 c 1
 390 0 l 1
 241 6 l 1
 224.333333333 6 196 5.33333333333 156 4 c 128
 116 2.66666666667 94.6666666667 2 92 2 c 1
 96 12 99 21.5 101 30.5 c 128
 103 39.5 105 52.3333333333 107 69 c 1
 133.666666667 65.6666666667 158.166666667 63.6666666667 180.5 63 c 128
 202.833333333 62.3333333333 232.666666667 62 270 62 c 1
 228.666666667 100 198.666666667 134.833333333 180 166.5 c 128
 161.333333333 198.166666667 152 237.666666667 152 285 c 0
 152 397 192.166666667 491.833333333 272.5 569.5 c 128
 352.833333333 647.166666667 449.666666667 686 563 686 c 0
 655 686 731.333333333 660.166666667 792 608.5 c 128
 852.666666667 556.833333333 883 485.666666667 883 395 c 0
 883 327 869.666666667 267.666666667 843 217 c 128
 816.333333333 166.333333333 776 114.666666667 722 62 c 1
 735.333333333 62 761.5 63.1666666667 800.5 65.5 c 128
 839.5 67.8333333333 868 69 886 69 c 1
-28 536 m 1
 113 678 l 2
 121.666666667 686.666666667 130.5 693.666666667 139.5 699 c 128
 148.5 704.333333333 157.666666667 707 167 707 c 0
 177 707 186 703.333333333 194 696 c 128
 202 688.666666667 206 679.666666667 206 669 c 0
 206 663.666666667 201.333333333 656 192 646 c 128
 182.666666667 636 175.333333333 629.666666667 170 627 c 2
 14 536 l 1
 -28 536 l 1
EndSplineSet
EndChar
StartChar: fl
Encoding: 911 911 192
Width: 914
Flags: W
LayerCount: 2
Fore
SplineSet
886 69 m 1,0,1
 877 41 877 41 872 0 c 1,2,3
 846 0 846 0 795 3 c 128,-1,4
 744 6 744 6 718 6 c 0,5,6
 693 6 693 6 641 3 c 128,-1,7
 589 0 589 0 563 0 c 1,8,-1
 575 41 l 1,9,10
 672 86 672 86 726.5 180.5 c 128,-1,11
 781 275 781 275 781 388 c 256,12,13
 781 501 781 501 724.5 570 c 128,-1,14
 668 639 668 639 556 639 c 0,15,16
 420 639 420 639 336 531 c 128,-1,17
 252 423 252 423 252 282 c 0,18,19
 252 199 252 199 289 134 c 128,-1,20
 326 69 326 69 400 41 c 1,21,-1
 390 0 l 1,22,-1
 241 6 l 1,23,24
 216 6 216 6 156 4 c 128,-1,25
 96 2 96 2 92 2 c 1,26,27
 98 17 98 17 101 30.5 c 128,-1,28
 104 44 104 44 107 69 c 1,29,30
 147 64 147 64 180.5 63 c 128,-1,31
 214 62 214 62 270 62 c 1,32,33
 208 119 208 119 180 166.5 c 128,-1,34
 152 214 152 214 152 285 c 0,35,36
 152 453 152 453 272.5 569.5 c 128,-1,37
 393 686 393 686 563 686 c 0,38,39
 701 686 701 686 792 608.5 c 128,-1,40
 883 531 883 531 883 395 c 0,41,42
 883 293 883 293 843 217 c 128,-1,43
 803 141 803 141 722 62 c 1,44,45
 742 62 742 62 800.5 65.5 c 128,-1,46
 859 69 859 69 886 69 c 1,0,1
-28 536 m 1,47,-1
 113 678 l 2,48,49
 126 691 126 691 139.5 699 c 128,-1,50
 153 707 153 707 167 707 c 0,51,52
 182 707 182 707 194 696 c 128,-1,53
 206 685 206 685 206 669 c 0,54,55
 206 661 206 661 192 646 c 128,-1,56
 178 631 178 631 170 627 c 2,57,-1
 14 536 l 1,58,-1
 -28 536 l 1,47,-1
EndSplineSet
EndChar
StartChar: hungarumlaut
Encoding: 912 912 221
Width: 241
Flags: W
LayerCount: 2
Fore
SplineSet
93 472 m 1,0,1
 120 466 120 466 145 466 c 0,2,3
 172 466 172 466 196 472 c 1,4,5
 157 342 157 342 134 224.5 c 128,-1,6
 111 107 111 107 111 0 c 1,7,8
 97 1 97 1 84.5 2.5 c 128,-1,9
 72 4 72 4 56 4 c 1,10,-1
 6 0 l 1,11,12
 33 94 33 94 51 166 c 128,-1,13
 69 238 69 238 81 318.5 c 128,-1,14
 93 399 93 399 93 472 c 1,0,1
61 626 m 0,15,16
 80 626 80 626 93.5 612.5 c 128,-1,17
 107 599 107 599 107 580 c 0,18,19
 107 562 107 562 94 549 c 128,-1,20
 81 536 81 536 61 536 c 0,21,22
 42 536 42 536 30 549 c 128,-1,23
 18 562 18 562 18 580 c 0,24,25
 18 599 18 599 30.5 612.5 c 128,-1,26
 43 626 43 626 61 626 c 0,15,16
170 682 m 2,27,28
 172 697 172 697 183.5 713 c 128,-1,29
 195 729 195 729 209 729 c 256,30,31
 223 729 223 729 233 719 c 128,-1,32
 243 709 243 709 243 695 c 0,33,34
 243 685 243 685 238.5 675.5 c 128,-1,35
 234 666 234 666 232 661 c 2,36,-1
 169 523 l 1,37,-1
 139 523 l 1,38,-1
 170 682 l 2,27,28
288 626 m 256,39,40
 306 626 306 626 319 612 c 128,-1,41
 332 598 332 598 332 580 c 256,42,43
 332 562 332 562 319 549 c 128,-1,44
 306 536 306 536 288 536 c 256,45,46
 270 536 270 536 257 549 c 128,-1,47
 244 562 244 562 244 580 c 256,48,49
 244 598 244 598 257 612 c 128,-1,50
 270 626 270 626 288 626 c 256,39,40
EndSplineSet
EndChar
StartChar: Gamma
Encoding: 915 915 149
Width: 427
Flags: HW
LayerCount: 2
Fore
SplineSet
66 4 m 1
 57.3333333333 4 50.3333333333 3.83333333333 45 3.5 c 128
 39.6666666667 3.16666666667 28 2 10 0 c 1
 41.3333333333 106.666666667 68.3333333333 215.833333333 91 327.5 c 128
 113.666666667 439.166666667 132.333333333 553.666666667 147 671 c 1
 169.666666667 671 200.166666667 670.166666667 238.5 668.5 c 128
 276.833333333 666.833333333 300.333333333 666 309 666 c 0
 337.666666667 666 374.666666667 666.833333333 420 668.5 c 128
 465.333333333 670.166666667 491.333333333 671 498 671 c 1
 490.666666667 651 485.333333333 629.333333333 482 606 c 1
 444 613.333333333 407 617 371 617 c 2
 236 617 l 1
 216 557 193 457.166666667 167 317.5 c 128
 141 177.833333333 124.333333333 72 117 0 c 1
 66 4 l 1
EndSplineSet
EndChar
StartChar: degree
Encoding: 915 915 153
Width: 427
Flags: W
LayerCount: 2
Fore
SplineSet
66 4 m 1,0,1
 53 4 53 4 45 3.5 c 128,-1,2
 37 3 37 3 10 0 c 1,3,4
 57 160 57 160 91 327.5 c 128,-1,5
 125 495 125 495 147 671 c 1,6,7
 181 671 181 671 238.5 668.5 c 128,-1,8
 296 666 296 666 309 666 c 0,9,10
 352 666 352 666 420 668.5 c 128,-1,11
 488 671 488 671 498 671 c 1,12,13
 487 641 487 641 482 606 c 1,14,15
 425 617 425 617 371 617 c 2,16,-1
 236 617 l 1,17,18
 206 527 206 527 167 317.5 c 128,-1,19
 128 108 128 108 117 0 c 1,20,-1
 66 4 l 1,0,1
EndSplineSet
EndChar
StartChar: Delta
Encoding: 916 916 150
Width: 600
Flags: HW
LayerCount: 2
Fore
SplineSet
547 0 m 1
 512.333333333 0 460.666666667 1 392 3 c 128
 323.333333333 5 271.666666667 6 237 6 c 256
 202.333333333 6 150.666666667 5 82 3 c 128
 13.3333333333 1 -37.6666666667 0 -71 0 c 1
 3.66666666667 105.333333333 78.1666666667 215.333333333 152.5 330 c 128
 226.833333333 444.666666667 297 558.333333333 363 671 c 1
 397 671 l 1
 416.333333333 561 438.166666667 452.333333333 462.5 345 c 128
 486.833333333 237.666666667 515 122.666666667 547 0 c 1
240 53 m 2
 264 53 l 2
 326 53 382 55.6666666667 432 61 c 1
 406 208.333333333 375.333333333 361.333333333 340 520 c 1
 303.333333333 471.333333333 269.333333333 423.5 238 376.5 c 128
 206.666666667 329.5 175.833333333 281.166666667 145.5 231.5 c 128
 115.166666667 181.833333333 81.3333333333 125 44 61 c 1
 70 58.3333333333 101 56.3333333333 137 55 c 128
 173 53.6666666667 207.333333333 53 240 53 c 2
EndSplineSet
EndChar
StartChar: cent
Encoding: 916 916 154
Width: 600
Flags: W
LayerCount: 2
Fore
SplineSet
547 0 m 1,0,1
 495 0 495 0 392 3 c 128,-1,2
 289 6 289 6 237 6 c 256,3,4
 185 6 185 6 82 3 c 128,-1,5
 -21 0 -21 0 -71 0 c 1,6,7
 41 158 41 158 152.5 330 c 128,-1,8
 264 502 264 502 363 671 c 1,9,-1
 397 671 l 1,10,11
 426 506 426 506 462.5 345 c 128,-1,12
 499 184 499 184 547 0 c 1,0,1
240 53 m 2,13,-1
 264 53 l 2,14,15
 357 53 357 53 432 61 c 1,16,17
 393 282 393 282 340 520 c 1,18,19
 285 447 285 447 238 376.5 c 128,-1,20
 191 306 191 306 145.5 231.5 c 128,-1,21
 100 157 100 157 44 61 c 1,22,23
 83 57 83 57 137 55 c 128,-1,24
 191 53 191 53 240 53 c 2,13,-1
EndSplineSet
EndChar
StartChar: Epsilon
Encoding: 917 917 160
Width: 466
Flags: HW
LayerCount: 2
Fore
SplineSet
147 671 m 1
 316 668 l 1
 470 671 l 1
 460 649.666666667 455 629.333333333 455 610 c 1
 435.666666667 613.333333333 416.666666667 615.666666667 398 617 c 128
 379.333333333 618.333333333 359 619 337 619 c 2
 236 619 l 1
 230 601 223.666666667 576.833333333 217 546.5 c 128
 210.333333333 516.166666667 205.333333333 493.333333333 202 478 c 2
 182 382 l 1
 267 382 l 2
 300.333333333 382 325.166666667 382.333333333 341.5 383 c 128
 357.833333333 383.666666667 381.333333333 386 412 390 c 1
 404 370.666666667 400 349 400 325 c 1
 382 327.666666667 361.5 330 338.5 332 c 128
 315.5 334 294.333333333 335 275 335 c 2
 173 335 l 1
 150 224 l 2
 144.666666667 199.333333333 139.5 172.5 134.5 143.5 c 128
 129.5 114.5 124.666666667 84.6666666667 120 54 c 1
 188.666666667 54 240.833333333 54.8333333333 276.5 56.5 c 128
 312.166666667 58.1666666667 345.666666667 61 377 65 c 1
 373.666666667 56.3333333333 371.166666667 48.5 369.5 41.5 c 128
 367.833333333 34.5 367 27.3333333333 367 20 c 2
 368 0 l 1
 144 6 l 1
 98.6666666667 6 54 4 10 0 c 1
 34.6666666667 79.3333333333 60.8333333333 187.666666667 88.5 325 c 128
 116.166666667 462.333333333 135.666666667 577.666666667 147 671 c 1
EndSplineSet
EndChar
StartChar: Eta
Encoding: 919 919 162
Width: 728
Flags: HW
LayerCount: 2
Fore
SplineSet
198 668 m 1
 254 671 l 1
 243.333333333 639 234.833333333 610.166666667 228.5 584.5 c 128
 222.166666667 558.833333333 208 492 186 384 c 1
 367 381 l 1
 562 384 l 1
 583 493 l 1
 591.666666667 529.666666667 598.5 562 603.5 590 c 128
 608.5 618 611 645 611 671 c 1
 619 671 629.333333333 670.166666667 642 668.5 c 128
 654.666666667 666.833333333 662.333333333 666 665 666 c 0
 672.333333333 666 682.5 666.833333333 695.5 668.5 c 128
 708.5 670.166666667 716 671 718 671 c 1
 685.333333333 567.666666667 657.333333333 458.5 634 343.5 c 128
 610.666666667 228.5 593.333333333 114 582 0 c 1
 531 4 l 1
 521.666666667 4 514.166666667 3.83333333333 508.5 3.5 c 128
 502.833333333 3.16666666667 491.666666667 2 475 0 c 1
 482.333333333 26.6666666667 491.166666667 61.1666666667 501.5 103.5 c 128
 511.833333333 145.833333333 519.666666667 179.333333333 525 204 c 2
 552 333 l 1
 364 335 l 1
 176 333 l 1
 153 224 l 1
 147 192 141.5 161.666666667 136.5 133 c 128
 131.5 104.333333333 124.666666667 60 116 0 c 1
 65 4 l 1
 56.3333333333 4 49.1666666667 3.83333333333 43.5 3.5 c 128
 37.8333333333 3.16666666667 26.6666666667 2 10 0 c 1
 37.3333333333 89.3333333333 63.6666666667 197.5 89 324.5 c 128
 114.333333333 451.5 133.333333333 567 146 671 c 1
 198 668 l 1
EndSplineSet
EndChar
StartChar: product
Encoding: 919 919 166
Width: 728
Flags: W
LayerCount: 2
Fore
SplineSet
198 668 m 1,0,-1
 254 671 l 1,1,2
 238 623 238 623 228.5 584.5 c 128,-1,3
 219 546 219 546 186 384 c 1,4,-1
 367 381 l 1,5,-1
 562 384 l 1,6,-1
 583 493 l 1,7,8
 596 548 596 548 603.5 590 c 128,-1,9
 611 632 611 632 611 671 c 1,10,11
 623 671 623 671 642 668.5 c 128,-1,12
 661 666 661 666 665 666 c 0,13,14
 676 666 676 666 695.5 668.5 c 128,-1,15
 715 671 715 671 718 671 c 1,16,17
 669 516 669 516 634 343.5 c 128,-1,18
 599 171 599 171 582 0 c 1,19,-1
 531 4 l 1,20,21
 517 4 517 4 508.5 3.5 c 128,-1,22
 500 3 500 3 475 0 c 1,23,24
 486 40 486 40 501.5 103.5 c 128,-1,25
 517 167 517 167 525 204 c 2,26,-1
 552 333 l 1,27,-1
 364 335 l 1,28,-1
 176 333 l 1,29,-1
 153 224 l 1,30,31
 144 176 144 176 136.5 133 c 128,-1,32
 129 90 129 90 116 0 c 1,33,-1
 65 4 l 1,34,35
 52 4 52 4 43.5 3.5 c 128,-1,36
 35 3 35 3 10 0 c 1,37,38
 51 134 51 134 89 324.5 c 128,-1,39
 127 515 127 515 146 671 c 1,40,-1
 198 668 l 1,0,-1
EndSplineSet
EndChar
StartChar: Theta
Encoding: 920 920 151
Width: 794
Flags: HW
LayerCount: 2
Fore
SplineSet
443 686 m 0
 535 686 611.333333333 660.166666667 672 608.5 c 128
 732.666666667 556.833333333 763 485.666666667 763 395 c 0
 763 278.333333333 723.5 181.166666667 644.5 103.5 c 128
 565.5 25.8333333333 468 -13 352 -13 c 0
 258.666666667 -13 181.833333333 12.6666666667 121.5 64 c 128
 61.1666666667 115.333333333 31 187 31 279 c 0
 31 304.333333333 37.5 348.666666667 50.5 412 c 128
 63.5 475.333333333 107.666666667 536.833333333 183 596.5 c 128
 258.333333333 656.166666667 345 686 443 686 c 0
436 639 m 0
 345.333333333 639 272.166666667 602.5 216.5 529.5 c 128
 160.833333333 456.5 133 372.666666667 133 278 c 0
 133 206 152.666666667 146.833333333 192 100.5 c 128
 231.333333333 54.1666666667 286.333333333 31 357 31 c 0
 447.666666667 31 521.166666667 66.1666666667 577.5 136.5 c 128
 633.833333333 206.833333333 662 288.333333333 662 381 c 0
 662 413 659.666666667 442.166666667 655 468.5 c 128
 650.333333333 494.833333333 640.166666667 521.833333333 624.5 549.5 c 128
 608.833333333 577.166666667 583.833333333 599 549.5 615 c 128
 515.166666667 631 477.333333333 639 436 639 c 0
396 303 m 2
 358 302 l 1
 209 295 l 1
 212.333333333 309.666666667 214.833333333 321.5 216.5 330.5 c 128
 218.166666667 339.5 219 350 219 362 c 1
 243 362 276.333333333 360.833333333 319 358.5 c 128
 361.666666667 356.166666667 389 355 401 355 c 2
 438 355 l 1
 589 362 l 1
 585 347.333333333 582.166666667 335.333333333 580.5 326 c 128
 578.833333333 316.666666667 578 306.333333333 578 295 c 1
 558 295 527.666666667 296.333333333 487 299 c 128
 446.333333333 301.666666667 416 303 396 303 c 2
EndSplineSet
EndChar
StartChar: sterling
Encoding: 920 920 155
Width: 794
Flags: W
LayerCount: 2
Fore
SplineSet
443 686 m 0,0,1
 581 686 581 686 672 608.5 c 128,-1,2
 763 531 763 531 763 395 c 0,3,4
 763 220 763 220 644.5 103.5 c 128,-1,5
 526 -13 526 -13 352 -13 c 0,6,7
 212 -13 212 -13 121.5 64 c 128,-1,8
 31 141 31 141 31 279 c 0,9,10
 31 317 31 317 50.5 412 c 128,-1,11
 70 507 70 507 183 596.5 c 128,-1,12
 296 686 296 686 443 686 c 0,0,1
436 639 m 0,13,14
 300 639 300 639 216.5 529.5 c 128,-1,15
 133 420 133 420 133 278 c 0,16,17
 133 170 133 170 192 100.5 c 128,-1,18
 251 31 251 31 357 31 c 0,19,20
 493 31 493 31 577.5 136.5 c 128,-1,21
 662 242 662 242 662 381 c 0,22,23
 662 429 662 429 655 468.5 c 128,-1,24
 648 508 648 508 624.5 549.5 c 128,-1,25
 601 591 601 591 549.5 615 c 128,-1,26
 498 639 498 639 436 639 c 0,13,14
396 303 m 2,27,-1
 358 302 l 1,28,-1
 209 295 l 1,29,30
 214 317 214 317 216.5 330.5 c 128,-1,31
 219 344 219 344 219 362 c 1,32,33
 255 362 255 362 319 358.5 c 128,-1,34
 383 355 383 355 401 355 c 2,35,-1
 438 355 l 1,36,-1
 589 362 l 1,37,38
 583 340 583 340 580.5 326 c 128,-1,39
 578 312 578 312 578 295 c 1,40,41
 548 295 548 295 487 299 c 128,-1,42
 426 303 426 303 396 303 c 2,27,-1
EndSplineSet
EndChar
StartChar: Kappa
Encoding: 922 922 164
Width: 538
Flags: HW
LayerCount: 2
Fore
SplineSet
195 360 m 1
 213 374.666666667 231.166666667 391 249.5 409 c 128
 267.833333333 427 282.333333333 441 293 451 c 1
 377 538 l 2
 397 558 416.333333333 578.5 435 599.5 c 128
 453.666666667 620.5 473.666666667 644.333333333 495 671 c 1
 542 667 l 1
 602 671 l 1
 584 656.333333333 567.833333333 643.166666667 553.5 631.5 c 128
 539.166666667 619.833333333 520 603.333333333 496 582 c 1
 423 514 l 1
 268 366 l 1
 393 178 l 1
 468 63 l 1
 505 13 l 1
 505 0 l 1
 496.333333333 0 485.333333333 0.833333333333 472 2.5 c 128
 458.666666667 4.16666666667 451.333333333 5 450 5 c 0
 437.333333333 5 427.166666667 4.5 419.5 3.5 c 128
 411.833333333 2.5 403.333333333 1.33333333333 394 0 c 1
 368 44.6666666667 343.5 86 320.5 124 c 128
 297.5 162 275 197.666666667 253 231 c 1
 187 327 l 1
 174 327 l 1
 153 224 l 1
 139.666666667 153.333333333 127.666666667 78.6666666667 117 0 c 1
 110.333333333 0.666666666667 101.333333333 1.66666666667 90 3 c 128
 78.6666666667 4.33333333333 70.3333333333 5 65 5 c 0
 57 5 46.5 4.16666666667 33.5 2.5 c 128
 20.5 0.833333333333 12.6666666667 0 10 0 c 1
 42.6666666667 112.666666667 70.3333333333 224 93 334 c 128
 115.666666667 444 133.666666667 556.333333333 147 671 c 1
 197 667 l 2
 203.666666667 667 214.5 667.666666667 229.5 669 c 128
 244.5 670.333333333 252.333333333 671 253 671 c 1
 234.333333333 613 218.666666667 549 206 479 c 1
 182 363 l 1
 195 360 l 1
EndSplineSet
EndChar
StartChar: integral
Encoding: 922 922 168
Width: 538
Flags: W
LayerCount: 2
Fore
SplineSet
195 360 m 1,0,1
 222 382 222 382 249.5 409 c 128,-1,2
 277 436 277 436 293 451 c 1,3,-1
 377 538 l 2,4,5
 407 568 407 568 435 599.5 c 128,-1,6
 463 631 463 631 495 671 c 1,7,-1
 542 667 l 1,8,-1
 602 671 l 1,9,10
 575 649 575 649 553.5 631.5 c 128,-1,11
 532 614 532 614 496 582 c 1,12,-1
 423 514 l 1,13,-1
 268 366 l 1,14,-1
 393 178 l 1,15,-1
 468 63 l 1,16,-1
 505 13 l 1,17,-1
 505 0 l 1,18,19
 492 0 492 0 472 2.5 c 128,-1,20
 452 5 452 5 450 5 c 0,21,22
 431 5 431 5 419.5 3.5 c 128,-1,23
 408 2 408 2 394 0 c 1,24,25
 355 67 355 67 320.5 124 c 128,-1,26
 286 181 286 181 253 231 c 1,27,-1
 187 327 l 1,28,-1
 174 327 l 1,29,-1
 153 224 l 1,30,31
 133 118 133 118 117 0 c 1,32,33
 107 1 107 1 90 3 c 128,-1,34
 73 5 73 5 65 5 c 0,35,36
 53 5 53 5 33.5 2.5 c 128,-1,37
 14 0 14 0 10 0 c 1,38,39
 59 169 59 169 93 334 c 128,-1,40
 127 499 127 499 147 671 c 1,41,-1
 197 667 l 2,42,43
 207 667 207 667 229.5 669 c 128,-1,44
 252 671 252 671 253 671 c 1,45,46
 225 584 225 584 206 479 c 1,47,-1
 182 363 l 1,48,-1
 195 360 l 1,0,1
EndSplineSet
EndChar
StartChar: Lambda
Encoding: 923 923 152
Width: 533
Flags: HW
LayerCount: 2
Fore
SplineSet
491 0 m 1
 435 4 l 1
 382 0 l 1
 370.666666667 92 363.166666667 150.833333333 359.5 176.5 c 128
 355.833333333 202.166666667 348.333333333 245.666666667 337 307 c 1
 295 555 l 1
 152 287 l 2
 124.666666667 236.333333333 99.5 187.166666667 76.5 139.5 c 128
 53.5 91.8333333333 32.6666666667 45.3333333333 14 0 c 1
 -25 4 l 2
 -30.3333333333 4 -39.6666666667 3.33333333333 -53 2 c 128
 -66.3333333333 0.666666666667 -73.6666666667 0 -75 0 c 1
 -39 59.3333333333 -5.33333333333 117 26 173 c 2
 131 359 l 1
 165 417.666666667 194.333333333 470.333333333 219 517 c 128
 243.666666667 563.666666667 269.333333333 615 296 671 c 1
 332 667 l 1
 362 671 l 1
 369.333333333 596.333333333 379.333333333 523 392 451 c 128
 404.666666667 379 418.5 309.166666667 433.5 241.5 c 128
 448.5 173.833333333 467.666666667 93.3333333333 491 0 c 1
EndSplineSet
EndChar
StartChar: section
Encoding: 923 923 156
Width: 533
Flags: W
LayerCount: 2
Fore
SplineSet
491 0 m 1,0,-1
 435 4 l 1,1,-1
 382 0 l 1,2,3
 365 138 365 138 359.5 176.5 c 128,-1,4
 354 215 354 215 337 307 c 1,5,-1
 295 555 l 1,6,-1
 152 287 l 2,7,8
 111 211 111 211 76.5 139.5 c 128,-1,9
 42 68 42 68 14 0 c 1,10,-1
 -25 4 l 2,11,12
 -33 4 -33 4 -53 2 c 128,-1,13
 -73 0 -73 0 -75 0 c 1,14,15
 -21 89 -21 89 26 173 c 2,16,-1
 131 359 l 1,17,18
 182 447 182 447 219 517 c 128,-1,19
 256 587 256 587 296 671 c 1,20,-1
 332 667 l 1,21,-1
 362 671 l 1,22,23
 373 559 373 559 392 451 c 128,-1,24
 411 343 411 343 433.5 241.5 c 128,-1,25
 456 140 456 140 491 0 c 1,0,-1
EndSplineSet
EndChar
StartChar: Mu
Encoding: 924 924 165
Width: 841
Flags: HW
LayerCount: 2
Fore
SplineSet
154 671 m 1
 159.333333333 671 168.5 670.333333333 181.5 669 c 128
 194.5 667.666666667 201.333333333 667 202 667 c 0
 209.333333333 667 217.666666667 667.5 227 668.5 c 128
 236.333333333 669.5 243.666666667 670.333333333 249 671 c 1
 251 659 253.666666667 645.5 257 630.5 c 128
 260.333333333 615.5 263.666666667 601 267 587 c 2
 320 388 l 1
 388 135 l 1
 565 409 l 1
 619 496.333333333 673.333333333 583.666666667 728 671 c 1
 770 667 l 1
 778 667 786.833333333 667.5 796.5 668.5 c 128
 806.166666667 669.5 814 670.333333333 820 671 c 1
 795.333333333 584.333333333 770.5 473.833333333 745.5 339.5 c 128
 720.5 205.166666667 703.666666667 92 695 0 c 1
 686.333333333 0 675.333333333 0.833333333333 662 2.5 c 128
 648.666666667 4.16666666667 641 5 639 5 c 0
 631.666666667 5 621.333333333 4.16666666667 608 2.5 c 128
 594.666666667 0.833333333333 586 0 582 0 c 1
 594 42 605.5 84.3333333333 616.5 127 c 128
 627.5 169.666666667 637.666666667 214.333333333 647 261 c 2
 706 548 l 1
 483 194 l 1
 427 105 l 2
 419.666666667 93.6666666667 411 79 401 61 c 128
 391 43 379.666666667 22.6666666667 367 0 c 1
 334 0 l 1
 309 91 309 91 284 182 c 128
 267.333333333 242.666666667 250.5 303.166666667 233.5 363.5 c 128
 216.5 423.833333333 199.666666667 484.333333333 183 545 c 1
 139 332 l 2
 128.333333333 278.666666667 117.666666667 221.833333333 107 161.5 c 128
 96.3333333333 101.166666667 88 47.3333333333 82 0 c 1
 43 4 l 2
 39 4 32.3333333333 3.33333333333 23 2 c 128
 13.6666666667 0.666666666667 6.33333333333 0 1 0 c 1
 33 106 62.8333333333 218.5 90.5 337.5 c 128
 118.166666667 456.5 139.333333333 567.666666667 154 671 c 1
EndSplineSet
EndChar
StartChar: Nu
Encoding: 925 925 171
Width: 721
Flags: HW
LayerCount: 2
Fore
SplineSet
49 182 m 1
 91 363 l 1
 105.666666667 421 117.666666667 475 127 525 c 128
 136.333333333 575 144 626.666666667 150 680 c 1
 160 676.666666667 166.666666667 675 170 675 c 0
 172 675 175.333333333 675.666666667 180 677 c 128
 184.666666667 678.333333333 188.333333333 679.333333333 191 680 c 1
 229.666666667 618 265.166666667 562.666666667 297.5 514 c 128
 329.833333333 465.333333333 368.833333333 407.833333333 414.5 341.5 c 128
 460.166666667 275.166666667 505 211.333333333 549 150 c 1
 608 450 l 2
 614.666666667 482 621.333333333 518.5 628 559.5 c 128
 634.666666667 600.5 640 637.666666667 644 671 c 1
 679 667 l 1
 686.333333333 667 693.833333333 667.5 701.5 668.5 c 128
 709.166666667 669.5 715.333333333 670.333333333 720 671 c 1
 688.666666667 555 661 441.833333333 637 331.5 c 128
 613 221.166666667 591.666666667 107.666666667 573 -9 c 1
 571.666666667 -8.33333333333 569 -7.5 565 -6.5 c 128
 561 -5.5 557.333333333 -4.66666666667 554 -4 c 1
 546 -5.33333333333 540.333333333 -7 537 -9 c 1
 487 73.6666666667 435.333333333 152.333333333 382 227 c 2
 176 517 l 1
 129 297 l 2
 119 248.333333333 109.5 198.166666667 100.5 146.5 c 128
 91.5 94.8333333333 84 46 78 0 c 1
 72.6666666667 0 65.5 0.833333333333 56.5 2.5 c 128
 47.5 4.16666666667 42 5 40 5 c 0
 33.3333333333 5 26 4.16666666667 18 2.5 c 128
 10 0.833333333333 4.66666666667 0 2 0 c 1
 49 182 l 1
EndSplineSet
EndChar
StartChar: Xi
Encoding: 926 926 153
Width: 595
Flags: HW
LayerCount: 2
Fore
SplineSet
355 665 m 0
 384.333333333 665 427.666666667 666 485 668 c 128
 542.333333333 670 585.333333333 671 614 671 c 1
 606 641.666666667 602 612.666666667 602 584 c 1
 574 584 531.333333333 585 474 587 c 128
 416.666666667 589 373 590 343 590 c 0
 314.333333333 590 271.333333333 589 214 587 c 128
 156.666666667 585 113.666666667 584 85 584 c 1
 91.6666666667 611.333333333 95 640.333333333 95 671 c 1
 123.666666667 671 167 670 225 668 c 128
 283 666 326.333333333 665 355 665 c 0
306 384 m 0
 321.333333333 384 350.5 385.166666667 393.5 387.5 c 128
 436.5 389.833333333 468.666666667 391 490 391 c 1
 481.333333333 370.333333333 477 351 477 333 c 1
 476 321 l 1
 477 303 l 1
 458.333333333 303 430.166666667 304.166666667 392.5 306.5 c 128
 354.833333333 308.833333333 329 310 315 310 c 0
 300.333333333 310 267.833333333 308.833333333 217.5 306.5 c 128
 167.166666667 304.166666667 131 303 109 303 c 1
 117.666666667 334.333333333 122 363.666666667 122 391 c 1
 137.333333333 391 166.5 389.833333333 209.5 387.5 c 128
 252.5 385.166666667 284.666666667 384 306 384 c 0
247 86 m 0
 277 86 322.333333333 87 383 89 c 128
 443.666666667 91 489 92 519 92 c 1
 515 72.6666666667 512.166666667 56.3333333333 510.5 43 c 128
 508.833333333 29.6666666667 508 15.3333333333 508 0 c 1
 478 0 432.666666667 1 372 3 c 128
 311.333333333 5 265.666666667 6 235 6 c 0
 205 6 160 5 100 3 c 128
 40 1 -5.33333333333 0 -36 0 c 1
 -33.3333333333 10 -31 22.6666666667 -29 38 c 128
 -27 53.3333333333 -26 67 -26 79 c 2
 -26 92 l 1
 4 92 49.3333333333 91 110 89 c 128
 170.666666667 87 216.333333333 86 247 86 c 0
EndSplineSet
EndChar
StartChar: bullet
Encoding: 926 926 157
Width: 595
Flags: W
LayerCount: 2
Fore
SplineSet
355 665 m 0,0,1
 399 665 399 665 485 668 c 128,-1,2
 571 671 571 671 614 671 c 1,3,4
 602 627 602 627 602 584 c 1,5,6
 560 584 560 584 474 587 c 128,-1,7
 388 590 388 590 343 590 c 0,8,9
 300 590 300 590 214 587 c 128,-1,10
 128 584 128 584 85 584 c 1,11,12
 95 625 95 625 95 671 c 1,13,14
 138 671 138 671 225 668 c 128,-1,15
 312 665 312 665 355 665 c 0,0,1
306 384 m 0,16,17
 329 384 329 384 393.5 387.5 c 128,-1,18
 458 391 458 391 490 391 c 1,19,20
 477 360 477 360 477 333 c 1,21,-1
 476 321 l 1,22,-1
 477 303 l 1,23,24
 449 303 449 303 392.5 306.5 c 128,-1,25
 336 310 336 310 315 310 c 0,26,27
 293 310 293 310 217.5 306.5 c 128,-1,28
 142 303 142 303 109 303 c 1,29,30
 122 350 122 350 122 391 c 1,31,32
 145 391 145 391 209.5 387.5 c 128,-1,33
 274 384 274 384 306 384 c 0,16,17
247 86 m 0,34,35
 292 86 292 86 383 89 c 128,-1,36
 474 92 474 92 519 92 c 1,37,38
 513 63 513 63 510.5 43 c 128,-1,39
 508 23 508 23 508 0 c 1,40,41
 463 0 463 0 372 3 c 128,-1,42
 281 6 281 6 235 6 c 0,43,44
 190 6 190 6 100 3 c 128,-1,45
 10 0 10 0 -36 0 c 1,46,47
 -32 15 -32 15 -29 38 c 128,-1,48
 -26 61 -26 61 -26 79 c 2,49,-1
 -26 92 l 1,50,51
 19 92 19 92 110 89 c 128,-1,52
 201 86 201 86 247 86 c 0,34,35
EndSplineSet
EndChar
StartChar: Omicron
Encoding: 927 927 172
Width: 794
Flags: HW
LayerCount: 2
Fore
SplineSet
443 686 m 0
 533 686 608.833333333 660.666666667 670.5 610 c 128
 732.166666667 559.333333333 763 489.333333333 763 400 c 0
 763 286 723 188.666666667 643 108 c 128
 563 27.3333333333 466 -13 352 -13 c 0
 258.666666667 -13 181.833333333 12.6666666667 121.5 64 c 128
 61.1666666667 115.333333333 31 187 31 279 c 0
 31 304.333333333 37.5 348.666666667 50.5 412 c 128
 63.5 475.333333333 107.666666667 536.833333333 183 596.5 c 128
 258.333333333 656.166666667 345 686 443 686 c 0
436 639 m 0
 345.333333333 639 272.166666667 602.5 216.5 529.5 c 128
 160.833333333 456.5 133 372.666666667 133 278 c 0
 133 206 152.666666667 146.833333333 192 100.5 c 128
 231.333333333 54.1666666667 286.333333333 31 357 31 c 0
 447.666666667 31 521.166666667 66.1666666667 577.5 136.5 c 128
 633.833333333 206.833333333 662 288.333333333 662 381 c 0
 662 413 659.666666667 442.166666667 655 468.5 c 128
 650.333333333 494.833333333 640.166666667 521.833333333 624.5 549.5 c 128
 608.833333333 577.166666667 583.833333333 599 549.5 615 c 128
 515.166666667 631 477.333333333 639 436 639 c 0
EndSplineSet
EndChar
StartChar: radical
Encoding: 927 927 176
Width: 794
Flags: W
LayerCount: 2
Fore
SplineSet
443 686 m 0,0,1
 578 686 578 686 670.5 610 c 128,-1,2
 763 534 763 534 763 400 c 0,3,4
 763 229 763 229 643 108 c 128,-1,5
 523 -13 523 -13 352 -13 c 0,6,7
 212 -13 212 -13 121.5 64 c 128,-1,8
 31 141 31 141 31 279 c 0,9,10
 31 317 31 317 50.5 412 c 128,-1,11
 70 507 70 507 183 596.5 c 128,-1,12
 296 686 296 686 443 686 c 0,0,1
436 639 m 0,13,14
 300 639 300 639 216.5 529.5 c 128,-1,15
 133 420 133 420 133 278 c 0,16,17
 133 170 133 170 192 100.5 c 128,-1,18
 251 31 251 31 357 31 c 0,19,20
 493 31 493 31 577.5 136.5 c 128,-1,21
 662 242 662 242 662 381 c 0,22,23
 662 429 662 429 655 468.5 c 128,-1,24
 648 508 648 508 624.5 549.5 c 128,-1,25
 601 591 601 591 549.5 615 c 128,-1,26
 498 639 498 639 436 639 c 0,13,14
EndSplineSet
EndChar
StartChar: paragraph
Encoding: 928 928 156
Width: 728
Flags: HW
LayerCount: 2
Fore
SplineSet
421 620 m 1
 239 619 l 1
 215.666666667 537.666666667 193 440.166666667 171 326.5 c 128
 149 212.833333333 131 104 117 0 c 1
 65 4 l 2
 57 4 50.3333333333 3.83333333333 45 3.5 c 128
 39.6666666667 3.16666666667 28 2 10 0 c 1
 40 103.333333333 66.5 211.5 89.5 324.5 c 128
 112.5 437.5 131.666666667 553 147 671 c 1
 177.666666667 671 224.5 669.833333333 287.5 667.5 c 128
 350.5 665.166666667 393.333333333 664 416 664 c 0
 450.666666667 664 503.5 665.166666667 574.5 667.5 c 128
 645.5 669.833333333 693.666666667 671 719 671 c 1
 689 579.666666667 661.5 471.5 636.5 346.5 c 128
 611.5 221.5 593 106 581 0 c 1
 530 4 l 1
 521.333333333 4 514.166666667 3.83333333333 508.5 3.5 c 128
 502.833333333 3.16666666667 491.666666667 2 475 0 c 1
 532.333333333 200 575 406.333333333 603 619 c 1
 421 620 l 1
EndSplineSet
EndChar
StartChar: Rho
Encoding: 929 929 173
Width: 512
Flags: HW
LayerCount: 2
Fore
SplineSet
147 671 m 1
 205 668 l 1
 221.666666667 668 244.166666667 668.833333333 272.5 670.5 c 128
 300.833333333 672.166666667 318 673 324 673 c 0
 377.333333333 673 423.333333333 659.166666667 462 631.5 c 128
 500.666666667 603.833333333 520 564.333333333 520 513 c 0
 520 463.666666667 503.666666667 420.666666667 471 384 c 128
 438.333333333 347.333333333 402.833333333 325.333333333 364.5 318 c 128
 326.166666667 310.666666667 291.166666667 306 259.5 304 c 128
 227.833333333 302 197.333333333 301 168 301 c 1
 158.666666667 251 148.833333333 197.833333333 138.5 141.5 c 128
 128.166666667 85.1666666667 120.666666667 38 116 0 c 1
 104 1.33333333333 93.6666666667 2.5 85 3.5 c 128
 76.3333333333 4.5 69 5 63 5 c 0
 55.6666666667 5 45.6666666667 4.16666666667 33 2.5 c 128
 20.3333333333 0.833333333333 12.6666666667 0 10 0 c 1
 42.6666666667 110.666666667 70.6666666667 222.333333333 94 335 c 128
 117.333333333 447.666666667 135 559.666666667 147 671 c 1
421 504 m 0
 421 544 408 575 382 597 c 128
 356 619 322.333333333 630 281 630 c 1
 240 627 l 1
 213.333333333 531 192 436 176 342 c 1
 248 342 306.833333333 353.166666667 352.5 375.5 c 128
 398.166666667 397.833333333 421 440.666666667 421 504 c 0
EndSplineSet
EndChar
StartChar: florin
Encoding: 929 929 177
Width: 512
Flags: W
LayerCount: 2
Fore
SplineSet
147 671 m 1,0,-1
 205 668 l 1,1,2
 230 668 230 668 272.5 670.5 c 128,-1,3
 315 673 315 673 324 673 c 0,4,5
 404 673 404 673 462 631.5 c 128,-1,6
 520 590 520 590 520 513 c 0,7,8
 520 439 520 439 471 384 c 128,-1,9
 422 329 422 329 364.5 318 c 128,-1,10
 307 307 307 307 259.5 304 c 128,-1,11
 212 301 212 301 168 301 c 1,12,13
 154 226 154 226 138.5 141.5 c 128,-1,14
 123 57 123 57 116 0 c 1,15,16
 98 2 98 2 85 3.5 c 128,-1,17
 72 5 72 5 63 5 c 0,18,19
 52 5 52 5 33 2.5 c 128,-1,20
 14 0 14 0 10 0 c 1,21,22
 59 166 59 166 94 335 c 128,-1,23
 129 504 129 504 147 671 c 1,0,-1
421 504 m 0,24,25
 421 564 421 564 382 597 c 128,-1,26
 343 630 343 630 281 630 c 1,27,-1
 240 627 l 1,28,29
 200 483 200 483 176 342 c 1,30,31
 284 342 284 342 352.5 375.5 c 128,-1,32
 421 409 421 409 421 504 c 0,24,25
EndSplineSet
EndChar
StartChar: Sigma
Encoding: 931 931 155
Width: 514
Flags: HW
LayerCount: 2
Fore
SplineSet
517 602 m 1
 477.666666667 606.666666667 440.5 610.166666667 405.5 612.5 c 128
 370.5 614.833333333 336 616 302 616 c 2
 194 616 l 1
 211.333333333 585.333333333 227.5 556.833333333 242.5 530.5 c 128
 257.5 504.166666667 277 471.333333333 301 432 c 2
 358 340 l 1
 261.333333333 257.333333333 173.666666667 172.666666667 95 86 c 1
 256 86 l 1
 476 92 l 1
 470.666666667 76.6666666667 466.333333333 61.3333333333 463 46 c 128
 459.666666667 30.6666666667 458 15.3333333333 458 0 c 1
 430 0 387 1 329 3 c 128
 271 5 228 6 200 6 c 256
 172 6 131.333333333 5 78 3 c 128
 24.6666666667 1 -16 0 -44 0 c 1
 -36 35 l 1
 64 129 162 226 258 326 c 1
 227.333333333 382 204.333333333 423.333333333 189 450 c 128
 173.666666667 476.666666667 154 507.333333333 130 542 c 1
 65 641 l 1
 71 671 l 1
 108.333333333 671 156 670.166666667 214 668.5 c 128
 272 666.833333333 305.666666667 666 315 666 c 0
 348.333333333 666 390.666666667 666.833333333 442 668.5 c 128
 493.333333333 670.166666667 522.666666667 671 530 671 c 1
 521.333333333 647 517 624 517 602 c 1
EndSplineSet
EndChar
StartChar: trademark
Encoding: 931 931 159
Width: 514
Flags: W
LayerCount: 2
Fore
SplineSet
517 602 m 1,0,1
 458 609 458 609 405.5 612.5 c 128,-1,2
 353 616 353 616 302 616 c 2,3,-1
 194 616 l 1,4,5
 220 570 220 570 242.5 530.5 c 128,-1,6
 265 491 265 491 301 432 c 2,7,-1
 358 340 l 1,8,9
 213 216 213 216 95 86 c 1,10,-1
 256 86 l 1,11,-1
 476 92 l 1,12,13
 468 69 468 69 463 46 c 128,-1,14
 458 23 458 23 458 0 c 1,15,16
 416 0 416 0 329 3 c 128,-1,17
 242 6 242 6 200 6 c 256,18,19
 158 6 158 6 78 3 c 128,-1,20
 -2 0 -2 0 -44 0 c 1,21,-1
 -36 35 l 1,22,23
 114 176 114 176 258 326 c 1,24,25
 212 410 212 410 189 450 c 128,-1,26
 166 490 166 490 130 542 c 1,27,-1
 65 641 l 1,28,-1
 71 671 l 1,29,30
 127 671 127 671 214 668.5 c 128,-1,31
 301 666 301 666 315 666 c 0,32,33
 365 666 365 666 442 668.5 c 128,-1,34
 519 671 519 671 530 671 c 1,35,36
 517 635 517 635 517 602 c 1,0,1
EndSplineSet
EndChar
StartChar: Agrave
Encoding: 933 933 179
Width: 480
Flags: W
LayerCount: 2
Fore
SplineSet
184 274 m 1,0,1
 143 379 143 379 126.5 420.5 c 128,-1,2
 110 462 110 462 80 533.5 c 128,-1,3
 50 605 50 605 22 671 c 1,4,5
 46 668 46 668 52.5 667.5 c 128,-1,6
 59 667 59 667 77 667 c 0,7,8
 86 667 86 667 108.5 669 c 128,-1,9
 131 671 131 671 133 671 c 1,10,11
 153 598 153 598 167 556.5 c 128,-1,12
 181 515 181 515 255 324 c 1,13,-1
 361 486 l 2,14,15
 386 526 386 526 415.5 576 c 128,-1,16
 445 626 445 626 467 671 c 1,17,-1
 509 667 l 1,18,19
 530 667 530 667 541.5 669 c 128,-1,20
 553 671 553 671 560 671 c 1,21,-1
 483 572 l 1,22,-1
 416 478 l 1,23,-1
 275 279 l 1,24,-1
 253 170 l 1,25,26
 237 85 237 85 229 0 c 1,27,28
 216 1 216 1 199.5 3 c 128,-1,29
 183 5 183 5 174 5 c 0,30,31
 156 5 156 5 144.5 3.5 c 128,-1,32
 133 2 133 2 119 0 c 1,33,34
 140 65 140 65 156.5 143.5 c 128,-1,35
 173 222 173 222 184 274 c 1,0,1
EndSplineSet
EndChar
StartChar: ordmasculine
Encoding: 934 934 170
Width: 794
Flags: W
LayerCount: 2
Fore
SplineSet
382 -17 m 1,0,1
 358 -11 358 -11 332 -11 c 0,2,3
 304 -11 304 -11 274 -17 c 1,4,-1
 294 51 l 1,5,6
 190 60 190 60 113 122.5 c 128,-1,7
 36 185 36 185 36 283 c 0,8,9
 36 443 36 443 142.5 534 c 128,-1,10
 249 625 249 625 410 625 c 1,11,-1
 419 689 l 1,12,13
 431 687 431 687 446.5 685 c 128,-1,14
 462 683 462 683 474 683 c 0,15,16
 485 683 485 683 500.5 685 c 128,-1,17
 516 687 516 687 527 689 c 1,18,-1
 508 621 l 1,19,20
 614 609 614 609 689 548 c 128,-1,21
 764 487 764 487 764 388 c 0,22,23
 764 227 764 227 659 137.5 c 128,-1,24
 554 48 554 48 392 48 c 1,25,-1
 382 -17 l 1,0,1
662 375 m 0,26,27
 662 458 662 458 618 517 c 128,-1,28
 574 576 574 576 496 576 c 1,29,30
 463 436 463 436 440.5 327 c 128,-1,31
 418 218 418 218 398 96 c 1,32,33
 510 96 510 96 586 179 c 128,-1,34
 662 262 662 262 662 375 c 0,26,27
139 293 m 0,35,36
 139 211 139 211 183 153.5 c 128,-1,37
 227 96 227 96 306 96 c 1,38,39
 334 219 334 219 357 334.5 c 128,-1,40
 380 450 380 450 402 576 c 1,41,42
 285 576 285 576 212 494 c 128,-1,43
 139 412 139 412 139 293 c 0,35,36
EndSplineSet
EndChar
